G04 #@! TF.FileFunction,Copper,L1,Top,Signal*
%FSLAX46Y46*%
G04 Gerber Fmt 4.6, Leading zero omitted, Abs format (unit mm)*
G04 Created by KiCad (PCBNEW 4.0.2+dfsg1-stable) date wto, 24 sty 2017, 13:26:45*
%MOMM*%
G01*
G04 APERTURE LIST*
%ADD10C,0.100000*%
%ADD11R,1.500000X1.300000*%
%ADD12R,1.500000X1.250000*%
%ADD13R,1.350000X1.350000*%
%ADD14C,1.350000*%
%ADD15R,0.800000X0.600000*%
%ADD16R,1.550000X1.300000*%
%ADD17R,1.500000X0.300000*%
%ADD18R,0.300000X1.500000*%
%ADD19C,1.500000*%
%ADD20R,1.250000X1.500000*%
%ADD21R,1.000000X0.250000*%
%ADD22R,0.250000X1.000000*%
%ADD23R,1.198880X1.198880*%
%ADD24R,2.032000X1.727200*%
%ADD25O,2.032000X1.727200*%
%ADD26R,2.032000X2.032000*%
%ADD27O,2.032000X2.032000*%
%ADD28R,1.727200X1.727200*%
%ADD29O,1.727200X1.727200*%
%ADD30R,0.299720X1.501140*%
%ADD31R,7.000240X3.599180*%
%ADD32C,1.778000*%
%ADD33R,2.000000X3.700000*%
G04 APERTURE END LIST*
D10*
D11*
X121650000Y-83000000D03*
X124350000Y-83000000D03*
X131650000Y-83000000D03*
X134350000Y-83000000D03*
X91650000Y-78000000D03*
X94350000Y-78000000D03*
X67650000Y-106000000D03*
X70350000Y-106000000D03*
X90650000Y-98000000D03*
X93350000Y-98000000D03*
X100650000Y-107000000D03*
X103350000Y-107000000D03*
X83650000Y-92000000D03*
X86350000Y-92000000D03*
X100650000Y-102000000D03*
X103350000Y-102000000D03*
X99650000Y-98000000D03*
X102350000Y-98000000D03*
X88650000Y-106000000D03*
X91350000Y-106000000D03*
D12*
X107750000Y-97000000D03*
X110250000Y-97000000D03*
X117750000Y-108000000D03*
X120250000Y-108000000D03*
X75750000Y-92000000D03*
X78250000Y-92000000D03*
X107750000Y-108000000D03*
X110250000Y-108000000D03*
X91750000Y-87000000D03*
X94250000Y-87000000D03*
X90750000Y-92000000D03*
X93250000Y-92000000D03*
X91750000Y-82000000D03*
X94250000Y-82000000D03*
X98750000Y-78000000D03*
X101250000Y-78000000D03*
X98750000Y-87000000D03*
X101250000Y-87000000D03*
X107750000Y-102000000D03*
X110250000Y-102000000D03*
X85750000Y-87000000D03*
X88250000Y-87000000D03*
D13*
X130000000Y-73000000D03*
D14*
X132000000Y-73000000D03*
X134000000Y-73000000D03*
D15*
X129200000Y-101650000D03*
X129200000Y-100350000D03*
X130800000Y-101000000D03*
X98200000Y-93650000D03*
X98200000Y-92350000D03*
X99800000Y-93000000D03*
D11*
X76650000Y-78000000D03*
X79350000Y-78000000D03*
X85650000Y-82000000D03*
X88350000Y-82000000D03*
X83650000Y-98000000D03*
X86350000Y-98000000D03*
X117650000Y-103000000D03*
X120350000Y-103000000D03*
X85650000Y-78000000D03*
X88350000Y-78000000D03*
X117650000Y-97000000D03*
X120350000Y-97000000D03*
X77650000Y-87000000D03*
X80350000Y-87000000D03*
X77650000Y-83000000D03*
X80350000Y-83000000D03*
X98650000Y-82000000D03*
X101350000Y-82000000D03*
X75650000Y-106000000D03*
X78350000Y-106000000D03*
X75650000Y-98000000D03*
X78350000Y-98000000D03*
X82650000Y-106000000D03*
X85350000Y-106000000D03*
D16*
X60025000Y-93750000D03*
X67975000Y-93750000D03*
X60025000Y-98250000D03*
X67975000Y-98250000D03*
D17*
X106300000Y-80250000D03*
X106300000Y-80750000D03*
X106300000Y-81250000D03*
X106300000Y-81750000D03*
X106300000Y-82250000D03*
X106300000Y-82750000D03*
X106300000Y-83250000D03*
X106300000Y-83750000D03*
X106300000Y-84250000D03*
X106300000Y-84750000D03*
X106300000Y-85250000D03*
X106300000Y-85750000D03*
X106300000Y-86250000D03*
X106300000Y-86750000D03*
X106300000Y-87250000D03*
X106300000Y-87750000D03*
D18*
X108250000Y-89700000D03*
X108750000Y-89700000D03*
X109250000Y-89700000D03*
X109750000Y-89700000D03*
X110250000Y-89700000D03*
X110750000Y-89700000D03*
X111250000Y-89700000D03*
X111750000Y-89700000D03*
X112250000Y-89700000D03*
X112750000Y-89700000D03*
X113250000Y-89700000D03*
X113750000Y-89700000D03*
X114250000Y-89700000D03*
X114750000Y-89700000D03*
X115250000Y-89700000D03*
X115750000Y-89700000D03*
D17*
X117700000Y-87750000D03*
X117700000Y-87250000D03*
X117700000Y-86750000D03*
X117700000Y-86250000D03*
X117700000Y-85750000D03*
X117700000Y-85250000D03*
X117700000Y-84750000D03*
X117700000Y-84250000D03*
X117700000Y-83750000D03*
X117700000Y-83250000D03*
X117700000Y-82750000D03*
X117700000Y-82250000D03*
X117700000Y-81750000D03*
X117700000Y-81250000D03*
X117700000Y-80750000D03*
X117700000Y-80250000D03*
D18*
X115750000Y-78300000D03*
X115250000Y-78300000D03*
X114750000Y-78300000D03*
X114250000Y-78300000D03*
X113750000Y-78300000D03*
X113250000Y-78300000D03*
X112750000Y-78300000D03*
X112250000Y-78300000D03*
X111750000Y-78300000D03*
X111250000Y-78300000D03*
X110750000Y-78300000D03*
X110250000Y-78300000D03*
X109750000Y-78300000D03*
X109250000Y-78300000D03*
X108750000Y-78300000D03*
X108250000Y-78300000D03*
D19*
X103000000Y-70000000D03*
X107900000Y-70000000D03*
D11*
X87650000Y-65000000D03*
X90350000Y-65000000D03*
X88650000Y-57000000D03*
X91350000Y-57000000D03*
X77650000Y-62000000D03*
X80350000Y-62000000D03*
X80650000Y-50000000D03*
X83350000Y-50000000D03*
X65650000Y-56000000D03*
X68350000Y-56000000D03*
D12*
X61750000Y-43000000D03*
X64250000Y-43000000D03*
X69750000Y-43000000D03*
X72250000Y-43000000D03*
X54750000Y-50000000D03*
X57250000Y-50000000D03*
X54750000Y-55000000D03*
X57250000Y-55000000D03*
X61750000Y-47000000D03*
X64250000Y-47000000D03*
X69750000Y-47000000D03*
X72250000Y-47000000D03*
X61750000Y-51000000D03*
X64250000Y-51000000D03*
X69750000Y-51000000D03*
X72250000Y-51000000D03*
X75750000Y-43000000D03*
X78250000Y-43000000D03*
X81750000Y-43000000D03*
X84250000Y-43000000D03*
X87750000Y-43000000D03*
X90250000Y-43000000D03*
X75750000Y-47000000D03*
X78250000Y-47000000D03*
X81750000Y-47000000D03*
X84250000Y-47000000D03*
D20*
X56000000Y-44250000D03*
X56000000Y-41750000D03*
D21*
X119300000Y-50250000D03*
X119300000Y-50750000D03*
X119300000Y-51250000D03*
X119300000Y-51750000D03*
X119300000Y-52250000D03*
X119300000Y-52750000D03*
X119300000Y-53250000D03*
X119300000Y-53750000D03*
X119300000Y-54250000D03*
X119300000Y-54750000D03*
X119300000Y-55250000D03*
X119300000Y-55750000D03*
X119300000Y-56250000D03*
X119300000Y-56750000D03*
X119300000Y-57250000D03*
X119300000Y-57750000D03*
D22*
X121250000Y-59700000D03*
X121750000Y-59700000D03*
X122250000Y-59700000D03*
X122750000Y-59700000D03*
X123250000Y-59700000D03*
X123750000Y-59700000D03*
X124250000Y-59700000D03*
X124750000Y-59700000D03*
X125250000Y-59700000D03*
X125750000Y-59700000D03*
X126250000Y-59700000D03*
X126750000Y-59700000D03*
X127250000Y-59700000D03*
X127750000Y-59700000D03*
X128250000Y-59700000D03*
X128750000Y-59700000D03*
D21*
X130700000Y-57750000D03*
X130700000Y-57250000D03*
X130700000Y-56750000D03*
X130700000Y-56250000D03*
X130700000Y-55750000D03*
X130700000Y-55250000D03*
X130700000Y-54750000D03*
X130700000Y-54250000D03*
X130700000Y-53750000D03*
X130700000Y-53250000D03*
X130700000Y-52750000D03*
X130700000Y-52250000D03*
X130700000Y-51750000D03*
X130700000Y-51250000D03*
X130700000Y-50750000D03*
X130700000Y-50250000D03*
D22*
X128750000Y-48300000D03*
X128250000Y-48300000D03*
X127750000Y-48300000D03*
X127250000Y-48300000D03*
X126750000Y-48300000D03*
X126250000Y-48300000D03*
X125750000Y-48300000D03*
X125250000Y-48300000D03*
X124750000Y-48300000D03*
X124250000Y-48300000D03*
X123750000Y-48300000D03*
X123250000Y-48300000D03*
X122750000Y-48300000D03*
X122250000Y-48300000D03*
X121750000Y-48300000D03*
X121250000Y-48300000D03*
D12*
X69750000Y-127000000D03*
X72250000Y-127000000D03*
X74750000Y-127000000D03*
X77250000Y-127000000D03*
X86750000Y-138000000D03*
X89250000Y-138000000D03*
X107750000Y-138000000D03*
X110250000Y-138000000D03*
X79750000Y-127000000D03*
X82250000Y-127000000D03*
X84750000Y-127000000D03*
X87250000Y-127000000D03*
X112750000Y-138000000D03*
X115250000Y-138000000D03*
X84750000Y-122000000D03*
X87250000Y-122000000D03*
X79750000Y-122000000D03*
X82250000Y-122000000D03*
X74750000Y-122000000D03*
X77250000Y-122000000D03*
X69750000Y-122000000D03*
X72250000Y-122000000D03*
X69750000Y-116000000D03*
X72250000Y-116000000D03*
X74750000Y-116000000D03*
X77250000Y-116000000D03*
X79750000Y-116000000D03*
X82250000Y-116000000D03*
X84750000Y-116000000D03*
X87250000Y-116000000D03*
X94750000Y-127000000D03*
X97250000Y-127000000D03*
X99750000Y-127000000D03*
X102250000Y-127000000D03*
X104750000Y-127000000D03*
X107250000Y-127000000D03*
D11*
X109650000Y-127000000D03*
X112350000Y-127000000D03*
X94650000Y-122000000D03*
X97350000Y-122000000D03*
X99650000Y-122000000D03*
X102350000Y-122000000D03*
X104650000Y-122000000D03*
X107350000Y-122000000D03*
X109650000Y-122000000D03*
X112350000Y-122000000D03*
X94650000Y-116000000D03*
X97350000Y-116000000D03*
X99650000Y-116000000D03*
X102350000Y-116000000D03*
X104650000Y-116000000D03*
X107350000Y-116000000D03*
X109650000Y-116000000D03*
X112350000Y-116000000D03*
X51650000Y-116000000D03*
X54350000Y-116000000D03*
X56650000Y-116000000D03*
X59350000Y-116000000D03*
X61650000Y-116000000D03*
X64350000Y-116000000D03*
X51650000Y-122000000D03*
X54350000Y-122000000D03*
X56650000Y-122000000D03*
X59350000Y-122000000D03*
X61650000Y-122000000D03*
X64350000Y-122000000D03*
X51650000Y-129000000D03*
X54350000Y-129000000D03*
X51650000Y-135000000D03*
X54350000Y-135000000D03*
X58650000Y-135000000D03*
X61350000Y-135000000D03*
X92650000Y-138000000D03*
X95350000Y-138000000D03*
X97650000Y-138000000D03*
X100350000Y-138000000D03*
X102650000Y-138000000D03*
X105350000Y-138000000D03*
D12*
X64790000Y-76200000D03*
X67290000Y-76200000D03*
X64790000Y-72390000D03*
X67290000Y-72390000D03*
X64790000Y-67310000D03*
X67290000Y-67310000D03*
X53360000Y-63500000D03*
X55860000Y-63500000D03*
X53360000Y-67310000D03*
X55860000Y-67310000D03*
X53360000Y-71120000D03*
X55860000Y-71120000D03*
X59710000Y-63500000D03*
X62210000Y-63500000D03*
X59710000Y-68580000D03*
X62210000Y-68580000D03*
X59710000Y-73660000D03*
X62210000Y-73660000D03*
D23*
X67089020Y-90170000D03*
X64990980Y-90170000D03*
X67089020Y-86360000D03*
X64990980Y-86360000D03*
X55659020Y-77470000D03*
X53560980Y-77470000D03*
D11*
X64690000Y-82550000D03*
X67390000Y-82550000D03*
X53260000Y-82550000D03*
X55960000Y-82550000D03*
X53260000Y-87630000D03*
X55960000Y-87630000D03*
X53260000Y-91440000D03*
X55960000Y-91440000D03*
X53260000Y-95250000D03*
X55960000Y-95250000D03*
X53260000Y-100330000D03*
X55960000Y-100330000D03*
X53260000Y-104140000D03*
X55960000Y-104140000D03*
X90090000Y-111760000D03*
X92790000Y-111760000D03*
X83740000Y-111760000D03*
X86440000Y-111760000D03*
X78660000Y-110490000D03*
X81360000Y-110490000D03*
X72310000Y-110490000D03*
X75010000Y-110490000D03*
X65960000Y-110490000D03*
X68660000Y-110490000D03*
X60880000Y-102870000D03*
X63580000Y-102870000D03*
X96440000Y-111760000D03*
X99140000Y-111760000D03*
X60880000Y-106680000D03*
X63580000Y-106680000D03*
X53260000Y-107950000D03*
X55960000Y-107950000D03*
X53260000Y-107950000D03*
X55960000Y-107950000D03*
X53260000Y-107950000D03*
X55960000Y-107950000D03*
X53260000Y-107950000D03*
X55960000Y-107950000D03*
X53260000Y-107950000D03*
X55960000Y-107950000D03*
X53260000Y-107950000D03*
X55960000Y-107950000D03*
X53260000Y-107950000D03*
X55960000Y-107950000D03*
X53260000Y-107950000D03*
X55960000Y-107950000D03*
X53260000Y-107950000D03*
X55960000Y-107950000D03*
X53260000Y-107950000D03*
X55960000Y-107950000D03*
X53260000Y-107950000D03*
X55960000Y-107950000D03*
X53260000Y-107950000D03*
X55960000Y-107950000D03*
X53260000Y-107950000D03*
X55960000Y-107950000D03*
D24*
X132080000Y-114300000D03*
D25*
X132080000Y-116840000D03*
X132080000Y-119380000D03*
X132080000Y-121920000D03*
X132080000Y-124460000D03*
X132080000Y-127000000D03*
D24*
X158750000Y-114300000D03*
D25*
X158750000Y-116840000D03*
X158750000Y-119380000D03*
X158750000Y-121920000D03*
X158750000Y-124460000D03*
X158750000Y-127000000D03*
X158750000Y-129540000D03*
X158750000Y-132080000D03*
X158750000Y-134620000D03*
X158750000Y-137160000D03*
D26*
X166370000Y-114300000D03*
D27*
X166370000Y-116840000D03*
D24*
X154940000Y-114300000D03*
D25*
X154940000Y-116840000D03*
X154940000Y-119380000D03*
X154940000Y-121920000D03*
X154940000Y-124460000D03*
X154940000Y-127000000D03*
D24*
X151130000Y-114300000D03*
D25*
X151130000Y-116840000D03*
X151130000Y-119380000D03*
X151130000Y-121920000D03*
X151130000Y-124460000D03*
D24*
X147320000Y-114300000D03*
D25*
X147320000Y-116840000D03*
X147320000Y-119380000D03*
X147320000Y-121920000D03*
X147320000Y-124460000D03*
D24*
X135890000Y-114300000D03*
D25*
X135890000Y-116840000D03*
X135890000Y-119380000D03*
D24*
X139700000Y-114300000D03*
D25*
X139700000Y-116840000D03*
X139700000Y-119380000D03*
D26*
X170180000Y-114300000D03*
D27*
X170180000Y-116840000D03*
D24*
X128270000Y-114300000D03*
D25*
X128270000Y-116840000D03*
X128270000Y-119380000D03*
D26*
X162560000Y-114300000D03*
D27*
X162560000Y-116840000D03*
D26*
X185420000Y-114300000D03*
D27*
X185420000Y-116840000D03*
D28*
X189230000Y-114300000D03*
D29*
X191770000Y-114300000D03*
X189230000Y-116840000D03*
X191770000Y-116840000D03*
X189230000Y-119380000D03*
X191770000Y-119380000D03*
X189230000Y-121920000D03*
X191770000Y-121920000D03*
X189230000Y-124460000D03*
X191770000Y-124460000D03*
X189230000Y-127000000D03*
X191770000Y-127000000D03*
X189230000Y-129540000D03*
X191770000Y-129540000D03*
X189230000Y-132080000D03*
X191770000Y-132080000D03*
X189230000Y-134620000D03*
X191770000Y-134620000D03*
X189230000Y-137160000D03*
X191770000Y-137160000D03*
D26*
X181610000Y-114300000D03*
D27*
X181610000Y-116840000D03*
D30*
X77233780Y-130619500D03*
X76733400Y-130619500D03*
X76233020Y-130619500D03*
X75732640Y-130619500D03*
X75232260Y-130619500D03*
X74734420Y-130619500D03*
X74234040Y-130619500D03*
X73733660Y-130619500D03*
X73233280Y-130619500D03*
X72732900Y-130619500D03*
X72232520Y-130619500D03*
X81732120Y-130619500D03*
X81234280Y-130619500D03*
X80733900Y-130619500D03*
X76233020Y-138620500D03*
X79733140Y-130619500D03*
X79232760Y-130619500D03*
X78732380Y-130619500D03*
X78234540Y-130619500D03*
X77734160Y-130619500D03*
X73733660Y-138620500D03*
X74234040Y-138620500D03*
X74734420Y-138620500D03*
X75232260Y-138620500D03*
X75732640Y-138620500D03*
X80233520Y-130619500D03*
X76733400Y-138620500D03*
X77233780Y-138620500D03*
X77734160Y-138620500D03*
X78234540Y-138620500D03*
X78732380Y-138620500D03*
X79232760Y-138620500D03*
X79733140Y-138620500D03*
X68234560Y-138620500D03*
X68732400Y-138620500D03*
X69232780Y-138620500D03*
X69733160Y-138620500D03*
X70233540Y-138620500D03*
X70733920Y-138620500D03*
X71234300Y-138620500D03*
X71732140Y-138620500D03*
X72232520Y-138620500D03*
X72732900Y-138620500D03*
X73233280Y-138620500D03*
X80233520Y-138620500D03*
X80733900Y-138620500D03*
X81234280Y-138620500D03*
X81732120Y-138620500D03*
X71732140Y-130619500D03*
X71234300Y-130619500D03*
X70733920Y-130619500D03*
X70233540Y-130619500D03*
X69733160Y-130619500D03*
X69232780Y-130619500D03*
X68732400Y-130619500D03*
X68234560Y-130619500D03*
D31*
X74930000Y-134620000D03*
D32*
X63500000Y-142240000D03*
X68580000Y-142240000D03*
D33*
X138970000Y-46990000D03*
X142970000Y-46990000D03*
M02*
