G04 #@! TF.FileFunction,Legend,Top*
%FSLAX46Y46*%
G04 Gerber Fmt 4.6, Leading zero omitted, Abs format (unit mm)*
G04 Created by KiCad (PCBNEW 4.0.2+dfsg1-stable) date wto, 24 sty 2017, 13:26:45*
%MOMM*%
G01*
G04 APERTURE LIST*
%ADD10C,0.100000*%
%ADD11C,0.150000*%
%ADD12C,0.120000*%
%ADD13C,0.127000*%
%ADD14C,0.149860*%
G04 APERTURE END LIST*
D10*
D11*
X123600000Y-83875000D02*
X122400000Y-83875000D01*
X122400000Y-82125000D02*
X123600000Y-82125000D01*
X133600000Y-83875000D02*
X132400000Y-83875000D01*
X132400000Y-82125000D02*
X133600000Y-82125000D01*
X93600000Y-78875000D02*
X92400000Y-78875000D01*
X92400000Y-77125000D02*
X93600000Y-77125000D01*
X69600000Y-106875000D02*
X68400000Y-106875000D01*
X68400000Y-105125000D02*
X69600000Y-105125000D01*
X92600000Y-98875000D02*
X91400000Y-98875000D01*
X91400000Y-97125000D02*
X92600000Y-97125000D01*
X102600000Y-107875000D02*
X101400000Y-107875000D01*
X101400000Y-106125000D02*
X102600000Y-106125000D01*
X85600000Y-92875000D02*
X84400000Y-92875000D01*
X84400000Y-91125000D02*
X85600000Y-91125000D01*
X102600000Y-102875000D02*
X101400000Y-102875000D01*
X101400000Y-101125000D02*
X102600000Y-101125000D01*
X101600000Y-98875000D02*
X100400000Y-98875000D01*
X100400000Y-97125000D02*
X101600000Y-97125000D01*
X90600000Y-106875000D02*
X89400000Y-106875000D01*
X89400000Y-105125000D02*
X90600000Y-105125000D01*
D12*
X109500000Y-96150000D02*
X108500000Y-96150000D01*
X108500000Y-97850000D02*
X109500000Y-97850000D01*
X119500000Y-107150000D02*
X118500000Y-107150000D01*
X118500000Y-108850000D02*
X119500000Y-108850000D01*
X77500000Y-91150000D02*
X76500000Y-91150000D01*
X76500000Y-92850000D02*
X77500000Y-92850000D01*
X109500000Y-107150000D02*
X108500000Y-107150000D01*
X108500000Y-108850000D02*
X109500000Y-108850000D01*
X93500000Y-86150000D02*
X92500000Y-86150000D01*
X92500000Y-87850000D02*
X93500000Y-87850000D01*
X92500000Y-91150000D02*
X91500000Y-91150000D01*
X91500000Y-92850000D02*
X92500000Y-92850000D01*
X93500000Y-81150000D02*
X92500000Y-81150000D01*
X92500000Y-82850000D02*
X93500000Y-82850000D01*
X100500000Y-77150000D02*
X99500000Y-77150000D01*
X99500000Y-78850000D02*
X100500000Y-78850000D01*
X100500000Y-86150000D02*
X99500000Y-86150000D01*
X99500000Y-87850000D02*
X100500000Y-87850000D01*
X109500000Y-101150000D02*
X108500000Y-101150000D01*
X108500000Y-102850000D02*
X109500000Y-102850000D01*
X87500000Y-86150000D02*
X86500000Y-86150000D01*
X86500000Y-87850000D02*
X87500000Y-87850000D01*
D11*
X126850000Y-70900000D02*
X126850000Y-75100000D01*
X126850000Y-75100000D02*
X137150000Y-75100000D01*
X137150000Y-75100000D02*
X137150000Y-70900000D01*
X137150000Y-70900000D02*
X126850000Y-70900000D01*
X128400000Y-73000000D02*
X128400000Y-72250000D01*
X128400000Y-72250000D02*
X129000000Y-71650000D01*
X129000000Y-71650000D02*
X132000000Y-71650000D01*
X135600000Y-73000000D02*
X135600000Y-72250000D01*
X135600000Y-72250000D02*
X135000000Y-71650000D01*
X135000000Y-71650000D02*
X132000000Y-71650000D01*
X130000000Y-75500000D02*
X129700000Y-76100000D01*
X129700000Y-76100000D02*
X130300000Y-76100000D01*
X130300000Y-76100000D02*
X130000000Y-75500000D01*
D12*
X130735000Y-102160000D02*
X130735000Y-101550000D01*
X130735000Y-99840000D02*
X130735000Y-100450000D01*
X130735000Y-99840000D02*
X128900000Y-99840000D01*
X129300000Y-102160000D02*
X130735000Y-102160000D01*
X99735000Y-94160000D02*
X99735000Y-93550000D01*
X99735000Y-91840000D02*
X99735000Y-92450000D01*
X99735000Y-91840000D02*
X97900000Y-91840000D01*
X98300000Y-94160000D02*
X99735000Y-94160000D01*
D11*
X78600000Y-78875000D02*
X77400000Y-78875000D01*
X77400000Y-77125000D02*
X78600000Y-77125000D01*
X87600000Y-82875000D02*
X86400000Y-82875000D01*
X86400000Y-81125000D02*
X87600000Y-81125000D01*
X85600000Y-98875000D02*
X84400000Y-98875000D01*
X84400000Y-97125000D02*
X85600000Y-97125000D01*
X119600000Y-103875000D02*
X118400000Y-103875000D01*
X118400000Y-102125000D02*
X119600000Y-102125000D01*
X87600000Y-78875000D02*
X86400000Y-78875000D01*
X86400000Y-77125000D02*
X87600000Y-77125000D01*
X119600000Y-97875000D02*
X118400000Y-97875000D01*
X118400000Y-96125000D02*
X119600000Y-96125000D01*
X79600000Y-87875000D02*
X78400000Y-87875000D01*
X78400000Y-86125000D02*
X79600000Y-86125000D01*
X79600000Y-83875000D02*
X78400000Y-83875000D01*
X78400000Y-82125000D02*
X79600000Y-82125000D01*
X100600000Y-82875000D02*
X99400000Y-82875000D01*
X99400000Y-81125000D02*
X100600000Y-81125000D01*
X77600000Y-106875000D02*
X76400000Y-106875000D01*
X76400000Y-105125000D02*
X77600000Y-105125000D01*
X77600000Y-98875000D02*
X76400000Y-98875000D01*
X76400000Y-97125000D02*
X77600000Y-97125000D01*
X84600000Y-106875000D02*
X83400000Y-106875000D01*
X83400000Y-105125000D02*
X84600000Y-105125000D01*
X60850000Y-92800000D02*
X60850000Y-92550000D01*
X60850000Y-92550000D02*
X67150000Y-92550000D01*
X67150000Y-92550000D02*
X67150000Y-92800000D01*
X60850000Y-97300000D02*
X60850000Y-94700000D01*
X67150000Y-99200000D02*
X67150000Y-99450000D01*
X67150000Y-99450000D02*
X60850000Y-99450000D01*
X60850000Y-99450000D02*
X60850000Y-99200000D01*
X67150000Y-94700000D02*
X67150000Y-97300000D01*
X65650000Y-96000000D02*
G75*
G03X65650000Y-96000000I-1650000J0D01*
G01*
X106825000Y-78825000D02*
X106825000Y-79775000D01*
X117175000Y-78825000D02*
X117175000Y-79875000D01*
X117175000Y-89175000D02*
X117175000Y-88125000D01*
X106825000Y-89175000D02*
X106825000Y-88125000D01*
X106825000Y-78825000D02*
X107875000Y-78825000D01*
X106825000Y-89175000D02*
X107875000Y-89175000D01*
X117175000Y-89175000D02*
X116125000Y-89175000D01*
X117175000Y-78825000D02*
X116125000Y-78825000D01*
X106825000Y-79775000D02*
X105550000Y-79775000D01*
D12*
X102325000Y-72525000D02*
G75*
G02X102325000Y-67475000I0J2525000D01*
G01*
X108575000Y-72525000D02*
G75*
G03X108575000Y-67475000I0J2525000D01*
G01*
X102325000Y-67475000D02*
X108575000Y-67475000D01*
X102325000Y-72525000D02*
X108575000Y-72525000D01*
D11*
X89600000Y-65875000D02*
X88400000Y-65875000D01*
X88400000Y-64125000D02*
X89600000Y-64125000D01*
X90600000Y-57875000D02*
X89400000Y-57875000D01*
X89400000Y-56125000D02*
X90600000Y-56125000D01*
X79600000Y-62875000D02*
X78400000Y-62875000D01*
X78400000Y-61125000D02*
X79600000Y-61125000D01*
X82600000Y-50875000D02*
X81400000Y-50875000D01*
X81400000Y-49125000D02*
X82600000Y-49125000D01*
X67600000Y-56875000D02*
X66400000Y-56875000D01*
X66400000Y-55125000D02*
X67600000Y-55125000D01*
D12*
X63500000Y-42150000D02*
X62500000Y-42150000D01*
X62500000Y-43850000D02*
X63500000Y-43850000D01*
X71500000Y-42150000D02*
X70500000Y-42150000D01*
X70500000Y-43850000D02*
X71500000Y-43850000D01*
X56500000Y-49150000D02*
X55500000Y-49150000D01*
X55500000Y-50850000D02*
X56500000Y-50850000D01*
X56500000Y-54150000D02*
X55500000Y-54150000D01*
X55500000Y-55850000D02*
X56500000Y-55850000D01*
X63500000Y-46150000D02*
X62500000Y-46150000D01*
X62500000Y-47850000D02*
X63500000Y-47850000D01*
X71500000Y-46150000D02*
X70500000Y-46150000D01*
X70500000Y-47850000D02*
X71500000Y-47850000D01*
X63500000Y-50150000D02*
X62500000Y-50150000D01*
X62500000Y-51850000D02*
X63500000Y-51850000D01*
X71500000Y-50150000D02*
X70500000Y-50150000D01*
X70500000Y-51850000D02*
X71500000Y-51850000D01*
X77500000Y-42150000D02*
X76500000Y-42150000D01*
X76500000Y-43850000D02*
X77500000Y-43850000D01*
X83500000Y-42150000D02*
X82500000Y-42150000D01*
X82500000Y-43850000D02*
X83500000Y-43850000D01*
X89500000Y-42150000D02*
X88500000Y-42150000D01*
X88500000Y-43850000D02*
X89500000Y-43850000D01*
X77500000Y-46150000D02*
X76500000Y-46150000D01*
X76500000Y-47850000D02*
X77500000Y-47850000D01*
X83500000Y-46150000D02*
X82500000Y-46150000D01*
X82500000Y-47850000D02*
X83500000Y-47850000D01*
X55150000Y-42500000D02*
X55150000Y-43500000D01*
X56850000Y-43500000D02*
X56850000Y-42500000D01*
D11*
X119825000Y-48825000D02*
X119825000Y-49825000D01*
X130175000Y-48825000D02*
X130175000Y-49900000D01*
X130175000Y-59175000D02*
X130175000Y-58100000D01*
X119825000Y-59175000D02*
X119825000Y-58100000D01*
X119825000Y-48825000D02*
X120900000Y-48825000D01*
X119825000Y-59175000D02*
X120900000Y-59175000D01*
X130175000Y-59175000D02*
X129100000Y-59175000D01*
X130175000Y-48825000D02*
X129100000Y-48825000D01*
X119825000Y-49825000D02*
X118800000Y-49825000D01*
D12*
X71500000Y-126150000D02*
X70500000Y-126150000D01*
X70500000Y-127850000D02*
X71500000Y-127850000D01*
X76500000Y-126150000D02*
X75500000Y-126150000D01*
X75500000Y-127850000D02*
X76500000Y-127850000D01*
X88500000Y-137150000D02*
X87500000Y-137150000D01*
X87500000Y-138850000D02*
X88500000Y-138850000D01*
X109500000Y-137150000D02*
X108500000Y-137150000D01*
X108500000Y-138850000D02*
X109500000Y-138850000D01*
X81500000Y-126150000D02*
X80500000Y-126150000D01*
X80500000Y-127850000D02*
X81500000Y-127850000D01*
X86500000Y-126150000D02*
X85500000Y-126150000D01*
X85500000Y-127850000D02*
X86500000Y-127850000D01*
X114500000Y-137150000D02*
X113500000Y-137150000D01*
X113500000Y-138850000D02*
X114500000Y-138850000D01*
X86500000Y-121150000D02*
X85500000Y-121150000D01*
X85500000Y-122850000D02*
X86500000Y-122850000D01*
X81500000Y-121150000D02*
X80500000Y-121150000D01*
X80500000Y-122850000D02*
X81500000Y-122850000D01*
X76500000Y-121150000D02*
X75500000Y-121150000D01*
X75500000Y-122850000D02*
X76500000Y-122850000D01*
X71500000Y-121150000D02*
X70500000Y-121150000D01*
X70500000Y-122850000D02*
X71500000Y-122850000D01*
X71500000Y-115150000D02*
X70500000Y-115150000D01*
X70500000Y-116850000D02*
X71500000Y-116850000D01*
X76500000Y-115150000D02*
X75500000Y-115150000D01*
X75500000Y-116850000D02*
X76500000Y-116850000D01*
X81500000Y-115150000D02*
X80500000Y-115150000D01*
X80500000Y-116850000D02*
X81500000Y-116850000D01*
X86500000Y-115150000D02*
X85500000Y-115150000D01*
X85500000Y-116850000D02*
X86500000Y-116850000D01*
X96500000Y-126150000D02*
X95500000Y-126150000D01*
X95500000Y-127850000D02*
X96500000Y-127850000D01*
X101500000Y-126150000D02*
X100500000Y-126150000D01*
X100500000Y-127850000D02*
X101500000Y-127850000D01*
X106500000Y-126150000D02*
X105500000Y-126150000D01*
X105500000Y-127850000D02*
X106500000Y-127850000D01*
D11*
X111600000Y-127875000D02*
X110400000Y-127875000D01*
X110400000Y-126125000D02*
X111600000Y-126125000D01*
X96600000Y-122875000D02*
X95400000Y-122875000D01*
X95400000Y-121125000D02*
X96600000Y-121125000D01*
X101600000Y-122875000D02*
X100400000Y-122875000D01*
X100400000Y-121125000D02*
X101600000Y-121125000D01*
X106600000Y-122875000D02*
X105400000Y-122875000D01*
X105400000Y-121125000D02*
X106600000Y-121125000D01*
X111600000Y-122875000D02*
X110400000Y-122875000D01*
X110400000Y-121125000D02*
X111600000Y-121125000D01*
X96600000Y-116875000D02*
X95400000Y-116875000D01*
X95400000Y-115125000D02*
X96600000Y-115125000D01*
X101600000Y-116875000D02*
X100400000Y-116875000D01*
X100400000Y-115125000D02*
X101600000Y-115125000D01*
X106600000Y-116875000D02*
X105400000Y-116875000D01*
X105400000Y-115125000D02*
X106600000Y-115125000D01*
X111600000Y-116875000D02*
X110400000Y-116875000D01*
X110400000Y-115125000D02*
X111600000Y-115125000D01*
X53600000Y-116875000D02*
X52400000Y-116875000D01*
X52400000Y-115125000D02*
X53600000Y-115125000D01*
X58600000Y-116875000D02*
X57400000Y-116875000D01*
X57400000Y-115125000D02*
X58600000Y-115125000D01*
X63600000Y-116875000D02*
X62400000Y-116875000D01*
X62400000Y-115125000D02*
X63600000Y-115125000D01*
X53600000Y-122875000D02*
X52400000Y-122875000D01*
X52400000Y-121125000D02*
X53600000Y-121125000D01*
X58600000Y-122875000D02*
X57400000Y-122875000D01*
X57400000Y-121125000D02*
X58600000Y-121125000D01*
X63600000Y-122875000D02*
X62400000Y-122875000D01*
X62400000Y-121125000D02*
X63600000Y-121125000D01*
X53600000Y-129875000D02*
X52400000Y-129875000D01*
X52400000Y-128125000D02*
X53600000Y-128125000D01*
X53600000Y-135875000D02*
X52400000Y-135875000D01*
X52400000Y-134125000D02*
X53600000Y-134125000D01*
X60600000Y-135875000D02*
X59400000Y-135875000D01*
X59400000Y-134125000D02*
X60600000Y-134125000D01*
X94600000Y-138875000D02*
X93400000Y-138875000D01*
X93400000Y-137125000D02*
X94600000Y-137125000D01*
X99600000Y-138875000D02*
X98400000Y-138875000D01*
X98400000Y-137125000D02*
X99600000Y-137125000D01*
X104600000Y-138875000D02*
X103400000Y-138875000D01*
X103400000Y-137125000D02*
X104600000Y-137125000D01*
X66540000Y-75350000D02*
X65540000Y-75350000D01*
X65540000Y-77050000D02*
X66540000Y-77050000D01*
X66540000Y-71540000D02*
X65540000Y-71540000D01*
X65540000Y-73240000D02*
X66540000Y-73240000D01*
X66540000Y-66460000D02*
X65540000Y-66460000D01*
X65540000Y-68160000D02*
X66540000Y-68160000D01*
X55110000Y-62650000D02*
X54110000Y-62650000D01*
X54110000Y-64350000D02*
X55110000Y-64350000D01*
X55110000Y-66460000D02*
X54110000Y-66460000D01*
X54110000Y-68160000D02*
X55110000Y-68160000D01*
X55110000Y-70270000D02*
X54110000Y-70270000D01*
X54110000Y-71970000D02*
X55110000Y-71970000D01*
X61460000Y-62650000D02*
X60460000Y-62650000D01*
X60460000Y-64350000D02*
X61460000Y-64350000D01*
X61460000Y-67730000D02*
X60460000Y-67730000D01*
X60460000Y-69430000D02*
X61460000Y-69430000D01*
X61460000Y-72810000D02*
X60460000Y-72810000D01*
X60460000Y-74510000D02*
X61460000Y-74510000D01*
X64440000Y-90920000D02*
X67140000Y-90920000D01*
X64440000Y-89420000D02*
X67140000Y-89420000D01*
X65940000Y-90320000D02*
X65940000Y-90070000D01*
X65940000Y-90070000D02*
X65790000Y-90220000D01*
X65690000Y-89820000D02*
X65690000Y-90520000D01*
X66040000Y-90170000D02*
X66390000Y-90170000D01*
X65690000Y-90170000D02*
X66040000Y-89820000D01*
X66040000Y-89820000D02*
X66040000Y-90520000D01*
X66040000Y-90520000D02*
X65690000Y-90170000D01*
X64440000Y-87110000D02*
X67140000Y-87110000D01*
X64440000Y-85610000D02*
X67140000Y-85610000D01*
X65940000Y-86510000D02*
X65940000Y-86260000D01*
X65940000Y-86260000D02*
X65790000Y-86410000D01*
X65690000Y-86010000D02*
X65690000Y-86710000D01*
X66040000Y-86360000D02*
X66390000Y-86360000D01*
X65690000Y-86360000D02*
X66040000Y-86010000D01*
X66040000Y-86010000D02*
X66040000Y-86710000D01*
X66040000Y-86710000D02*
X65690000Y-86360000D01*
X53010000Y-78220000D02*
X55710000Y-78220000D01*
X53010000Y-76720000D02*
X55710000Y-76720000D01*
X54510000Y-77620000D02*
X54510000Y-77370000D01*
X54510000Y-77370000D02*
X54360000Y-77520000D01*
X54260000Y-77120000D02*
X54260000Y-77820000D01*
X54610000Y-77470000D02*
X54960000Y-77470000D01*
X54260000Y-77470000D02*
X54610000Y-77120000D01*
X54610000Y-77120000D02*
X54610000Y-77820000D01*
X54610000Y-77820000D02*
X54260000Y-77470000D01*
X66640000Y-83425000D02*
X65440000Y-83425000D01*
X65440000Y-81675000D02*
X66640000Y-81675000D01*
X55210000Y-83425000D02*
X54010000Y-83425000D01*
X54010000Y-81675000D02*
X55210000Y-81675000D01*
X55210000Y-88505000D02*
X54010000Y-88505000D01*
X54010000Y-86755000D02*
X55210000Y-86755000D01*
X55210000Y-92315000D02*
X54010000Y-92315000D01*
X54010000Y-90565000D02*
X55210000Y-90565000D01*
X55210000Y-96125000D02*
X54010000Y-96125000D01*
X54010000Y-94375000D02*
X55210000Y-94375000D01*
X55210000Y-101205000D02*
X54010000Y-101205000D01*
X54010000Y-99455000D02*
X55210000Y-99455000D01*
X55210000Y-105015000D02*
X54010000Y-105015000D01*
X54010000Y-103265000D02*
X55210000Y-103265000D01*
X92040000Y-112635000D02*
X90840000Y-112635000D01*
X90840000Y-110885000D02*
X92040000Y-110885000D01*
X85690000Y-112635000D02*
X84490000Y-112635000D01*
X84490000Y-110885000D02*
X85690000Y-110885000D01*
X80610000Y-111365000D02*
X79410000Y-111365000D01*
X79410000Y-109615000D02*
X80610000Y-109615000D01*
X74260000Y-111365000D02*
X73060000Y-111365000D01*
X73060000Y-109615000D02*
X74260000Y-109615000D01*
X67910000Y-111365000D02*
X66710000Y-111365000D01*
X66710000Y-109615000D02*
X67910000Y-109615000D01*
X62830000Y-103745000D02*
X61630000Y-103745000D01*
X61630000Y-101995000D02*
X62830000Y-101995000D01*
X98390000Y-112635000D02*
X97190000Y-112635000D01*
X97190000Y-110885000D02*
X98390000Y-110885000D01*
X62830000Y-107555000D02*
X61630000Y-107555000D01*
X61630000Y-105805000D02*
X62830000Y-105805000D01*
X55210000Y-108825000D02*
X54010000Y-108825000D01*
X54010000Y-107075000D02*
X55210000Y-107075000D01*
X55210000Y-108825000D02*
X54010000Y-108825000D01*
X54010000Y-107075000D02*
X55210000Y-107075000D01*
X55210000Y-108825000D02*
X54010000Y-108825000D01*
X54010000Y-107075000D02*
X55210000Y-107075000D01*
X55210000Y-108825000D02*
X54010000Y-108825000D01*
X54010000Y-107075000D02*
X55210000Y-107075000D01*
X55210000Y-108825000D02*
X54010000Y-108825000D01*
X54010000Y-107075000D02*
X55210000Y-107075000D01*
X55210000Y-108825000D02*
X54010000Y-108825000D01*
X54010000Y-107075000D02*
X55210000Y-107075000D01*
X55210000Y-108825000D02*
X54010000Y-108825000D01*
X54010000Y-107075000D02*
X55210000Y-107075000D01*
X55210000Y-108825000D02*
X54010000Y-108825000D01*
X54010000Y-107075000D02*
X55210000Y-107075000D01*
X55210000Y-108825000D02*
X54010000Y-108825000D01*
X54010000Y-107075000D02*
X55210000Y-107075000D01*
X55210000Y-108825000D02*
X54010000Y-108825000D01*
X54010000Y-107075000D02*
X55210000Y-107075000D01*
X55210000Y-108825000D02*
X54010000Y-108825000D01*
X54010000Y-107075000D02*
X55210000Y-107075000D01*
X55210000Y-108825000D02*
X54010000Y-108825000D01*
X54010000Y-107075000D02*
X55210000Y-107075000D01*
X55210000Y-108825000D02*
X54010000Y-108825000D01*
X54010000Y-107075000D02*
X55210000Y-107075000D01*
X133350000Y-115570000D02*
X133350000Y-128270000D01*
X133350000Y-128270000D02*
X130810000Y-128270000D01*
X130810000Y-128270000D02*
X130810000Y-115570000D01*
X133630000Y-112750000D02*
X133630000Y-114300000D01*
X133350000Y-115570000D02*
X130810000Y-115570000D01*
X130530000Y-114300000D02*
X130530000Y-112750000D01*
X130530000Y-112750000D02*
X133630000Y-112750000D01*
X160020000Y-115570000D02*
X160020000Y-138430000D01*
X160020000Y-138430000D02*
X157480000Y-138430000D01*
X157480000Y-138430000D02*
X157480000Y-115570000D01*
X160300000Y-112750000D02*
X160300000Y-114300000D01*
X160020000Y-115570000D02*
X157480000Y-115570000D01*
X157200000Y-114300000D02*
X157200000Y-112750000D01*
X157200000Y-112750000D02*
X160300000Y-112750000D01*
X167640000Y-115570000D02*
X167640000Y-118110000D01*
X167920000Y-112750000D02*
X167920000Y-114300000D01*
X167640000Y-115570000D02*
X165100000Y-115570000D01*
X164820000Y-114300000D02*
X164820000Y-112750000D01*
X164820000Y-112750000D02*
X167920000Y-112750000D01*
X165100000Y-115570000D02*
X165100000Y-118110000D01*
X165100000Y-118110000D02*
X167640000Y-118110000D01*
X156210000Y-115570000D02*
X156210000Y-128270000D01*
X156210000Y-128270000D02*
X153670000Y-128270000D01*
X153670000Y-128270000D02*
X153670000Y-115570000D01*
X156490000Y-112750000D02*
X156490000Y-114300000D01*
X156210000Y-115570000D02*
X153670000Y-115570000D01*
X153390000Y-114300000D02*
X153390000Y-112750000D01*
X153390000Y-112750000D02*
X156490000Y-112750000D01*
X149580000Y-114300000D02*
X149580000Y-112750000D01*
X149580000Y-112750000D02*
X152680000Y-112750000D01*
X152680000Y-112750000D02*
X152680000Y-114300000D01*
X152400000Y-115570000D02*
X152400000Y-125730000D01*
X152400000Y-125730000D02*
X149860000Y-125730000D01*
X149860000Y-125730000D02*
X149860000Y-115570000D01*
X152400000Y-115570000D02*
X149860000Y-115570000D01*
X145770000Y-114300000D02*
X145770000Y-112750000D01*
X145770000Y-112750000D02*
X148870000Y-112750000D01*
X148870000Y-112750000D02*
X148870000Y-114300000D01*
X148590000Y-115570000D02*
X148590000Y-125730000D01*
X148590000Y-125730000D02*
X146050000Y-125730000D01*
X146050000Y-125730000D02*
X146050000Y-115570000D01*
X148590000Y-115570000D02*
X146050000Y-115570000D01*
X134620000Y-115570000D02*
X134620000Y-120650000D01*
X134620000Y-120650000D02*
X137160000Y-120650000D01*
X137160000Y-120650000D02*
X137160000Y-115570000D01*
X137440000Y-112750000D02*
X137440000Y-114300000D01*
X137160000Y-115570000D02*
X134620000Y-115570000D01*
X134340000Y-114300000D02*
X134340000Y-112750000D01*
X134340000Y-112750000D02*
X137440000Y-112750000D01*
X138430000Y-115570000D02*
X138430000Y-120650000D01*
X138430000Y-120650000D02*
X140970000Y-120650000D01*
X140970000Y-120650000D02*
X140970000Y-115570000D01*
X141250000Y-112750000D02*
X141250000Y-114300000D01*
X140970000Y-115570000D02*
X138430000Y-115570000D01*
X138150000Y-114300000D02*
X138150000Y-112750000D01*
X138150000Y-112750000D02*
X141250000Y-112750000D01*
X171450000Y-115570000D02*
X171450000Y-118110000D01*
X171730000Y-112750000D02*
X171730000Y-114300000D01*
X171450000Y-115570000D02*
X168910000Y-115570000D01*
X168630000Y-114300000D02*
X168630000Y-112750000D01*
X168630000Y-112750000D02*
X171730000Y-112750000D01*
X168910000Y-115570000D02*
X168910000Y-118110000D01*
X168910000Y-118110000D02*
X171450000Y-118110000D01*
X127000000Y-115570000D02*
X127000000Y-120650000D01*
X127000000Y-120650000D02*
X129540000Y-120650000D01*
X129540000Y-120650000D02*
X129540000Y-115570000D01*
X129820000Y-112750000D02*
X129820000Y-114300000D01*
X129540000Y-115570000D02*
X127000000Y-115570000D01*
X126720000Y-114300000D02*
X126720000Y-112750000D01*
X126720000Y-112750000D02*
X129820000Y-112750000D01*
X163830000Y-115570000D02*
X163830000Y-118110000D01*
X164110000Y-112750000D02*
X164110000Y-114300000D01*
X163830000Y-115570000D02*
X161290000Y-115570000D01*
X161010000Y-114300000D02*
X161010000Y-112750000D01*
X161010000Y-112750000D02*
X164110000Y-112750000D01*
X161290000Y-115570000D02*
X161290000Y-118110000D01*
X161290000Y-118110000D02*
X163830000Y-118110000D01*
X186690000Y-115570000D02*
X186690000Y-118110000D01*
X186970000Y-112750000D02*
X186970000Y-114300000D01*
X186690000Y-115570000D02*
X184150000Y-115570000D01*
X183870000Y-114300000D02*
X183870000Y-112750000D01*
X183870000Y-112750000D02*
X186970000Y-112750000D01*
X184150000Y-115570000D02*
X184150000Y-118110000D01*
X184150000Y-118110000D02*
X186690000Y-118110000D01*
X193040000Y-138430000D02*
X193040000Y-113030000D01*
X187960000Y-115570000D02*
X187960000Y-138430000D01*
X193040000Y-138430000D02*
X187960000Y-138430000D01*
X193040000Y-113030000D02*
X190500000Y-113030000D01*
X189230000Y-112750000D02*
X187680000Y-112750000D01*
X190500000Y-113030000D02*
X190500000Y-115570000D01*
X190500000Y-115570000D02*
X187960000Y-115570000D01*
X187680000Y-112750000D02*
X187680000Y-114300000D01*
X182880000Y-115570000D02*
X182880000Y-118110000D01*
X183160000Y-112750000D02*
X183160000Y-114300000D01*
X182880000Y-115570000D02*
X180340000Y-115570000D01*
X180060000Y-114300000D02*
X180060000Y-112750000D01*
X180060000Y-112750000D02*
X183160000Y-112750000D01*
X180340000Y-115570000D02*
X180340000Y-118110000D01*
X180340000Y-118110000D02*
X182880000Y-118110000D01*
D13*
X67533520Y-137619740D02*
X82532220Y-137619740D01*
X82532220Y-131620260D02*
X67533520Y-131620260D01*
X82532220Y-131620260D02*
X82532220Y-137619740D01*
X67533520Y-137619740D02*
X67533520Y-131620260D01*
X68455738Y-136977120D02*
G75*
G03X68455738Y-136977120I-406598J0D01*
G01*
D11*
X59055000Y-140970000D02*
X60325000Y-139700000D01*
X71755000Y-139700000D02*
X73025000Y-140970000D01*
X73025000Y-143510000D02*
X71755000Y-144780000D01*
X59055000Y-143510000D02*
X60325000Y-144780000D01*
X60325000Y-139700000D02*
X71755000Y-139700000D01*
X59055000Y-140970000D02*
X59055000Y-143510000D01*
X60325000Y-144780000D02*
X71755000Y-144780000D01*
X73025000Y-143510000D02*
X73025000Y-140970000D01*
X139770000Y-44790000D02*
X142170000Y-44790000D01*
X142170000Y-49190000D02*
X139770000Y-49190000D01*
X122833334Y-81352381D02*
X122500000Y-80876190D01*
X122261905Y-81352381D02*
X122261905Y-80352381D01*
X122642858Y-80352381D01*
X122738096Y-80400000D01*
X122785715Y-80447619D01*
X122833334Y-80542857D01*
X122833334Y-80685714D01*
X122785715Y-80780952D01*
X122738096Y-80828571D01*
X122642858Y-80876190D01*
X122261905Y-80876190D01*
X123785715Y-81352381D02*
X123214286Y-81352381D01*
X123500000Y-81352381D02*
X123500000Y-80352381D01*
X123404762Y-80495238D01*
X123309524Y-80590476D01*
X123214286Y-80638095D01*
X132833334Y-81352381D02*
X132500000Y-80876190D01*
X132261905Y-81352381D02*
X132261905Y-80352381D01*
X132642858Y-80352381D01*
X132738096Y-80400000D01*
X132785715Y-80447619D01*
X132833334Y-80542857D01*
X132833334Y-80685714D01*
X132785715Y-80780952D01*
X132738096Y-80828571D01*
X132642858Y-80876190D01*
X132261905Y-80876190D01*
X133214286Y-80447619D02*
X133261905Y-80400000D01*
X133357143Y-80352381D01*
X133595239Y-80352381D01*
X133690477Y-80400000D01*
X133738096Y-80447619D01*
X133785715Y-80542857D01*
X133785715Y-80638095D01*
X133738096Y-80780952D01*
X133166667Y-81352381D01*
X133785715Y-81352381D01*
X92833334Y-76352381D02*
X92500000Y-75876190D01*
X92261905Y-76352381D02*
X92261905Y-75352381D01*
X92642858Y-75352381D01*
X92738096Y-75400000D01*
X92785715Y-75447619D01*
X92833334Y-75542857D01*
X92833334Y-75685714D01*
X92785715Y-75780952D01*
X92738096Y-75828571D01*
X92642858Y-75876190D01*
X92261905Y-75876190D01*
X93690477Y-75685714D02*
X93690477Y-76352381D01*
X93452381Y-75304762D02*
X93214286Y-76019048D01*
X93833334Y-76019048D01*
X68833334Y-104352381D02*
X68500000Y-103876190D01*
X68261905Y-104352381D02*
X68261905Y-103352381D01*
X68642858Y-103352381D01*
X68738096Y-103400000D01*
X68785715Y-103447619D01*
X68833334Y-103542857D01*
X68833334Y-103685714D01*
X68785715Y-103780952D01*
X68738096Y-103828571D01*
X68642858Y-103876190D01*
X68261905Y-103876190D01*
X69738096Y-103352381D02*
X69261905Y-103352381D01*
X69214286Y-103828571D01*
X69261905Y-103780952D01*
X69357143Y-103733333D01*
X69595239Y-103733333D01*
X69690477Y-103780952D01*
X69738096Y-103828571D01*
X69785715Y-103923810D01*
X69785715Y-104161905D01*
X69738096Y-104257143D01*
X69690477Y-104304762D01*
X69595239Y-104352381D01*
X69357143Y-104352381D01*
X69261905Y-104304762D01*
X69214286Y-104257143D01*
X91833334Y-96352381D02*
X91500000Y-95876190D01*
X91261905Y-96352381D02*
X91261905Y-95352381D01*
X91642858Y-95352381D01*
X91738096Y-95400000D01*
X91785715Y-95447619D01*
X91833334Y-95542857D01*
X91833334Y-95685714D01*
X91785715Y-95780952D01*
X91738096Y-95828571D01*
X91642858Y-95876190D01*
X91261905Y-95876190D01*
X92690477Y-95352381D02*
X92500000Y-95352381D01*
X92404762Y-95400000D01*
X92357143Y-95447619D01*
X92261905Y-95590476D01*
X92214286Y-95780952D01*
X92214286Y-96161905D01*
X92261905Y-96257143D01*
X92309524Y-96304762D01*
X92404762Y-96352381D01*
X92595239Y-96352381D01*
X92690477Y-96304762D01*
X92738096Y-96257143D01*
X92785715Y-96161905D01*
X92785715Y-95923810D01*
X92738096Y-95828571D01*
X92690477Y-95780952D01*
X92595239Y-95733333D01*
X92404762Y-95733333D01*
X92309524Y-95780952D01*
X92261905Y-95828571D01*
X92214286Y-95923810D01*
X101833334Y-105352381D02*
X101500000Y-104876190D01*
X101261905Y-105352381D02*
X101261905Y-104352381D01*
X101642858Y-104352381D01*
X101738096Y-104400000D01*
X101785715Y-104447619D01*
X101833334Y-104542857D01*
X101833334Y-104685714D01*
X101785715Y-104780952D01*
X101738096Y-104828571D01*
X101642858Y-104876190D01*
X101261905Y-104876190D01*
X102166667Y-104352381D02*
X102833334Y-104352381D01*
X102404762Y-105352381D01*
X84833334Y-90352381D02*
X84500000Y-89876190D01*
X84261905Y-90352381D02*
X84261905Y-89352381D01*
X84642858Y-89352381D01*
X84738096Y-89400000D01*
X84785715Y-89447619D01*
X84833334Y-89542857D01*
X84833334Y-89685714D01*
X84785715Y-89780952D01*
X84738096Y-89828571D01*
X84642858Y-89876190D01*
X84261905Y-89876190D01*
X85404762Y-89780952D02*
X85309524Y-89733333D01*
X85261905Y-89685714D01*
X85214286Y-89590476D01*
X85214286Y-89542857D01*
X85261905Y-89447619D01*
X85309524Y-89400000D01*
X85404762Y-89352381D01*
X85595239Y-89352381D01*
X85690477Y-89400000D01*
X85738096Y-89447619D01*
X85785715Y-89542857D01*
X85785715Y-89590476D01*
X85738096Y-89685714D01*
X85690477Y-89733333D01*
X85595239Y-89780952D01*
X85404762Y-89780952D01*
X85309524Y-89828571D01*
X85261905Y-89876190D01*
X85214286Y-89971429D01*
X85214286Y-90161905D01*
X85261905Y-90257143D01*
X85309524Y-90304762D01*
X85404762Y-90352381D01*
X85595239Y-90352381D01*
X85690477Y-90304762D01*
X85738096Y-90257143D01*
X85785715Y-90161905D01*
X85785715Y-89971429D01*
X85738096Y-89876190D01*
X85690477Y-89828571D01*
X85595239Y-89780952D01*
X101833334Y-100352381D02*
X101500000Y-99876190D01*
X101261905Y-100352381D02*
X101261905Y-99352381D01*
X101642858Y-99352381D01*
X101738096Y-99400000D01*
X101785715Y-99447619D01*
X101833334Y-99542857D01*
X101833334Y-99685714D01*
X101785715Y-99780952D01*
X101738096Y-99828571D01*
X101642858Y-99876190D01*
X101261905Y-99876190D01*
X102309524Y-100352381D02*
X102500000Y-100352381D01*
X102595239Y-100304762D01*
X102642858Y-100257143D01*
X102738096Y-100114286D01*
X102785715Y-99923810D01*
X102785715Y-99542857D01*
X102738096Y-99447619D01*
X102690477Y-99400000D01*
X102595239Y-99352381D01*
X102404762Y-99352381D01*
X102309524Y-99400000D01*
X102261905Y-99447619D01*
X102214286Y-99542857D01*
X102214286Y-99780952D01*
X102261905Y-99876190D01*
X102309524Y-99923810D01*
X102404762Y-99971429D01*
X102595239Y-99971429D01*
X102690477Y-99923810D01*
X102738096Y-99876190D01*
X102785715Y-99780952D01*
X100357143Y-96352381D02*
X100023809Y-95876190D01*
X99785714Y-96352381D02*
X99785714Y-95352381D01*
X100166667Y-95352381D01*
X100261905Y-95400000D01*
X100309524Y-95447619D01*
X100357143Y-95542857D01*
X100357143Y-95685714D01*
X100309524Y-95780952D01*
X100261905Y-95828571D01*
X100166667Y-95876190D01*
X99785714Y-95876190D01*
X101309524Y-96352381D02*
X100738095Y-96352381D01*
X101023809Y-96352381D02*
X101023809Y-95352381D01*
X100928571Y-95495238D01*
X100833333Y-95590476D01*
X100738095Y-95638095D01*
X101928571Y-95352381D02*
X102023810Y-95352381D01*
X102119048Y-95400000D01*
X102166667Y-95447619D01*
X102214286Y-95542857D01*
X102261905Y-95733333D01*
X102261905Y-95971429D01*
X102214286Y-96161905D01*
X102166667Y-96257143D01*
X102119048Y-96304762D01*
X102023810Y-96352381D01*
X101928571Y-96352381D01*
X101833333Y-96304762D01*
X101785714Y-96257143D01*
X101738095Y-96161905D01*
X101690476Y-95971429D01*
X101690476Y-95733333D01*
X101738095Y-95542857D01*
X101785714Y-95447619D01*
X101833333Y-95400000D01*
X101928571Y-95352381D01*
X89357143Y-104352381D02*
X89023809Y-103876190D01*
X88785714Y-104352381D02*
X88785714Y-103352381D01*
X89166667Y-103352381D01*
X89261905Y-103400000D01*
X89309524Y-103447619D01*
X89357143Y-103542857D01*
X89357143Y-103685714D01*
X89309524Y-103780952D01*
X89261905Y-103828571D01*
X89166667Y-103876190D01*
X88785714Y-103876190D01*
X90309524Y-104352381D02*
X89738095Y-104352381D01*
X90023809Y-104352381D02*
X90023809Y-103352381D01*
X89928571Y-103495238D01*
X89833333Y-103590476D01*
X89738095Y-103638095D01*
X91261905Y-104352381D02*
X90690476Y-104352381D01*
X90976190Y-104352381D02*
X90976190Y-103352381D01*
X90880952Y-103495238D01*
X90785714Y-103590476D01*
X90690476Y-103638095D01*
X108357143Y-95257143D02*
X108309524Y-95304762D01*
X108166667Y-95352381D01*
X108071429Y-95352381D01*
X107928571Y-95304762D01*
X107833333Y-95209524D01*
X107785714Y-95114286D01*
X107738095Y-94923810D01*
X107738095Y-94780952D01*
X107785714Y-94590476D01*
X107833333Y-94495238D01*
X107928571Y-94400000D01*
X108071429Y-94352381D01*
X108166667Y-94352381D01*
X108309524Y-94400000D01*
X108357143Y-94447619D01*
X109309524Y-95352381D02*
X108738095Y-95352381D01*
X109023809Y-95352381D02*
X109023809Y-94352381D01*
X108928571Y-94495238D01*
X108833333Y-94590476D01*
X108738095Y-94638095D01*
X109880952Y-94780952D02*
X109785714Y-94733333D01*
X109738095Y-94685714D01*
X109690476Y-94590476D01*
X109690476Y-94542857D01*
X109738095Y-94447619D01*
X109785714Y-94400000D01*
X109880952Y-94352381D01*
X110071429Y-94352381D01*
X110166667Y-94400000D01*
X110214286Y-94447619D01*
X110261905Y-94542857D01*
X110261905Y-94590476D01*
X110214286Y-94685714D01*
X110166667Y-94733333D01*
X110071429Y-94780952D01*
X109880952Y-94780952D01*
X109785714Y-94828571D01*
X109738095Y-94876190D01*
X109690476Y-94971429D01*
X109690476Y-95161905D01*
X109738095Y-95257143D01*
X109785714Y-95304762D01*
X109880952Y-95352381D01*
X110071429Y-95352381D01*
X110166667Y-95304762D01*
X110214286Y-95257143D01*
X110261905Y-95161905D01*
X110261905Y-94971429D01*
X110214286Y-94876190D01*
X110166667Y-94828571D01*
X110071429Y-94780952D01*
X118357143Y-106257143D02*
X118309524Y-106304762D01*
X118166667Y-106352381D01*
X118071429Y-106352381D01*
X117928571Y-106304762D01*
X117833333Y-106209524D01*
X117785714Y-106114286D01*
X117738095Y-105923810D01*
X117738095Y-105780952D01*
X117785714Y-105590476D01*
X117833333Y-105495238D01*
X117928571Y-105400000D01*
X118071429Y-105352381D01*
X118166667Y-105352381D01*
X118309524Y-105400000D01*
X118357143Y-105447619D01*
X119309524Y-106352381D02*
X118738095Y-106352381D01*
X119023809Y-106352381D02*
X119023809Y-105352381D01*
X118928571Y-105495238D01*
X118833333Y-105590476D01*
X118738095Y-105638095D01*
X119785714Y-106352381D02*
X119976190Y-106352381D01*
X120071429Y-106304762D01*
X120119048Y-106257143D01*
X120214286Y-106114286D01*
X120261905Y-105923810D01*
X120261905Y-105542857D01*
X120214286Y-105447619D01*
X120166667Y-105400000D01*
X120071429Y-105352381D01*
X119880952Y-105352381D01*
X119785714Y-105400000D01*
X119738095Y-105447619D01*
X119690476Y-105542857D01*
X119690476Y-105780952D01*
X119738095Y-105876190D01*
X119785714Y-105923810D01*
X119880952Y-105971429D01*
X120071429Y-105971429D01*
X120166667Y-105923810D01*
X120214286Y-105876190D01*
X120261905Y-105780952D01*
X76357143Y-90257143D02*
X76309524Y-90304762D01*
X76166667Y-90352381D01*
X76071429Y-90352381D01*
X75928571Y-90304762D01*
X75833333Y-90209524D01*
X75785714Y-90114286D01*
X75738095Y-89923810D01*
X75738095Y-89780952D01*
X75785714Y-89590476D01*
X75833333Y-89495238D01*
X75928571Y-89400000D01*
X76071429Y-89352381D01*
X76166667Y-89352381D01*
X76309524Y-89400000D01*
X76357143Y-89447619D01*
X76738095Y-89447619D02*
X76785714Y-89400000D01*
X76880952Y-89352381D01*
X77119048Y-89352381D01*
X77214286Y-89400000D01*
X77261905Y-89447619D01*
X77309524Y-89542857D01*
X77309524Y-89638095D01*
X77261905Y-89780952D01*
X76690476Y-90352381D01*
X77309524Y-90352381D01*
X77928571Y-89352381D02*
X78023810Y-89352381D01*
X78119048Y-89400000D01*
X78166667Y-89447619D01*
X78214286Y-89542857D01*
X78261905Y-89733333D01*
X78261905Y-89971429D01*
X78214286Y-90161905D01*
X78166667Y-90257143D01*
X78119048Y-90304762D01*
X78023810Y-90352381D01*
X77928571Y-90352381D01*
X77833333Y-90304762D01*
X77785714Y-90257143D01*
X77738095Y-90161905D01*
X77690476Y-89971429D01*
X77690476Y-89733333D01*
X77738095Y-89542857D01*
X77785714Y-89447619D01*
X77833333Y-89400000D01*
X77928571Y-89352381D01*
X108357143Y-106257143D02*
X108309524Y-106304762D01*
X108166667Y-106352381D01*
X108071429Y-106352381D01*
X107928571Y-106304762D01*
X107833333Y-106209524D01*
X107785714Y-106114286D01*
X107738095Y-105923810D01*
X107738095Y-105780952D01*
X107785714Y-105590476D01*
X107833333Y-105495238D01*
X107928571Y-105400000D01*
X108071429Y-105352381D01*
X108166667Y-105352381D01*
X108309524Y-105400000D01*
X108357143Y-105447619D01*
X108738095Y-105447619D02*
X108785714Y-105400000D01*
X108880952Y-105352381D01*
X109119048Y-105352381D01*
X109214286Y-105400000D01*
X109261905Y-105447619D01*
X109309524Y-105542857D01*
X109309524Y-105638095D01*
X109261905Y-105780952D01*
X108690476Y-106352381D01*
X109309524Y-106352381D01*
X110261905Y-106352381D02*
X109690476Y-106352381D01*
X109976190Y-106352381D02*
X109976190Y-105352381D01*
X109880952Y-105495238D01*
X109785714Y-105590476D01*
X109690476Y-105638095D01*
X92357143Y-85257143D02*
X92309524Y-85304762D01*
X92166667Y-85352381D01*
X92071429Y-85352381D01*
X91928571Y-85304762D01*
X91833333Y-85209524D01*
X91785714Y-85114286D01*
X91738095Y-84923810D01*
X91738095Y-84780952D01*
X91785714Y-84590476D01*
X91833333Y-84495238D01*
X91928571Y-84400000D01*
X92071429Y-84352381D01*
X92166667Y-84352381D01*
X92309524Y-84400000D01*
X92357143Y-84447619D01*
X92738095Y-84447619D02*
X92785714Y-84400000D01*
X92880952Y-84352381D01*
X93119048Y-84352381D01*
X93214286Y-84400000D01*
X93261905Y-84447619D01*
X93309524Y-84542857D01*
X93309524Y-84638095D01*
X93261905Y-84780952D01*
X92690476Y-85352381D01*
X93309524Y-85352381D01*
X93690476Y-84447619D02*
X93738095Y-84400000D01*
X93833333Y-84352381D01*
X94071429Y-84352381D01*
X94166667Y-84400000D01*
X94214286Y-84447619D01*
X94261905Y-84542857D01*
X94261905Y-84638095D01*
X94214286Y-84780952D01*
X93642857Y-85352381D01*
X94261905Y-85352381D01*
X91357143Y-90257143D02*
X91309524Y-90304762D01*
X91166667Y-90352381D01*
X91071429Y-90352381D01*
X90928571Y-90304762D01*
X90833333Y-90209524D01*
X90785714Y-90114286D01*
X90738095Y-89923810D01*
X90738095Y-89780952D01*
X90785714Y-89590476D01*
X90833333Y-89495238D01*
X90928571Y-89400000D01*
X91071429Y-89352381D01*
X91166667Y-89352381D01*
X91309524Y-89400000D01*
X91357143Y-89447619D01*
X91738095Y-89447619D02*
X91785714Y-89400000D01*
X91880952Y-89352381D01*
X92119048Y-89352381D01*
X92214286Y-89400000D01*
X92261905Y-89447619D01*
X92309524Y-89542857D01*
X92309524Y-89638095D01*
X92261905Y-89780952D01*
X91690476Y-90352381D01*
X92309524Y-90352381D01*
X92642857Y-89352381D02*
X93261905Y-89352381D01*
X92928571Y-89733333D01*
X93071429Y-89733333D01*
X93166667Y-89780952D01*
X93214286Y-89828571D01*
X93261905Y-89923810D01*
X93261905Y-90161905D01*
X93214286Y-90257143D01*
X93166667Y-90304762D01*
X93071429Y-90352381D01*
X92785714Y-90352381D01*
X92690476Y-90304762D01*
X92642857Y-90257143D01*
X92357143Y-80257143D02*
X92309524Y-80304762D01*
X92166667Y-80352381D01*
X92071429Y-80352381D01*
X91928571Y-80304762D01*
X91833333Y-80209524D01*
X91785714Y-80114286D01*
X91738095Y-79923810D01*
X91738095Y-79780952D01*
X91785714Y-79590476D01*
X91833333Y-79495238D01*
X91928571Y-79400000D01*
X92071429Y-79352381D01*
X92166667Y-79352381D01*
X92309524Y-79400000D01*
X92357143Y-79447619D01*
X92738095Y-79447619D02*
X92785714Y-79400000D01*
X92880952Y-79352381D01*
X93119048Y-79352381D01*
X93214286Y-79400000D01*
X93261905Y-79447619D01*
X93309524Y-79542857D01*
X93309524Y-79638095D01*
X93261905Y-79780952D01*
X92690476Y-80352381D01*
X93309524Y-80352381D01*
X94166667Y-79685714D02*
X94166667Y-80352381D01*
X93928571Y-79304762D02*
X93690476Y-80019048D01*
X94309524Y-80019048D01*
X99357143Y-76257143D02*
X99309524Y-76304762D01*
X99166667Y-76352381D01*
X99071429Y-76352381D01*
X98928571Y-76304762D01*
X98833333Y-76209524D01*
X98785714Y-76114286D01*
X98738095Y-75923810D01*
X98738095Y-75780952D01*
X98785714Y-75590476D01*
X98833333Y-75495238D01*
X98928571Y-75400000D01*
X99071429Y-75352381D01*
X99166667Y-75352381D01*
X99309524Y-75400000D01*
X99357143Y-75447619D01*
X99738095Y-75447619D02*
X99785714Y-75400000D01*
X99880952Y-75352381D01*
X100119048Y-75352381D01*
X100214286Y-75400000D01*
X100261905Y-75447619D01*
X100309524Y-75542857D01*
X100309524Y-75638095D01*
X100261905Y-75780952D01*
X99690476Y-76352381D01*
X100309524Y-76352381D01*
X101214286Y-75352381D02*
X100738095Y-75352381D01*
X100690476Y-75828571D01*
X100738095Y-75780952D01*
X100833333Y-75733333D01*
X101071429Y-75733333D01*
X101166667Y-75780952D01*
X101214286Y-75828571D01*
X101261905Y-75923810D01*
X101261905Y-76161905D01*
X101214286Y-76257143D01*
X101166667Y-76304762D01*
X101071429Y-76352381D01*
X100833333Y-76352381D01*
X100738095Y-76304762D01*
X100690476Y-76257143D01*
X99357143Y-85257143D02*
X99309524Y-85304762D01*
X99166667Y-85352381D01*
X99071429Y-85352381D01*
X98928571Y-85304762D01*
X98833333Y-85209524D01*
X98785714Y-85114286D01*
X98738095Y-84923810D01*
X98738095Y-84780952D01*
X98785714Y-84590476D01*
X98833333Y-84495238D01*
X98928571Y-84400000D01*
X99071429Y-84352381D01*
X99166667Y-84352381D01*
X99309524Y-84400000D01*
X99357143Y-84447619D01*
X99738095Y-84447619D02*
X99785714Y-84400000D01*
X99880952Y-84352381D01*
X100119048Y-84352381D01*
X100214286Y-84400000D01*
X100261905Y-84447619D01*
X100309524Y-84542857D01*
X100309524Y-84638095D01*
X100261905Y-84780952D01*
X99690476Y-85352381D01*
X100309524Y-85352381D01*
X101166667Y-84352381D02*
X100976190Y-84352381D01*
X100880952Y-84400000D01*
X100833333Y-84447619D01*
X100738095Y-84590476D01*
X100690476Y-84780952D01*
X100690476Y-85161905D01*
X100738095Y-85257143D01*
X100785714Y-85304762D01*
X100880952Y-85352381D01*
X101071429Y-85352381D01*
X101166667Y-85304762D01*
X101214286Y-85257143D01*
X101261905Y-85161905D01*
X101261905Y-84923810D01*
X101214286Y-84828571D01*
X101166667Y-84780952D01*
X101071429Y-84733333D01*
X100880952Y-84733333D01*
X100785714Y-84780952D01*
X100738095Y-84828571D01*
X100690476Y-84923810D01*
X108357143Y-100257143D02*
X108309524Y-100304762D01*
X108166667Y-100352381D01*
X108071429Y-100352381D01*
X107928571Y-100304762D01*
X107833333Y-100209524D01*
X107785714Y-100114286D01*
X107738095Y-99923810D01*
X107738095Y-99780952D01*
X107785714Y-99590476D01*
X107833333Y-99495238D01*
X107928571Y-99400000D01*
X108071429Y-99352381D01*
X108166667Y-99352381D01*
X108309524Y-99400000D01*
X108357143Y-99447619D01*
X108738095Y-99447619D02*
X108785714Y-99400000D01*
X108880952Y-99352381D01*
X109119048Y-99352381D01*
X109214286Y-99400000D01*
X109261905Y-99447619D01*
X109309524Y-99542857D01*
X109309524Y-99638095D01*
X109261905Y-99780952D01*
X108690476Y-100352381D01*
X109309524Y-100352381D01*
X109642857Y-99352381D02*
X110309524Y-99352381D01*
X109880952Y-100352381D01*
X86357143Y-85257143D02*
X86309524Y-85304762D01*
X86166667Y-85352381D01*
X86071429Y-85352381D01*
X85928571Y-85304762D01*
X85833333Y-85209524D01*
X85785714Y-85114286D01*
X85738095Y-84923810D01*
X85738095Y-84780952D01*
X85785714Y-84590476D01*
X85833333Y-84495238D01*
X85928571Y-84400000D01*
X86071429Y-84352381D01*
X86166667Y-84352381D01*
X86309524Y-84400000D01*
X86357143Y-84447619D01*
X86738095Y-84447619D02*
X86785714Y-84400000D01*
X86880952Y-84352381D01*
X87119048Y-84352381D01*
X87214286Y-84400000D01*
X87261905Y-84447619D01*
X87309524Y-84542857D01*
X87309524Y-84638095D01*
X87261905Y-84780952D01*
X86690476Y-85352381D01*
X87309524Y-85352381D01*
X87880952Y-84780952D02*
X87785714Y-84733333D01*
X87738095Y-84685714D01*
X87690476Y-84590476D01*
X87690476Y-84542857D01*
X87738095Y-84447619D01*
X87785714Y-84400000D01*
X87880952Y-84352381D01*
X88071429Y-84352381D01*
X88166667Y-84400000D01*
X88214286Y-84447619D01*
X88261905Y-84542857D01*
X88261905Y-84590476D01*
X88214286Y-84685714D01*
X88166667Y-84733333D01*
X88071429Y-84780952D01*
X87880952Y-84780952D01*
X87785714Y-84828571D01*
X87738095Y-84876190D01*
X87690476Y-84971429D01*
X87690476Y-85161905D01*
X87738095Y-85257143D01*
X87785714Y-85304762D01*
X87880952Y-85352381D01*
X88071429Y-85352381D01*
X88166667Y-85304762D01*
X88214286Y-85257143D01*
X88261905Y-85161905D01*
X88261905Y-84971429D01*
X88214286Y-84876190D01*
X88166667Y-84828571D01*
X88071429Y-84780952D01*
X131261905Y-69952381D02*
X131261905Y-68952381D01*
X131642858Y-68952381D01*
X131738096Y-69000000D01*
X131785715Y-69047619D01*
X131833334Y-69142857D01*
X131833334Y-69285714D01*
X131785715Y-69380952D01*
X131738096Y-69428571D01*
X131642858Y-69476190D01*
X131261905Y-69476190D01*
X132404762Y-69380952D02*
X132309524Y-69333333D01*
X132261905Y-69285714D01*
X132214286Y-69190476D01*
X132214286Y-69142857D01*
X132261905Y-69047619D01*
X132309524Y-69000000D01*
X132404762Y-68952381D01*
X132595239Y-68952381D01*
X132690477Y-69000000D01*
X132738096Y-69047619D01*
X132785715Y-69142857D01*
X132785715Y-69190476D01*
X132738096Y-69285714D01*
X132690477Y-69333333D01*
X132595239Y-69380952D01*
X132404762Y-69380952D01*
X132309524Y-69428571D01*
X132261905Y-69476190D01*
X132214286Y-69571429D01*
X132214286Y-69761905D01*
X132261905Y-69857143D01*
X132309524Y-69904762D01*
X132404762Y-69952381D01*
X132595239Y-69952381D01*
X132690477Y-69904762D01*
X132738096Y-69857143D01*
X132785715Y-69761905D01*
X132785715Y-69571429D01*
X132738096Y-69476190D01*
X132690477Y-69428571D01*
X132595239Y-69380952D01*
X129904762Y-99047619D02*
X129809524Y-99000000D01*
X129714286Y-98904762D01*
X129571429Y-98761905D01*
X129476190Y-98714286D01*
X129380952Y-98714286D01*
X129428571Y-98952381D02*
X129333333Y-98904762D01*
X129238095Y-98809524D01*
X129190476Y-98619048D01*
X129190476Y-98285714D01*
X129238095Y-98095238D01*
X129333333Y-98000000D01*
X129428571Y-97952381D01*
X129619048Y-97952381D01*
X129714286Y-98000000D01*
X129809524Y-98095238D01*
X129857143Y-98285714D01*
X129857143Y-98619048D01*
X129809524Y-98809524D01*
X129714286Y-98904762D01*
X129619048Y-98952381D01*
X129428571Y-98952381D01*
X130809524Y-98952381D02*
X130238095Y-98952381D01*
X130523809Y-98952381D02*
X130523809Y-97952381D01*
X130428571Y-98095238D01*
X130333333Y-98190476D01*
X130238095Y-98238095D01*
X98904762Y-91047619D02*
X98809524Y-91000000D01*
X98714286Y-90904762D01*
X98571429Y-90761905D01*
X98476190Y-90714286D01*
X98380952Y-90714286D01*
X98428571Y-90952381D02*
X98333333Y-90904762D01*
X98238095Y-90809524D01*
X98190476Y-90619048D01*
X98190476Y-90285714D01*
X98238095Y-90095238D01*
X98333333Y-90000000D01*
X98428571Y-89952381D01*
X98619048Y-89952381D01*
X98714286Y-90000000D01*
X98809524Y-90095238D01*
X98857143Y-90285714D01*
X98857143Y-90619048D01*
X98809524Y-90809524D01*
X98714286Y-90904762D01*
X98619048Y-90952381D01*
X98428571Y-90952381D01*
X99238095Y-90047619D02*
X99285714Y-90000000D01*
X99380952Y-89952381D01*
X99619048Y-89952381D01*
X99714286Y-90000000D01*
X99761905Y-90047619D01*
X99809524Y-90142857D01*
X99809524Y-90238095D01*
X99761905Y-90380952D01*
X99190476Y-90952381D01*
X99809524Y-90952381D01*
X77357143Y-76352381D02*
X77023809Y-75876190D01*
X76785714Y-76352381D02*
X76785714Y-75352381D01*
X77166667Y-75352381D01*
X77261905Y-75400000D01*
X77309524Y-75447619D01*
X77357143Y-75542857D01*
X77357143Y-75685714D01*
X77309524Y-75780952D01*
X77261905Y-75828571D01*
X77166667Y-75876190D01*
X76785714Y-75876190D01*
X78309524Y-76352381D02*
X77738095Y-76352381D01*
X78023809Y-76352381D02*
X78023809Y-75352381D01*
X77928571Y-75495238D01*
X77833333Y-75590476D01*
X77738095Y-75638095D01*
X78785714Y-76352381D02*
X78976190Y-76352381D01*
X79071429Y-76304762D01*
X79119048Y-76257143D01*
X79214286Y-76114286D01*
X79261905Y-75923810D01*
X79261905Y-75542857D01*
X79214286Y-75447619D01*
X79166667Y-75400000D01*
X79071429Y-75352381D01*
X78880952Y-75352381D01*
X78785714Y-75400000D01*
X78738095Y-75447619D01*
X78690476Y-75542857D01*
X78690476Y-75780952D01*
X78738095Y-75876190D01*
X78785714Y-75923810D01*
X78880952Y-75971429D01*
X79071429Y-75971429D01*
X79166667Y-75923810D01*
X79214286Y-75876190D01*
X79261905Y-75780952D01*
X86357143Y-80352381D02*
X86023809Y-79876190D01*
X85785714Y-80352381D02*
X85785714Y-79352381D01*
X86166667Y-79352381D01*
X86261905Y-79400000D01*
X86309524Y-79447619D01*
X86357143Y-79542857D01*
X86357143Y-79685714D01*
X86309524Y-79780952D01*
X86261905Y-79828571D01*
X86166667Y-79876190D01*
X85785714Y-79876190D01*
X86738095Y-79447619D02*
X86785714Y-79400000D01*
X86880952Y-79352381D01*
X87119048Y-79352381D01*
X87214286Y-79400000D01*
X87261905Y-79447619D01*
X87309524Y-79542857D01*
X87309524Y-79638095D01*
X87261905Y-79780952D01*
X86690476Y-80352381D01*
X87309524Y-80352381D01*
X87928571Y-79352381D02*
X88023810Y-79352381D01*
X88119048Y-79400000D01*
X88166667Y-79447619D01*
X88214286Y-79542857D01*
X88261905Y-79733333D01*
X88261905Y-79971429D01*
X88214286Y-80161905D01*
X88166667Y-80257143D01*
X88119048Y-80304762D01*
X88023810Y-80352381D01*
X87928571Y-80352381D01*
X87833333Y-80304762D01*
X87785714Y-80257143D01*
X87738095Y-80161905D01*
X87690476Y-79971429D01*
X87690476Y-79733333D01*
X87738095Y-79542857D01*
X87785714Y-79447619D01*
X87833333Y-79400000D01*
X87928571Y-79352381D01*
X84357143Y-96352381D02*
X84023809Y-95876190D01*
X83785714Y-96352381D02*
X83785714Y-95352381D01*
X84166667Y-95352381D01*
X84261905Y-95400000D01*
X84309524Y-95447619D01*
X84357143Y-95542857D01*
X84357143Y-95685714D01*
X84309524Y-95780952D01*
X84261905Y-95828571D01*
X84166667Y-95876190D01*
X83785714Y-95876190D01*
X84738095Y-95447619D02*
X84785714Y-95400000D01*
X84880952Y-95352381D01*
X85119048Y-95352381D01*
X85214286Y-95400000D01*
X85261905Y-95447619D01*
X85309524Y-95542857D01*
X85309524Y-95638095D01*
X85261905Y-95780952D01*
X84690476Y-96352381D01*
X85309524Y-96352381D01*
X86261905Y-96352381D02*
X85690476Y-96352381D01*
X85976190Y-96352381D02*
X85976190Y-95352381D01*
X85880952Y-95495238D01*
X85785714Y-95590476D01*
X85690476Y-95638095D01*
X118357143Y-101352381D02*
X118023809Y-100876190D01*
X117785714Y-101352381D02*
X117785714Y-100352381D01*
X118166667Y-100352381D01*
X118261905Y-100400000D01*
X118309524Y-100447619D01*
X118357143Y-100542857D01*
X118357143Y-100685714D01*
X118309524Y-100780952D01*
X118261905Y-100828571D01*
X118166667Y-100876190D01*
X117785714Y-100876190D01*
X118738095Y-100447619D02*
X118785714Y-100400000D01*
X118880952Y-100352381D01*
X119119048Y-100352381D01*
X119214286Y-100400000D01*
X119261905Y-100447619D01*
X119309524Y-100542857D01*
X119309524Y-100638095D01*
X119261905Y-100780952D01*
X118690476Y-101352381D01*
X119309524Y-101352381D01*
X119690476Y-100447619D02*
X119738095Y-100400000D01*
X119833333Y-100352381D01*
X120071429Y-100352381D01*
X120166667Y-100400000D01*
X120214286Y-100447619D01*
X120261905Y-100542857D01*
X120261905Y-100638095D01*
X120214286Y-100780952D01*
X119642857Y-101352381D01*
X120261905Y-101352381D01*
X86357143Y-76352381D02*
X86023809Y-75876190D01*
X85785714Y-76352381D02*
X85785714Y-75352381D01*
X86166667Y-75352381D01*
X86261905Y-75400000D01*
X86309524Y-75447619D01*
X86357143Y-75542857D01*
X86357143Y-75685714D01*
X86309524Y-75780952D01*
X86261905Y-75828571D01*
X86166667Y-75876190D01*
X85785714Y-75876190D01*
X86738095Y-75447619D02*
X86785714Y-75400000D01*
X86880952Y-75352381D01*
X87119048Y-75352381D01*
X87214286Y-75400000D01*
X87261905Y-75447619D01*
X87309524Y-75542857D01*
X87309524Y-75638095D01*
X87261905Y-75780952D01*
X86690476Y-76352381D01*
X87309524Y-76352381D01*
X87642857Y-75352381D02*
X88261905Y-75352381D01*
X87928571Y-75733333D01*
X88071429Y-75733333D01*
X88166667Y-75780952D01*
X88214286Y-75828571D01*
X88261905Y-75923810D01*
X88261905Y-76161905D01*
X88214286Y-76257143D01*
X88166667Y-76304762D01*
X88071429Y-76352381D01*
X87785714Y-76352381D01*
X87690476Y-76304762D01*
X87642857Y-76257143D01*
X118357143Y-95352381D02*
X118023809Y-94876190D01*
X117785714Y-95352381D02*
X117785714Y-94352381D01*
X118166667Y-94352381D01*
X118261905Y-94400000D01*
X118309524Y-94447619D01*
X118357143Y-94542857D01*
X118357143Y-94685714D01*
X118309524Y-94780952D01*
X118261905Y-94828571D01*
X118166667Y-94876190D01*
X117785714Y-94876190D01*
X118738095Y-94447619D02*
X118785714Y-94400000D01*
X118880952Y-94352381D01*
X119119048Y-94352381D01*
X119214286Y-94400000D01*
X119261905Y-94447619D01*
X119309524Y-94542857D01*
X119309524Y-94638095D01*
X119261905Y-94780952D01*
X118690476Y-95352381D01*
X119309524Y-95352381D01*
X120166667Y-94685714D02*
X120166667Y-95352381D01*
X119928571Y-94304762D02*
X119690476Y-95019048D01*
X120309524Y-95019048D01*
X78357143Y-85352381D02*
X78023809Y-84876190D01*
X77785714Y-85352381D02*
X77785714Y-84352381D01*
X78166667Y-84352381D01*
X78261905Y-84400000D01*
X78309524Y-84447619D01*
X78357143Y-84542857D01*
X78357143Y-84685714D01*
X78309524Y-84780952D01*
X78261905Y-84828571D01*
X78166667Y-84876190D01*
X77785714Y-84876190D01*
X78738095Y-84447619D02*
X78785714Y-84400000D01*
X78880952Y-84352381D01*
X79119048Y-84352381D01*
X79214286Y-84400000D01*
X79261905Y-84447619D01*
X79309524Y-84542857D01*
X79309524Y-84638095D01*
X79261905Y-84780952D01*
X78690476Y-85352381D01*
X79309524Y-85352381D01*
X80214286Y-84352381D02*
X79738095Y-84352381D01*
X79690476Y-84828571D01*
X79738095Y-84780952D01*
X79833333Y-84733333D01*
X80071429Y-84733333D01*
X80166667Y-84780952D01*
X80214286Y-84828571D01*
X80261905Y-84923810D01*
X80261905Y-85161905D01*
X80214286Y-85257143D01*
X80166667Y-85304762D01*
X80071429Y-85352381D01*
X79833333Y-85352381D01*
X79738095Y-85304762D01*
X79690476Y-85257143D01*
X78357143Y-81352381D02*
X78023809Y-80876190D01*
X77785714Y-81352381D02*
X77785714Y-80352381D01*
X78166667Y-80352381D01*
X78261905Y-80400000D01*
X78309524Y-80447619D01*
X78357143Y-80542857D01*
X78357143Y-80685714D01*
X78309524Y-80780952D01*
X78261905Y-80828571D01*
X78166667Y-80876190D01*
X77785714Y-80876190D01*
X78738095Y-80447619D02*
X78785714Y-80400000D01*
X78880952Y-80352381D01*
X79119048Y-80352381D01*
X79214286Y-80400000D01*
X79261905Y-80447619D01*
X79309524Y-80542857D01*
X79309524Y-80638095D01*
X79261905Y-80780952D01*
X78690476Y-81352381D01*
X79309524Y-81352381D01*
X80166667Y-80352381D02*
X79976190Y-80352381D01*
X79880952Y-80400000D01*
X79833333Y-80447619D01*
X79738095Y-80590476D01*
X79690476Y-80780952D01*
X79690476Y-81161905D01*
X79738095Y-81257143D01*
X79785714Y-81304762D01*
X79880952Y-81352381D01*
X80071429Y-81352381D01*
X80166667Y-81304762D01*
X80214286Y-81257143D01*
X80261905Y-81161905D01*
X80261905Y-80923810D01*
X80214286Y-80828571D01*
X80166667Y-80780952D01*
X80071429Y-80733333D01*
X79880952Y-80733333D01*
X79785714Y-80780952D01*
X79738095Y-80828571D01*
X79690476Y-80923810D01*
X99357143Y-80352381D02*
X99023809Y-79876190D01*
X98785714Y-80352381D02*
X98785714Y-79352381D01*
X99166667Y-79352381D01*
X99261905Y-79400000D01*
X99309524Y-79447619D01*
X99357143Y-79542857D01*
X99357143Y-79685714D01*
X99309524Y-79780952D01*
X99261905Y-79828571D01*
X99166667Y-79876190D01*
X98785714Y-79876190D01*
X99738095Y-79447619D02*
X99785714Y-79400000D01*
X99880952Y-79352381D01*
X100119048Y-79352381D01*
X100214286Y-79400000D01*
X100261905Y-79447619D01*
X100309524Y-79542857D01*
X100309524Y-79638095D01*
X100261905Y-79780952D01*
X99690476Y-80352381D01*
X100309524Y-80352381D01*
X100642857Y-79352381D02*
X101309524Y-79352381D01*
X100880952Y-80352381D01*
X76357143Y-104352381D02*
X76023809Y-103876190D01*
X75785714Y-104352381D02*
X75785714Y-103352381D01*
X76166667Y-103352381D01*
X76261905Y-103400000D01*
X76309524Y-103447619D01*
X76357143Y-103542857D01*
X76357143Y-103685714D01*
X76309524Y-103780952D01*
X76261905Y-103828571D01*
X76166667Y-103876190D01*
X75785714Y-103876190D01*
X76738095Y-103447619D02*
X76785714Y-103400000D01*
X76880952Y-103352381D01*
X77119048Y-103352381D01*
X77214286Y-103400000D01*
X77261905Y-103447619D01*
X77309524Y-103542857D01*
X77309524Y-103638095D01*
X77261905Y-103780952D01*
X76690476Y-104352381D01*
X77309524Y-104352381D01*
X77880952Y-103780952D02*
X77785714Y-103733333D01*
X77738095Y-103685714D01*
X77690476Y-103590476D01*
X77690476Y-103542857D01*
X77738095Y-103447619D01*
X77785714Y-103400000D01*
X77880952Y-103352381D01*
X78071429Y-103352381D01*
X78166667Y-103400000D01*
X78214286Y-103447619D01*
X78261905Y-103542857D01*
X78261905Y-103590476D01*
X78214286Y-103685714D01*
X78166667Y-103733333D01*
X78071429Y-103780952D01*
X77880952Y-103780952D01*
X77785714Y-103828571D01*
X77738095Y-103876190D01*
X77690476Y-103971429D01*
X77690476Y-104161905D01*
X77738095Y-104257143D01*
X77785714Y-104304762D01*
X77880952Y-104352381D01*
X78071429Y-104352381D01*
X78166667Y-104304762D01*
X78214286Y-104257143D01*
X78261905Y-104161905D01*
X78261905Y-103971429D01*
X78214286Y-103876190D01*
X78166667Y-103828571D01*
X78071429Y-103780952D01*
X76357143Y-96352381D02*
X76023809Y-95876190D01*
X75785714Y-96352381D02*
X75785714Y-95352381D01*
X76166667Y-95352381D01*
X76261905Y-95400000D01*
X76309524Y-95447619D01*
X76357143Y-95542857D01*
X76357143Y-95685714D01*
X76309524Y-95780952D01*
X76261905Y-95828571D01*
X76166667Y-95876190D01*
X75785714Y-95876190D01*
X76690476Y-95352381D02*
X77309524Y-95352381D01*
X76976190Y-95733333D01*
X77119048Y-95733333D01*
X77214286Y-95780952D01*
X77261905Y-95828571D01*
X77309524Y-95923810D01*
X77309524Y-96161905D01*
X77261905Y-96257143D01*
X77214286Y-96304762D01*
X77119048Y-96352381D01*
X76833333Y-96352381D01*
X76738095Y-96304762D01*
X76690476Y-96257143D01*
X77642857Y-95352381D02*
X78261905Y-95352381D01*
X77928571Y-95733333D01*
X78071429Y-95733333D01*
X78166667Y-95780952D01*
X78214286Y-95828571D01*
X78261905Y-95923810D01*
X78261905Y-96161905D01*
X78214286Y-96257143D01*
X78166667Y-96304762D01*
X78071429Y-96352381D01*
X77785714Y-96352381D01*
X77690476Y-96304762D01*
X77642857Y-96257143D01*
X83357143Y-104352381D02*
X83023809Y-103876190D01*
X82785714Y-104352381D02*
X82785714Y-103352381D01*
X83166667Y-103352381D01*
X83261905Y-103400000D01*
X83309524Y-103447619D01*
X83357143Y-103542857D01*
X83357143Y-103685714D01*
X83309524Y-103780952D01*
X83261905Y-103828571D01*
X83166667Y-103876190D01*
X82785714Y-103876190D01*
X83690476Y-103352381D02*
X84309524Y-103352381D01*
X83976190Y-103733333D01*
X84119048Y-103733333D01*
X84214286Y-103780952D01*
X84261905Y-103828571D01*
X84309524Y-103923810D01*
X84309524Y-104161905D01*
X84261905Y-104257143D01*
X84214286Y-104304762D01*
X84119048Y-104352381D01*
X83833333Y-104352381D01*
X83738095Y-104304762D01*
X83690476Y-104257143D01*
X85166667Y-103685714D02*
X85166667Y-104352381D01*
X84928571Y-103304762D02*
X84690476Y-104019048D01*
X85309524Y-104019048D01*
X62666667Y-91904762D02*
X62809524Y-91952381D01*
X63047620Y-91952381D01*
X63142858Y-91904762D01*
X63190477Y-91857143D01*
X63238096Y-91761905D01*
X63238096Y-91666667D01*
X63190477Y-91571429D01*
X63142858Y-91523810D01*
X63047620Y-91476190D01*
X62857143Y-91428571D01*
X62761905Y-91380952D01*
X62714286Y-91333333D01*
X62666667Y-91238095D01*
X62666667Y-91142857D01*
X62714286Y-91047619D01*
X62761905Y-91000000D01*
X62857143Y-90952381D01*
X63095239Y-90952381D01*
X63238096Y-91000000D01*
X63571429Y-90952381D02*
X63809524Y-91952381D01*
X64000001Y-91238095D01*
X64190477Y-91952381D01*
X64428572Y-90952381D01*
X65333334Y-91952381D02*
X64761905Y-91952381D01*
X65047619Y-91952381D02*
X65047619Y-90952381D01*
X64952381Y-91095238D01*
X64857143Y-91190476D01*
X64761905Y-91238095D01*
X111238095Y-76002381D02*
X111238095Y-76811905D01*
X111285714Y-76907143D01*
X111333333Y-76954762D01*
X111428571Y-77002381D01*
X111619048Y-77002381D01*
X111714286Y-76954762D01*
X111761905Y-76907143D01*
X111809524Y-76811905D01*
X111809524Y-76002381D01*
X112190476Y-76002381D02*
X112809524Y-76002381D01*
X112476190Y-76383333D01*
X112619048Y-76383333D01*
X112714286Y-76430952D01*
X112761905Y-76478571D01*
X112809524Y-76573810D01*
X112809524Y-76811905D01*
X112761905Y-76907143D01*
X112714286Y-76954762D01*
X112619048Y-77002381D01*
X112333333Y-77002381D01*
X112238095Y-76954762D01*
X112190476Y-76907143D01*
X104973809Y-66451190D02*
X104973809Y-66927381D01*
X104640476Y-65927381D02*
X104973809Y-66451190D01*
X105307143Y-65927381D01*
X105592857Y-66022619D02*
X105640476Y-65975000D01*
X105735714Y-65927381D01*
X105973810Y-65927381D01*
X106069048Y-65975000D01*
X106116667Y-66022619D01*
X106164286Y-66117857D01*
X106164286Y-66213095D01*
X106116667Y-66355952D01*
X105545238Y-66927381D01*
X106164286Y-66927381D01*
X88357143Y-63352381D02*
X88023809Y-62876190D01*
X87785714Y-63352381D02*
X87785714Y-62352381D01*
X88166667Y-62352381D01*
X88261905Y-62400000D01*
X88309524Y-62447619D01*
X88357143Y-62542857D01*
X88357143Y-62685714D01*
X88309524Y-62780952D01*
X88261905Y-62828571D01*
X88166667Y-62876190D01*
X87785714Y-62876190D01*
X88738095Y-62447619D02*
X88785714Y-62400000D01*
X88880952Y-62352381D01*
X89119048Y-62352381D01*
X89214286Y-62400000D01*
X89261905Y-62447619D01*
X89309524Y-62542857D01*
X89309524Y-62638095D01*
X89261905Y-62780952D01*
X88690476Y-63352381D01*
X89309524Y-63352381D01*
X89785714Y-63352381D02*
X89976190Y-63352381D01*
X90071429Y-63304762D01*
X90119048Y-63257143D01*
X90214286Y-63114286D01*
X90261905Y-62923810D01*
X90261905Y-62542857D01*
X90214286Y-62447619D01*
X90166667Y-62400000D01*
X90071429Y-62352381D01*
X89880952Y-62352381D01*
X89785714Y-62400000D01*
X89738095Y-62447619D01*
X89690476Y-62542857D01*
X89690476Y-62780952D01*
X89738095Y-62876190D01*
X89785714Y-62923810D01*
X89880952Y-62971429D01*
X90071429Y-62971429D01*
X90166667Y-62923810D01*
X90214286Y-62876190D01*
X90261905Y-62780952D01*
X89357143Y-55352381D02*
X89023809Y-54876190D01*
X88785714Y-55352381D02*
X88785714Y-54352381D01*
X89166667Y-54352381D01*
X89261905Y-54400000D01*
X89309524Y-54447619D01*
X89357143Y-54542857D01*
X89357143Y-54685714D01*
X89309524Y-54780952D01*
X89261905Y-54828571D01*
X89166667Y-54876190D01*
X88785714Y-54876190D01*
X89690476Y-54352381D02*
X90309524Y-54352381D01*
X89976190Y-54733333D01*
X90119048Y-54733333D01*
X90214286Y-54780952D01*
X90261905Y-54828571D01*
X90309524Y-54923810D01*
X90309524Y-55161905D01*
X90261905Y-55257143D01*
X90214286Y-55304762D01*
X90119048Y-55352381D01*
X89833333Y-55352381D01*
X89738095Y-55304762D01*
X89690476Y-55257143D01*
X90928571Y-54352381D02*
X91023810Y-54352381D01*
X91119048Y-54400000D01*
X91166667Y-54447619D01*
X91214286Y-54542857D01*
X91261905Y-54733333D01*
X91261905Y-54971429D01*
X91214286Y-55161905D01*
X91166667Y-55257143D01*
X91119048Y-55304762D01*
X91023810Y-55352381D01*
X90928571Y-55352381D01*
X90833333Y-55304762D01*
X90785714Y-55257143D01*
X90738095Y-55161905D01*
X90690476Y-54971429D01*
X90690476Y-54733333D01*
X90738095Y-54542857D01*
X90785714Y-54447619D01*
X90833333Y-54400000D01*
X90928571Y-54352381D01*
X78357143Y-60352381D02*
X78023809Y-59876190D01*
X77785714Y-60352381D02*
X77785714Y-59352381D01*
X78166667Y-59352381D01*
X78261905Y-59400000D01*
X78309524Y-59447619D01*
X78357143Y-59542857D01*
X78357143Y-59685714D01*
X78309524Y-59780952D01*
X78261905Y-59828571D01*
X78166667Y-59876190D01*
X77785714Y-59876190D01*
X78690476Y-59352381D02*
X79309524Y-59352381D01*
X78976190Y-59733333D01*
X79119048Y-59733333D01*
X79214286Y-59780952D01*
X79261905Y-59828571D01*
X79309524Y-59923810D01*
X79309524Y-60161905D01*
X79261905Y-60257143D01*
X79214286Y-60304762D01*
X79119048Y-60352381D01*
X78833333Y-60352381D01*
X78738095Y-60304762D01*
X78690476Y-60257143D01*
X80261905Y-60352381D02*
X79690476Y-60352381D01*
X79976190Y-60352381D02*
X79976190Y-59352381D01*
X79880952Y-59495238D01*
X79785714Y-59590476D01*
X79690476Y-59638095D01*
X81357143Y-48352381D02*
X81023809Y-47876190D01*
X80785714Y-48352381D02*
X80785714Y-47352381D01*
X81166667Y-47352381D01*
X81261905Y-47400000D01*
X81309524Y-47447619D01*
X81357143Y-47542857D01*
X81357143Y-47685714D01*
X81309524Y-47780952D01*
X81261905Y-47828571D01*
X81166667Y-47876190D01*
X80785714Y-47876190D01*
X81690476Y-47352381D02*
X82309524Y-47352381D01*
X81976190Y-47733333D01*
X82119048Y-47733333D01*
X82214286Y-47780952D01*
X82261905Y-47828571D01*
X82309524Y-47923810D01*
X82309524Y-48161905D01*
X82261905Y-48257143D01*
X82214286Y-48304762D01*
X82119048Y-48352381D01*
X81833333Y-48352381D01*
X81738095Y-48304762D01*
X81690476Y-48257143D01*
X82690476Y-47447619D02*
X82738095Y-47400000D01*
X82833333Y-47352381D01*
X83071429Y-47352381D01*
X83166667Y-47400000D01*
X83214286Y-47447619D01*
X83261905Y-47542857D01*
X83261905Y-47638095D01*
X83214286Y-47780952D01*
X82642857Y-48352381D01*
X83261905Y-48352381D01*
X66357143Y-54352381D02*
X66023809Y-53876190D01*
X65785714Y-54352381D02*
X65785714Y-53352381D01*
X66166667Y-53352381D01*
X66261905Y-53400000D01*
X66309524Y-53447619D01*
X66357143Y-53542857D01*
X66357143Y-53685714D01*
X66309524Y-53780952D01*
X66261905Y-53828571D01*
X66166667Y-53876190D01*
X65785714Y-53876190D01*
X66690476Y-53352381D02*
X67357143Y-53352381D01*
X66928571Y-54352381D01*
X67642857Y-53352381D02*
X68261905Y-53352381D01*
X67928571Y-53733333D01*
X68071429Y-53733333D01*
X68166667Y-53780952D01*
X68214286Y-53828571D01*
X68261905Y-53923810D01*
X68261905Y-54161905D01*
X68214286Y-54257143D01*
X68166667Y-54304762D01*
X68071429Y-54352381D01*
X67785714Y-54352381D01*
X67690476Y-54304762D01*
X67642857Y-54257143D01*
X62833334Y-41257143D02*
X62785715Y-41304762D01*
X62642858Y-41352381D01*
X62547620Y-41352381D01*
X62404762Y-41304762D01*
X62309524Y-41209524D01*
X62261905Y-41114286D01*
X62214286Y-40923810D01*
X62214286Y-40780952D01*
X62261905Y-40590476D01*
X62309524Y-40495238D01*
X62404762Y-40400000D01*
X62547620Y-40352381D01*
X62642858Y-40352381D01*
X62785715Y-40400000D01*
X62833334Y-40447619D01*
X63785715Y-41352381D02*
X63214286Y-41352381D01*
X63500000Y-41352381D02*
X63500000Y-40352381D01*
X63404762Y-40495238D01*
X63309524Y-40590476D01*
X63214286Y-40638095D01*
X70833334Y-41257143D02*
X70785715Y-41304762D01*
X70642858Y-41352381D01*
X70547620Y-41352381D01*
X70404762Y-41304762D01*
X70309524Y-41209524D01*
X70261905Y-41114286D01*
X70214286Y-40923810D01*
X70214286Y-40780952D01*
X70261905Y-40590476D01*
X70309524Y-40495238D01*
X70404762Y-40400000D01*
X70547620Y-40352381D01*
X70642858Y-40352381D01*
X70785715Y-40400000D01*
X70833334Y-40447619D01*
X71214286Y-40447619D02*
X71261905Y-40400000D01*
X71357143Y-40352381D01*
X71595239Y-40352381D01*
X71690477Y-40400000D01*
X71738096Y-40447619D01*
X71785715Y-40542857D01*
X71785715Y-40638095D01*
X71738096Y-40780952D01*
X71166667Y-41352381D01*
X71785715Y-41352381D01*
X55833334Y-48257143D02*
X55785715Y-48304762D01*
X55642858Y-48352381D01*
X55547620Y-48352381D01*
X55404762Y-48304762D01*
X55309524Y-48209524D01*
X55261905Y-48114286D01*
X55214286Y-47923810D01*
X55214286Y-47780952D01*
X55261905Y-47590476D01*
X55309524Y-47495238D01*
X55404762Y-47400000D01*
X55547620Y-47352381D01*
X55642858Y-47352381D01*
X55785715Y-47400000D01*
X55833334Y-47447619D01*
X56166667Y-47352381D02*
X56785715Y-47352381D01*
X56452381Y-47733333D01*
X56595239Y-47733333D01*
X56690477Y-47780952D01*
X56738096Y-47828571D01*
X56785715Y-47923810D01*
X56785715Y-48161905D01*
X56738096Y-48257143D01*
X56690477Y-48304762D01*
X56595239Y-48352381D01*
X56309524Y-48352381D01*
X56214286Y-48304762D01*
X56166667Y-48257143D01*
X55833334Y-53257143D02*
X55785715Y-53304762D01*
X55642858Y-53352381D01*
X55547620Y-53352381D01*
X55404762Y-53304762D01*
X55309524Y-53209524D01*
X55261905Y-53114286D01*
X55214286Y-52923810D01*
X55214286Y-52780952D01*
X55261905Y-52590476D01*
X55309524Y-52495238D01*
X55404762Y-52400000D01*
X55547620Y-52352381D01*
X55642858Y-52352381D01*
X55785715Y-52400000D01*
X55833334Y-52447619D01*
X56690477Y-52685714D02*
X56690477Y-53352381D01*
X56452381Y-52304762D02*
X56214286Y-53019048D01*
X56833334Y-53019048D01*
X62833334Y-45257143D02*
X62785715Y-45304762D01*
X62642858Y-45352381D01*
X62547620Y-45352381D01*
X62404762Y-45304762D01*
X62309524Y-45209524D01*
X62261905Y-45114286D01*
X62214286Y-44923810D01*
X62214286Y-44780952D01*
X62261905Y-44590476D01*
X62309524Y-44495238D01*
X62404762Y-44400000D01*
X62547620Y-44352381D01*
X62642858Y-44352381D01*
X62785715Y-44400000D01*
X62833334Y-44447619D01*
X63738096Y-44352381D02*
X63261905Y-44352381D01*
X63214286Y-44828571D01*
X63261905Y-44780952D01*
X63357143Y-44733333D01*
X63595239Y-44733333D01*
X63690477Y-44780952D01*
X63738096Y-44828571D01*
X63785715Y-44923810D01*
X63785715Y-45161905D01*
X63738096Y-45257143D01*
X63690477Y-45304762D01*
X63595239Y-45352381D01*
X63357143Y-45352381D01*
X63261905Y-45304762D01*
X63214286Y-45257143D01*
X70833334Y-45257143D02*
X70785715Y-45304762D01*
X70642858Y-45352381D01*
X70547620Y-45352381D01*
X70404762Y-45304762D01*
X70309524Y-45209524D01*
X70261905Y-45114286D01*
X70214286Y-44923810D01*
X70214286Y-44780952D01*
X70261905Y-44590476D01*
X70309524Y-44495238D01*
X70404762Y-44400000D01*
X70547620Y-44352381D01*
X70642858Y-44352381D01*
X70785715Y-44400000D01*
X70833334Y-44447619D01*
X71690477Y-44352381D02*
X71500000Y-44352381D01*
X71404762Y-44400000D01*
X71357143Y-44447619D01*
X71261905Y-44590476D01*
X71214286Y-44780952D01*
X71214286Y-45161905D01*
X71261905Y-45257143D01*
X71309524Y-45304762D01*
X71404762Y-45352381D01*
X71595239Y-45352381D01*
X71690477Y-45304762D01*
X71738096Y-45257143D01*
X71785715Y-45161905D01*
X71785715Y-44923810D01*
X71738096Y-44828571D01*
X71690477Y-44780952D01*
X71595239Y-44733333D01*
X71404762Y-44733333D01*
X71309524Y-44780952D01*
X71261905Y-44828571D01*
X71214286Y-44923810D01*
X62833334Y-49257143D02*
X62785715Y-49304762D01*
X62642858Y-49352381D01*
X62547620Y-49352381D01*
X62404762Y-49304762D01*
X62309524Y-49209524D01*
X62261905Y-49114286D01*
X62214286Y-48923810D01*
X62214286Y-48780952D01*
X62261905Y-48590476D01*
X62309524Y-48495238D01*
X62404762Y-48400000D01*
X62547620Y-48352381D01*
X62642858Y-48352381D01*
X62785715Y-48400000D01*
X62833334Y-48447619D01*
X63166667Y-48352381D02*
X63833334Y-48352381D01*
X63404762Y-49352381D01*
X70833334Y-49257143D02*
X70785715Y-49304762D01*
X70642858Y-49352381D01*
X70547620Y-49352381D01*
X70404762Y-49304762D01*
X70309524Y-49209524D01*
X70261905Y-49114286D01*
X70214286Y-48923810D01*
X70214286Y-48780952D01*
X70261905Y-48590476D01*
X70309524Y-48495238D01*
X70404762Y-48400000D01*
X70547620Y-48352381D01*
X70642858Y-48352381D01*
X70785715Y-48400000D01*
X70833334Y-48447619D01*
X71404762Y-48780952D02*
X71309524Y-48733333D01*
X71261905Y-48685714D01*
X71214286Y-48590476D01*
X71214286Y-48542857D01*
X71261905Y-48447619D01*
X71309524Y-48400000D01*
X71404762Y-48352381D01*
X71595239Y-48352381D01*
X71690477Y-48400000D01*
X71738096Y-48447619D01*
X71785715Y-48542857D01*
X71785715Y-48590476D01*
X71738096Y-48685714D01*
X71690477Y-48733333D01*
X71595239Y-48780952D01*
X71404762Y-48780952D01*
X71309524Y-48828571D01*
X71261905Y-48876190D01*
X71214286Y-48971429D01*
X71214286Y-49161905D01*
X71261905Y-49257143D01*
X71309524Y-49304762D01*
X71404762Y-49352381D01*
X71595239Y-49352381D01*
X71690477Y-49304762D01*
X71738096Y-49257143D01*
X71785715Y-49161905D01*
X71785715Y-48971429D01*
X71738096Y-48876190D01*
X71690477Y-48828571D01*
X71595239Y-48780952D01*
X76833334Y-41257143D02*
X76785715Y-41304762D01*
X76642858Y-41352381D01*
X76547620Y-41352381D01*
X76404762Y-41304762D01*
X76309524Y-41209524D01*
X76261905Y-41114286D01*
X76214286Y-40923810D01*
X76214286Y-40780952D01*
X76261905Y-40590476D01*
X76309524Y-40495238D01*
X76404762Y-40400000D01*
X76547620Y-40352381D01*
X76642858Y-40352381D01*
X76785715Y-40400000D01*
X76833334Y-40447619D01*
X77309524Y-41352381D02*
X77500000Y-41352381D01*
X77595239Y-41304762D01*
X77642858Y-41257143D01*
X77738096Y-41114286D01*
X77785715Y-40923810D01*
X77785715Y-40542857D01*
X77738096Y-40447619D01*
X77690477Y-40400000D01*
X77595239Y-40352381D01*
X77404762Y-40352381D01*
X77309524Y-40400000D01*
X77261905Y-40447619D01*
X77214286Y-40542857D01*
X77214286Y-40780952D01*
X77261905Y-40876190D01*
X77309524Y-40923810D01*
X77404762Y-40971429D01*
X77595239Y-40971429D01*
X77690477Y-40923810D01*
X77738096Y-40876190D01*
X77785715Y-40780952D01*
X82357143Y-41257143D02*
X82309524Y-41304762D01*
X82166667Y-41352381D01*
X82071429Y-41352381D01*
X81928571Y-41304762D01*
X81833333Y-41209524D01*
X81785714Y-41114286D01*
X81738095Y-40923810D01*
X81738095Y-40780952D01*
X81785714Y-40590476D01*
X81833333Y-40495238D01*
X81928571Y-40400000D01*
X82071429Y-40352381D01*
X82166667Y-40352381D01*
X82309524Y-40400000D01*
X82357143Y-40447619D01*
X83309524Y-41352381D02*
X82738095Y-41352381D01*
X83023809Y-41352381D02*
X83023809Y-40352381D01*
X82928571Y-40495238D01*
X82833333Y-40590476D01*
X82738095Y-40638095D01*
X83928571Y-40352381D02*
X84023810Y-40352381D01*
X84119048Y-40400000D01*
X84166667Y-40447619D01*
X84214286Y-40542857D01*
X84261905Y-40733333D01*
X84261905Y-40971429D01*
X84214286Y-41161905D01*
X84166667Y-41257143D01*
X84119048Y-41304762D01*
X84023810Y-41352381D01*
X83928571Y-41352381D01*
X83833333Y-41304762D01*
X83785714Y-41257143D01*
X83738095Y-41161905D01*
X83690476Y-40971429D01*
X83690476Y-40733333D01*
X83738095Y-40542857D01*
X83785714Y-40447619D01*
X83833333Y-40400000D01*
X83928571Y-40352381D01*
X88357143Y-41257143D02*
X88309524Y-41304762D01*
X88166667Y-41352381D01*
X88071429Y-41352381D01*
X87928571Y-41304762D01*
X87833333Y-41209524D01*
X87785714Y-41114286D01*
X87738095Y-40923810D01*
X87738095Y-40780952D01*
X87785714Y-40590476D01*
X87833333Y-40495238D01*
X87928571Y-40400000D01*
X88071429Y-40352381D01*
X88166667Y-40352381D01*
X88309524Y-40400000D01*
X88357143Y-40447619D01*
X89309524Y-41352381D02*
X88738095Y-41352381D01*
X89023809Y-41352381D02*
X89023809Y-40352381D01*
X88928571Y-40495238D01*
X88833333Y-40590476D01*
X88738095Y-40638095D01*
X90261905Y-41352381D02*
X89690476Y-41352381D01*
X89976190Y-41352381D02*
X89976190Y-40352381D01*
X89880952Y-40495238D01*
X89785714Y-40590476D01*
X89690476Y-40638095D01*
X76357143Y-45257143D02*
X76309524Y-45304762D01*
X76166667Y-45352381D01*
X76071429Y-45352381D01*
X75928571Y-45304762D01*
X75833333Y-45209524D01*
X75785714Y-45114286D01*
X75738095Y-44923810D01*
X75738095Y-44780952D01*
X75785714Y-44590476D01*
X75833333Y-44495238D01*
X75928571Y-44400000D01*
X76071429Y-44352381D01*
X76166667Y-44352381D01*
X76309524Y-44400000D01*
X76357143Y-44447619D01*
X77309524Y-45352381D02*
X76738095Y-45352381D01*
X77023809Y-45352381D02*
X77023809Y-44352381D01*
X76928571Y-44495238D01*
X76833333Y-44590476D01*
X76738095Y-44638095D01*
X77690476Y-44447619D02*
X77738095Y-44400000D01*
X77833333Y-44352381D01*
X78071429Y-44352381D01*
X78166667Y-44400000D01*
X78214286Y-44447619D01*
X78261905Y-44542857D01*
X78261905Y-44638095D01*
X78214286Y-44780952D01*
X77642857Y-45352381D01*
X78261905Y-45352381D01*
X82357143Y-45257143D02*
X82309524Y-45304762D01*
X82166667Y-45352381D01*
X82071429Y-45352381D01*
X81928571Y-45304762D01*
X81833333Y-45209524D01*
X81785714Y-45114286D01*
X81738095Y-44923810D01*
X81738095Y-44780952D01*
X81785714Y-44590476D01*
X81833333Y-44495238D01*
X81928571Y-44400000D01*
X82071429Y-44352381D01*
X82166667Y-44352381D01*
X82309524Y-44400000D01*
X82357143Y-44447619D01*
X83309524Y-45352381D02*
X82738095Y-45352381D01*
X83023809Y-45352381D02*
X83023809Y-44352381D01*
X82928571Y-44495238D01*
X82833333Y-44590476D01*
X82738095Y-44638095D01*
X83642857Y-44352381D02*
X84261905Y-44352381D01*
X83928571Y-44733333D01*
X84071429Y-44733333D01*
X84166667Y-44780952D01*
X84214286Y-44828571D01*
X84261905Y-44923810D01*
X84261905Y-45161905D01*
X84214286Y-45257143D01*
X84166667Y-45304762D01*
X84071429Y-45352381D01*
X83785714Y-45352381D01*
X83690476Y-45304762D01*
X83642857Y-45257143D01*
X54257143Y-43642857D02*
X54304762Y-43690476D01*
X54352381Y-43833333D01*
X54352381Y-43928571D01*
X54304762Y-44071429D01*
X54209524Y-44166667D01*
X54114286Y-44214286D01*
X53923810Y-44261905D01*
X53780952Y-44261905D01*
X53590476Y-44214286D01*
X53495238Y-44166667D01*
X53400000Y-44071429D01*
X53352381Y-43928571D01*
X53352381Y-43833333D01*
X53400000Y-43690476D01*
X53447619Y-43642857D01*
X53352381Y-42738095D02*
X53352381Y-43214286D01*
X53828571Y-43261905D01*
X53780952Y-43214286D01*
X53733333Y-43119048D01*
X53733333Y-42880952D01*
X53780952Y-42785714D01*
X53828571Y-42738095D01*
X53923810Y-42690476D01*
X54161905Y-42690476D01*
X54257143Y-42738095D01*
X54304762Y-42785714D01*
X54352381Y-42880952D01*
X54352381Y-43119048D01*
X54304762Y-43214286D01*
X54257143Y-43261905D01*
X53447619Y-42309524D02*
X53400000Y-42261905D01*
X53352381Y-42166667D01*
X53352381Y-41928571D01*
X53400000Y-41833333D01*
X53447619Y-41785714D01*
X53542857Y-41738095D01*
X53638095Y-41738095D01*
X53780952Y-41785714D01*
X54352381Y-42357143D01*
X54352381Y-41738095D01*
X124238095Y-46252381D02*
X124238095Y-47061905D01*
X124285714Y-47157143D01*
X124333333Y-47204762D01*
X124428571Y-47252381D01*
X124619048Y-47252381D01*
X124714286Y-47204762D01*
X124761905Y-47157143D01*
X124809524Y-47061905D01*
X124809524Y-46252381D01*
X125238095Y-46347619D02*
X125285714Y-46300000D01*
X125380952Y-46252381D01*
X125619048Y-46252381D01*
X125714286Y-46300000D01*
X125761905Y-46347619D01*
X125809524Y-46442857D01*
X125809524Y-46538095D01*
X125761905Y-46680952D01*
X125190476Y-47252381D01*
X125809524Y-47252381D01*
X70357143Y-125257143D02*
X70309524Y-125304762D01*
X70166667Y-125352381D01*
X70071429Y-125352381D01*
X69928571Y-125304762D01*
X69833333Y-125209524D01*
X69785714Y-125114286D01*
X69738095Y-124923810D01*
X69738095Y-124780952D01*
X69785714Y-124590476D01*
X69833333Y-124495238D01*
X69928571Y-124400000D01*
X70071429Y-124352381D01*
X70166667Y-124352381D01*
X70309524Y-124400000D01*
X70357143Y-124447619D01*
X70738095Y-124447619D02*
X70785714Y-124400000D01*
X70880952Y-124352381D01*
X71119048Y-124352381D01*
X71214286Y-124400000D01*
X71261905Y-124447619D01*
X71309524Y-124542857D01*
X71309524Y-124638095D01*
X71261905Y-124780952D01*
X70690476Y-125352381D01*
X71309524Y-125352381D01*
X71785714Y-125352381D02*
X71976190Y-125352381D01*
X72071429Y-125304762D01*
X72119048Y-125257143D01*
X72214286Y-125114286D01*
X72261905Y-124923810D01*
X72261905Y-124542857D01*
X72214286Y-124447619D01*
X72166667Y-124400000D01*
X72071429Y-124352381D01*
X71880952Y-124352381D01*
X71785714Y-124400000D01*
X71738095Y-124447619D01*
X71690476Y-124542857D01*
X71690476Y-124780952D01*
X71738095Y-124876190D01*
X71785714Y-124923810D01*
X71880952Y-124971429D01*
X72071429Y-124971429D01*
X72166667Y-124923810D01*
X72214286Y-124876190D01*
X72261905Y-124780952D01*
X75357143Y-125257143D02*
X75309524Y-125304762D01*
X75166667Y-125352381D01*
X75071429Y-125352381D01*
X74928571Y-125304762D01*
X74833333Y-125209524D01*
X74785714Y-125114286D01*
X74738095Y-124923810D01*
X74738095Y-124780952D01*
X74785714Y-124590476D01*
X74833333Y-124495238D01*
X74928571Y-124400000D01*
X75071429Y-124352381D01*
X75166667Y-124352381D01*
X75309524Y-124400000D01*
X75357143Y-124447619D01*
X75690476Y-124352381D02*
X76309524Y-124352381D01*
X75976190Y-124733333D01*
X76119048Y-124733333D01*
X76214286Y-124780952D01*
X76261905Y-124828571D01*
X76309524Y-124923810D01*
X76309524Y-125161905D01*
X76261905Y-125257143D01*
X76214286Y-125304762D01*
X76119048Y-125352381D01*
X75833333Y-125352381D01*
X75738095Y-125304762D01*
X75690476Y-125257143D01*
X76928571Y-124352381D02*
X77023810Y-124352381D01*
X77119048Y-124400000D01*
X77166667Y-124447619D01*
X77214286Y-124542857D01*
X77261905Y-124733333D01*
X77261905Y-124971429D01*
X77214286Y-125161905D01*
X77166667Y-125257143D01*
X77119048Y-125304762D01*
X77023810Y-125352381D01*
X76928571Y-125352381D01*
X76833333Y-125304762D01*
X76785714Y-125257143D01*
X76738095Y-125161905D01*
X76690476Y-124971429D01*
X76690476Y-124733333D01*
X76738095Y-124542857D01*
X76785714Y-124447619D01*
X76833333Y-124400000D01*
X76928571Y-124352381D01*
X87357143Y-136257143D02*
X87309524Y-136304762D01*
X87166667Y-136352381D01*
X87071429Y-136352381D01*
X86928571Y-136304762D01*
X86833333Y-136209524D01*
X86785714Y-136114286D01*
X86738095Y-135923810D01*
X86738095Y-135780952D01*
X86785714Y-135590476D01*
X86833333Y-135495238D01*
X86928571Y-135400000D01*
X87071429Y-135352381D01*
X87166667Y-135352381D01*
X87309524Y-135400000D01*
X87357143Y-135447619D01*
X87690476Y-135352381D02*
X88309524Y-135352381D01*
X87976190Y-135733333D01*
X88119048Y-135733333D01*
X88214286Y-135780952D01*
X88261905Y-135828571D01*
X88309524Y-135923810D01*
X88309524Y-136161905D01*
X88261905Y-136257143D01*
X88214286Y-136304762D01*
X88119048Y-136352381D01*
X87833333Y-136352381D01*
X87738095Y-136304762D01*
X87690476Y-136257143D01*
X89261905Y-136352381D02*
X88690476Y-136352381D01*
X88976190Y-136352381D02*
X88976190Y-135352381D01*
X88880952Y-135495238D01*
X88785714Y-135590476D01*
X88690476Y-135638095D01*
X108357143Y-136257143D02*
X108309524Y-136304762D01*
X108166667Y-136352381D01*
X108071429Y-136352381D01*
X107928571Y-136304762D01*
X107833333Y-136209524D01*
X107785714Y-136114286D01*
X107738095Y-135923810D01*
X107738095Y-135780952D01*
X107785714Y-135590476D01*
X107833333Y-135495238D01*
X107928571Y-135400000D01*
X108071429Y-135352381D01*
X108166667Y-135352381D01*
X108309524Y-135400000D01*
X108357143Y-135447619D01*
X108690476Y-135352381D02*
X109309524Y-135352381D01*
X108976190Y-135733333D01*
X109119048Y-135733333D01*
X109214286Y-135780952D01*
X109261905Y-135828571D01*
X109309524Y-135923810D01*
X109309524Y-136161905D01*
X109261905Y-136257143D01*
X109214286Y-136304762D01*
X109119048Y-136352381D01*
X108833333Y-136352381D01*
X108738095Y-136304762D01*
X108690476Y-136257143D01*
X109690476Y-135447619D02*
X109738095Y-135400000D01*
X109833333Y-135352381D01*
X110071429Y-135352381D01*
X110166667Y-135400000D01*
X110214286Y-135447619D01*
X110261905Y-135542857D01*
X110261905Y-135638095D01*
X110214286Y-135780952D01*
X109642857Y-136352381D01*
X110261905Y-136352381D01*
X80357143Y-125257143D02*
X80309524Y-125304762D01*
X80166667Y-125352381D01*
X80071429Y-125352381D01*
X79928571Y-125304762D01*
X79833333Y-125209524D01*
X79785714Y-125114286D01*
X79738095Y-124923810D01*
X79738095Y-124780952D01*
X79785714Y-124590476D01*
X79833333Y-124495238D01*
X79928571Y-124400000D01*
X80071429Y-124352381D01*
X80166667Y-124352381D01*
X80309524Y-124400000D01*
X80357143Y-124447619D01*
X80690476Y-124352381D02*
X81309524Y-124352381D01*
X80976190Y-124733333D01*
X81119048Y-124733333D01*
X81214286Y-124780952D01*
X81261905Y-124828571D01*
X81309524Y-124923810D01*
X81309524Y-125161905D01*
X81261905Y-125257143D01*
X81214286Y-125304762D01*
X81119048Y-125352381D01*
X80833333Y-125352381D01*
X80738095Y-125304762D01*
X80690476Y-125257143D01*
X81642857Y-124352381D02*
X82261905Y-124352381D01*
X81928571Y-124733333D01*
X82071429Y-124733333D01*
X82166667Y-124780952D01*
X82214286Y-124828571D01*
X82261905Y-124923810D01*
X82261905Y-125161905D01*
X82214286Y-125257143D01*
X82166667Y-125304762D01*
X82071429Y-125352381D01*
X81785714Y-125352381D01*
X81690476Y-125304762D01*
X81642857Y-125257143D01*
X85357143Y-125257143D02*
X85309524Y-125304762D01*
X85166667Y-125352381D01*
X85071429Y-125352381D01*
X84928571Y-125304762D01*
X84833333Y-125209524D01*
X84785714Y-125114286D01*
X84738095Y-124923810D01*
X84738095Y-124780952D01*
X84785714Y-124590476D01*
X84833333Y-124495238D01*
X84928571Y-124400000D01*
X85071429Y-124352381D01*
X85166667Y-124352381D01*
X85309524Y-124400000D01*
X85357143Y-124447619D01*
X85690476Y-124352381D02*
X86309524Y-124352381D01*
X85976190Y-124733333D01*
X86119048Y-124733333D01*
X86214286Y-124780952D01*
X86261905Y-124828571D01*
X86309524Y-124923810D01*
X86309524Y-125161905D01*
X86261905Y-125257143D01*
X86214286Y-125304762D01*
X86119048Y-125352381D01*
X85833333Y-125352381D01*
X85738095Y-125304762D01*
X85690476Y-125257143D01*
X87166667Y-124685714D02*
X87166667Y-125352381D01*
X86928571Y-124304762D02*
X86690476Y-125019048D01*
X87309524Y-125019048D01*
X113357143Y-136257143D02*
X113309524Y-136304762D01*
X113166667Y-136352381D01*
X113071429Y-136352381D01*
X112928571Y-136304762D01*
X112833333Y-136209524D01*
X112785714Y-136114286D01*
X112738095Y-135923810D01*
X112738095Y-135780952D01*
X112785714Y-135590476D01*
X112833333Y-135495238D01*
X112928571Y-135400000D01*
X113071429Y-135352381D01*
X113166667Y-135352381D01*
X113309524Y-135400000D01*
X113357143Y-135447619D01*
X113690476Y-135352381D02*
X114309524Y-135352381D01*
X113976190Y-135733333D01*
X114119048Y-135733333D01*
X114214286Y-135780952D01*
X114261905Y-135828571D01*
X114309524Y-135923810D01*
X114309524Y-136161905D01*
X114261905Y-136257143D01*
X114214286Y-136304762D01*
X114119048Y-136352381D01*
X113833333Y-136352381D01*
X113738095Y-136304762D01*
X113690476Y-136257143D01*
X115214286Y-135352381D02*
X114738095Y-135352381D01*
X114690476Y-135828571D01*
X114738095Y-135780952D01*
X114833333Y-135733333D01*
X115071429Y-135733333D01*
X115166667Y-135780952D01*
X115214286Y-135828571D01*
X115261905Y-135923810D01*
X115261905Y-136161905D01*
X115214286Y-136257143D01*
X115166667Y-136304762D01*
X115071429Y-136352381D01*
X114833333Y-136352381D01*
X114738095Y-136304762D01*
X114690476Y-136257143D01*
X85357143Y-120257143D02*
X85309524Y-120304762D01*
X85166667Y-120352381D01*
X85071429Y-120352381D01*
X84928571Y-120304762D01*
X84833333Y-120209524D01*
X84785714Y-120114286D01*
X84738095Y-119923810D01*
X84738095Y-119780952D01*
X84785714Y-119590476D01*
X84833333Y-119495238D01*
X84928571Y-119400000D01*
X85071429Y-119352381D01*
X85166667Y-119352381D01*
X85309524Y-119400000D01*
X85357143Y-119447619D01*
X85690476Y-119352381D02*
X86309524Y-119352381D01*
X85976190Y-119733333D01*
X86119048Y-119733333D01*
X86214286Y-119780952D01*
X86261905Y-119828571D01*
X86309524Y-119923810D01*
X86309524Y-120161905D01*
X86261905Y-120257143D01*
X86214286Y-120304762D01*
X86119048Y-120352381D01*
X85833333Y-120352381D01*
X85738095Y-120304762D01*
X85690476Y-120257143D01*
X87166667Y-119352381D02*
X86976190Y-119352381D01*
X86880952Y-119400000D01*
X86833333Y-119447619D01*
X86738095Y-119590476D01*
X86690476Y-119780952D01*
X86690476Y-120161905D01*
X86738095Y-120257143D01*
X86785714Y-120304762D01*
X86880952Y-120352381D01*
X87071429Y-120352381D01*
X87166667Y-120304762D01*
X87214286Y-120257143D01*
X87261905Y-120161905D01*
X87261905Y-119923810D01*
X87214286Y-119828571D01*
X87166667Y-119780952D01*
X87071429Y-119733333D01*
X86880952Y-119733333D01*
X86785714Y-119780952D01*
X86738095Y-119828571D01*
X86690476Y-119923810D01*
X80357143Y-120257143D02*
X80309524Y-120304762D01*
X80166667Y-120352381D01*
X80071429Y-120352381D01*
X79928571Y-120304762D01*
X79833333Y-120209524D01*
X79785714Y-120114286D01*
X79738095Y-119923810D01*
X79738095Y-119780952D01*
X79785714Y-119590476D01*
X79833333Y-119495238D01*
X79928571Y-119400000D01*
X80071429Y-119352381D01*
X80166667Y-119352381D01*
X80309524Y-119400000D01*
X80357143Y-119447619D01*
X80690476Y-119352381D02*
X81309524Y-119352381D01*
X80976190Y-119733333D01*
X81119048Y-119733333D01*
X81214286Y-119780952D01*
X81261905Y-119828571D01*
X81309524Y-119923810D01*
X81309524Y-120161905D01*
X81261905Y-120257143D01*
X81214286Y-120304762D01*
X81119048Y-120352381D01*
X80833333Y-120352381D01*
X80738095Y-120304762D01*
X80690476Y-120257143D01*
X81642857Y-119352381D02*
X82309524Y-119352381D01*
X81880952Y-120352381D01*
X75357143Y-120257143D02*
X75309524Y-120304762D01*
X75166667Y-120352381D01*
X75071429Y-120352381D01*
X74928571Y-120304762D01*
X74833333Y-120209524D01*
X74785714Y-120114286D01*
X74738095Y-119923810D01*
X74738095Y-119780952D01*
X74785714Y-119590476D01*
X74833333Y-119495238D01*
X74928571Y-119400000D01*
X75071429Y-119352381D01*
X75166667Y-119352381D01*
X75309524Y-119400000D01*
X75357143Y-119447619D01*
X75690476Y-119352381D02*
X76309524Y-119352381D01*
X75976190Y-119733333D01*
X76119048Y-119733333D01*
X76214286Y-119780952D01*
X76261905Y-119828571D01*
X76309524Y-119923810D01*
X76309524Y-120161905D01*
X76261905Y-120257143D01*
X76214286Y-120304762D01*
X76119048Y-120352381D01*
X75833333Y-120352381D01*
X75738095Y-120304762D01*
X75690476Y-120257143D01*
X76880952Y-119780952D02*
X76785714Y-119733333D01*
X76738095Y-119685714D01*
X76690476Y-119590476D01*
X76690476Y-119542857D01*
X76738095Y-119447619D01*
X76785714Y-119400000D01*
X76880952Y-119352381D01*
X77071429Y-119352381D01*
X77166667Y-119400000D01*
X77214286Y-119447619D01*
X77261905Y-119542857D01*
X77261905Y-119590476D01*
X77214286Y-119685714D01*
X77166667Y-119733333D01*
X77071429Y-119780952D01*
X76880952Y-119780952D01*
X76785714Y-119828571D01*
X76738095Y-119876190D01*
X76690476Y-119971429D01*
X76690476Y-120161905D01*
X76738095Y-120257143D01*
X76785714Y-120304762D01*
X76880952Y-120352381D01*
X77071429Y-120352381D01*
X77166667Y-120304762D01*
X77214286Y-120257143D01*
X77261905Y-120161905D01*
X77261905Y-119971429D01*
X77214286Y-119876190D01*
X77166667Y-119828571D01*
X77071429Y-119780952D01*
X70357143Y-120257143D02*
X70309524Y-120304762D01*
X70166667Y-120352381D01*
X70071429Y-120352381D01*
X69928571Y-120304762D01*
X69833333Y-120209524D01*
X69785714Y-120114286D01*
X69738095Y-119923810D01*
X69738095Y-119780952D01*
X69785714Y-119590476D01*
X69833333Y-119495238D01*
X69928571Y-119400000D01*
X70071429Y-119352381D01*
X70166667Y-119352381D01*
X70309524Y-119400000D01*
X70357143Y-119447619D01*
X70690476Y-119352381D02*
X71309524Y-119352381D01*
X70976190Y-119733333D01*
X71119048Y-119733333D01*
X71214286Y-119780952D01*
X71261905Y-119828571D01*
X71309524Y-119923810D01*
X71309524Y-120161905D01*
X71261905Y-120257143D01*
X71214286Y-120304762D01*
X71119048Y-120352381D01*
X70833333Y-120352381D01*
X70738095Y-120304762D01*
X70690476Y-120257143D01*
X71785714Y-120352381D02*
X71976190Y-120352381D01*
X72071429Y-120304762D01*
X72119048Y-120257143D01*
X72214286Y-120114286D01*
X72261905Y-119923810D01*
X72261905Y-119542857D01*
X72214286Y-119447619D01*
X72166667Y-119400000D01*
X72071429Y-119352381D01*
X71880952Y-119352381D01*
X71785714Y-119400000D01*
X71738095Y-119447619D01*
X71690476Y-119542857D01*
X71690476Y-119780952D01*
X71738095Y-119876190D01*
X71785714Y-119923810D01*
X71880952Y-119971429D01*
X72071429Y-119971429D01*
X72166667Y-119923810D01*
X72214286Y-119876190D01*
X72261905Y-119780952D01*
X70357143Y-114257143D02*
X70309524Y-114304762D01*
X70166667Y-114352381D01*
X70071429Y-114352381D01*
X69928571Y-114304762D01*
X69833333Y-114209524D01*
X69785714Y-114114286D01*
X69738095Y-113923810D01*
X69738095Y-113780952D01*
X69785714Y-113590476D01*
X69833333Y-113495238D01*
X69928571Y-113400000D01*
X70071429Y-113352381D01*
X70166667Y-113352381D01*
X70309524Y-113400000D01*
X70357143Y-113447619D01*
X71214286Y-113685714D02*
X71214286Y-114352381D01*
X70976190Y-113304762D02*
X70738095Y-114019048D01*
X71357143Y-114019048D01*
X71928571Y-113352381D02*
X72023810Y-113352381D01*
X72119048Y-113400000D01*
X72166667Y-113447619D01*
X72214286Y-113542857D01*
X72261905Y-113733333D01*
X72261905Y-113971429D01*
X72214286Y-114161905D01*
X72166667Y-114257143D01*
X72119048Y-114304762D01*
X72023810Y-114352381D01*
X71928571Y-114352381D01*
X71833333Y-114304762D01*
X71785714Y-114257143D01*
X71738095Y-114161905D01*
X71690476Y-113971429D01*
X71690476Y-113733333D01*
X71738095Y-113542857D01*
X71785714Y-113447619D01*
X71833333Y-113400000D01*
X71928571Y-113352381D01*
X75357143Y-114257143D02*
X75309524Y-114304762D01*
X75166667Y-114352381D01*
X75071429Y-114352381D01*
X74928571Y-114304762D01*
X74833333Y-114209524D01*
X74785714Y-114114286D01*
X74738095Y-113923810D01*
X74738095Y-113780952D01*
X74785714Y-113590476D01*
X74833333Y-113495238D01*
X74928571Y-113400000D01*
X75071429Y-113352381D01*
X75166667Y-113352381D01*
X75309524Y-113400000D01*
X75357143Y-113447619D01*
X76214286Y-113685714D02*
X76214286Y-114352381D01*
X75976190Y-113304762D02*
X75738095Y-114019048D01*
X76357143Y-114019048D01*
X77261905Y-114352381D02*
X76690476Y-114352381D01*
X76976190Y-114352381D02*
X76976190Y-113352381D01*
X76880952Y-113495238D01*
X76785714Y-113590476D01*
X76690476Y-113638095D01*
X80357143Y-114257143D02*
X80309524Y-114304762D01*
X80166667Y-114352381D01*
X80071429Y-114352381D01*
X79928571Y-114304762D01*
X79833333Y-114209524D01*
X79785714Y-114114286D01*
X79738095Y-113923810D01*
X79738095Y-113780952D01*
X79785714Y-113590476D01*
X79833333Y-113495238D01*
X79928571Y-113400000D01*
X80071429Y-113352381D01*
X80166667Y-113352381D01*
X80309524Y-113400000D01*
X80357143Y-113447619D01*
X81214286Y-113685714D02*
X81214286Y-114352381D01*
X80976190Y-113304762D02*
X80738095Y-114019048D01*
X81357143Y-114019048D01*
X81690476Y-113447619D02*
X81738095Y-113400000D01*
X81833333Y-113352381D01*
X82071429Y-113352381D01*
X82166667Y-113400000D01*
X82214286Y-113447619D01*
X82261905Y-113542857D01*
X82261905Y-113638095D01*
X82214286Y-113780952D01*
X81642857Y-114352381D01*
X82261905Y-114352381D01*
X85357143Y-114257143D02*
X85309524Y-114304762D01*
X85166667Y-114352381D01*
X85071429Y-114352381D01*
X84928571Y-114304762D01*
X84833333Y-114209524D01*
X84785714Y-114114286D01*
X84738095Y-113923810D01*
X84738095Y-113780952D01*
X84785714Y-113590476D01*
X84833333Y-113495238D01*
X84928571Y-113400000D01*
X85071429Y-113352381D01*
X85166667Y-113352381D01*
X85309524Y-113400000D01*
X85357143Y-113447619D01*
X86214286Y-113685714D02*
X86214286Y-114352381D01*
X85976190Y-113304762D02*
X85738095Y-114019048D01*
X86357143Y-114019048D01*
X86642857Y-113352381D02*
X87261905Y-113352381D01*
X86928571Y-113733333D01*
X87071429Y-113733333D01*
X87166667Y-113780952D01*
X87214286Y-113828571D01*
X87261905Y-113923810D01*
X87261905Y-114161905D01*
X87214286Y-114257143D01*
X87166667Y-114304762D01*
X87071429Y-114352381D01*
X86785714Y-114352381D01*
X86690476Y-114304762D01*
X86642857Y-114257143D01*
X95357143Y-125257143D02*
X95309524Y-125304762D01*
X95166667Y-125352381D01*
X95071429Y-125352381D01*
X94928571Y-125304762D01*
X94833333Y-125209524D01*
X94785714Y-125114286D01*
X94738095Y-124923810D01*
X94738095Y-124780952D01*
X94785714Y-124590476D01*
X94833333Y-124495238D01*
X94928571Y-124400000D01*
X95071429Y-124352381D01*
X95166667Y-124352381D01*
X95309524Y-124400000D01*
X95357143Y-124447619D01*
X96214286Y-124685714D02*
X96214286Y-125352381D01*
X95976190Y-124304762D02*
X95738095Y-125019048D01*
X96357143Y-125019048D01*
X97166667Y-124685714D02*
X97166667Y-125352381D01*
X96928571Y-124304762D02*
X96690476Y-125019048D01*
X97309524Y-125019048D01*
X100357143Y-125257143D02*
X100309524Y-125304762D01*
X100166667Y-125352381D01*
X100071429Y-125352381D01*
X99928571Y-125304762D01*
X99833333Y-125209524D01*
X99785714Y-125114286D01*
X99738095Y-124923810D01*
X99738095Y-124780952D01*
X99785714Y-124590476D01*
X99833333Y-124495238D01*
X99928571Y-124400000D01*
X100071429Y-124352381D01*
X100166667Y-124352381D01*
X100309524Y-124400000D01*
X100357143Y-124447619D01*
X101214286Y-124685714D02*
X101214286Y-125352381D01*
X100976190Y-124304762D02*
X100738095Y-125019048D01*
X101357143Y-125019048D01*
X102214286Y-124352381D02*
X101738095Y-124352381D01*
X101690476Y-124828571D01*
X101738095Y-124780952D01*
X101833333Y-124733333D01*
X102071429Y-124733333D01*
X102166667Y-124780952D01*
X102214286Y-124828571D01*
X102261905Y-124923810D01*
X102261905Y-125161905D01*
X102214286Y-125257143D01*
X102166667Y-125304762D01*
X102071429Y-125352381D01*
X101833333Y-125352381D01*
X101738095Y-125304762D01*
X101690476Y-125257143D01*
X105357143Y-125257143D02*
X105309524Y-125304762D01*
X105166667Y-125352381D01*
X105071429Y-125352381D01*
X104928571Y-125304762D01*
X104833333Y-125209524D01*
X104785714Y-125114286D01*
X104738095Y-124923810D01*
X104738095Y-124780952D01*
X104785714Y-124590476D01*
X104833333Y-124495238D01*
X104928571Y-124400000D01*
X105071429Y-124352381D01*
X105166667Y-124352381D01*
X105309524Y-124400000D01*
X105357143Y-124447619D01*
X106214286Y-124685714D02*
X106214286Y-125352381D01*
X105976190Y-124304762D02*
X105738095Y-125019048D01*
X106357143Y-125019048D01*
X107166667Y-124352381D02*
X106976190Y-124352381D01*
X106880952Y-124400000D01*
X106833333Y-124447619D01*
X106738095Y-124590476D01*
X106690476Y-124780952D01*
X106690476Y-125161905D01*
X106738095Y-125257143D01*
X106785714Y-125304762D01*
X106880952Y-125352381D01*
X107071429Y-125352381D01*
X107166667Y-125304762D01*
X107214286Y-125257143D01*
X107261905Y-125161905D01*
X107261905Y-124923810D01*
X107214286Y-124828571D01*
X107166667Y-124780952D01*
X107071429Y-124733333D01*
X106880952Y-124733333D01*
X106785714Y-124780952D01*
X106738095Y-124828571D01*
X106690476Y-124923810D01*
X110357143Y-125352381D02*
X110023809Y-124876190D01*
X109785714Y-125352381D02*
X109785714Y-124352381D01*
X110166667Y-124352381D01*
X110261905Y-124400000D01*
X110309524Y-124447619D01*
X110357143Y-124542857D01*
X110357143Y-124685714D01*
X110309524Y-124780952D01*
X110261905Y-124828571D01*
X110166667Y-124876190D01*
X109785714Y-124876190D01*
X110690476Y-124352381D02*
X111309524Y-124352381D01*
X110976190Y-124733333D01*
X111119048Y-124733333D01*
X111214286Y-124780952D01*
X111261905Y-124828571D01*
X111309524Y-124923810D01*
X111309524Y-125161905D01*
X111261905Y-125257143D01*
X111214286Y-125304762D01*
X111119048Y-125352381D01*
X110833333Y-125352381D01*
X110738095Y-125304762D01*
X110690476Y-125257143D01*
X112214286Y-124352381D02*
X111738095Y-124352381D01*
X111690476Y-124828571D01*
X111738095Y-124780952D01*
X111833333Y-124733333D01*
X112071429Y-124733333D01*
X112166667Y-124780952D01*
X112214286Y-124828571D01*
X112261905Y-124923810D01*
X112261905Y-125161905D01*
X112214286Y-125257143D01*
X112166667Y-125304762D01*
X112071429Y-125352381D01*
X111833333Y-125352381D01*
X111738095Y-125304762D01*
X111690476Y-125257143D01*
X95357143Y-120352381D02*
X95023809Y-119876190D01*
X94785714Y-120352381D02*
X94785714Y-119352381D01*
X95166667Y-119352381D01*
X95261905Y-119400000D01*
X95309524Y-119447619D01*
X95357143Y-119542857D01*
X95357143Y-119685714D01*
X95309524Y-119780952D01*
X95261905Y-119828571D01*
X95166667Y-119876190D01*
X94785714Y-119876190D01*
X95690476Y-119352381D02*
X96309524Y-119352381D01*
X95976190Y-119733333D01*
X96119048Y-119733333D01*
X96214286Y-119780952D01*
X96261905Y-119828571D01*
X96309524Y-119923810D01*
X96309524Y-120161905D01*
X96261905Y-120257143D01*
X96214286Y-120304762D01*
X96119048Y-120352381D01*
X95833333Y-120352381D01*
X95738095Y-120304762D01*
X95690476Y-120257143D01*
X97166667Y-119352381D02*
X96976190Y-119352381D01*
X96880952Y-119400000D01*
X96833333Y-119447619D01*
X96738095Y-119590476D01*
X96690476Y-119780952D01*
X96690476Y-120161905D01*
X96738095Y-120257143D01*
X96785714Y-120304762D01*
X96880952Y-120352381D01*
X97071429Y-120352381D01*
X97166667Y-120304762D01*
X97214286Y-120257143D01*
X97261905Y-120161905D01*
X97261905Y-119923810D01*
X97214286Y-119828571D01*
X97166667Y-119780952D01*
X97071429Y-119733333D01*
X96880952Y-119733333D01*
X96785714Y-119780952D01*
X96738095Y-119828571D01*
X96690476Y-119923810D01*
X100357143Y-120352381D02*
X100023809Y-119876190D01*
X99785714Y-120352381D02*
X99785714Y-119352381D01*
X100166667Y-119352381D01*
X100261905Y-119400000D01*
X100309524Y-119447619D01*
X100357143Y-119542857D01*
X100357143Y-119685714D01*
X100309524Y-119780952D01*
X100261905Y-119828571D01*
X100166667Y-119876190D01*
X99785714Y-119876190D01*
X100690476Y-119352381D02*
X101309524Y-119352381D01*
X100976190Y-119733333D01*
X101119048Y-119733333D01*
X101214286Y-119780952D01*
X101261905Y-119828571D01*
X101309524Y-119923810D01*
X101309524Y-120161905D01*
X101261905Y-120257143D01*
X101214286Y-120304762D01*
X101119048Y-120352381D01*
X100833333Y-120352381D01*
X100738095Y-120304762D01*
X100690476Y-120257143D01*
X101642857Y-119352381D02*
X102309524Y-119352381D01*
X101880952Y-120352381D01*
X105357143Y-120352381D02*
X105023809Y-119876190D01*
X104785714Y-120352381D02*
X104785714Y-119352381D01*
X105166667Y-119352381D01*
X105261905Y-119400000D01*
X105309524Y-119447619D01*
X105357143Y-119542857D01*
X105357143Y-119685714D01*
X105309524Y-119780952D01*
X105261905Y-119828571D01*
X105166667Y-119876190D01*
X104785714Y-119876190D01*
X105690476Y-119352381D02*
X106309524Y-119352381D01*
X105976190Y-119733333D01*
X106119048Y-119733333D01*
X106214286Y-119780952D01*
X106261905Y-119828571D01*
X106309524Y-119923810D01*
X106309524Y-120161905D01*
X106261905Y-120257143D01*
X106214286Y-120304762D01*
X106119048Y-120352381D01*
X105833333Y-120352381D01*
X105738095Y-120304762D01*
X105690476Y-120257143D01*
X106880952Y-119780952D02*
X106785714Y-119733333D01*
X106738095Y-119685714D01*
X106690476Y-119590476D01*
X106690476Y-119542857D01*
X106738095Y-119447619D01*
X106785714Y-119400000D01*
X106880952Y-119352381D01*
X107071429Y-119352381D01*
X107166667Y-119400000D01*
X107214286Y-119447619D01*
X107261905Y-119542857D01*
X107261905Y-119590476D01*
X107214286Y-119685714D01*
X107166667Y-119733333D01*
X107071429Y-119780952D01*
X106880952Y-119780952D01*
X106785714Y-119828571D01*
X106738095Y-119876190D01*
X106690476Y-119971429D01*
X106690476Y-120161905D01*
X106738095Y-120257143D01*
X106785714Y-120304762D01*
X106880952Y-120352381D01*
X107071429Y-120352381D01*
X107166667Y-120304762D01*
X107214286Y-120257143D01*
X107261905Y-120161905D01*
X107261905Y-119971429D01*
X107214286Y-119876190D01*
X107166667Y-119828571D01*
X107071429Y-119780952D01*
X110357143Y-120352381D02*
X110023809Y-119876190D01*
X109785714Y-120352381D02*
X109785714Y-119352381D01*
X110166667Y-119352381D01*
X110261905Y-119400000D01*
X110309524Y-119447619D01*
X110357143Y-119542857D01*
X110357143Y-119685714D01*
X110309524Y-119780952D01*
X110261905Y-119828571D01*
X110166667Y-119876190D01*
X109785714Y-119876190D01*
X110690476Y-119352381D02*
X111309524Y-119352381D01*
X110976190Y-119733333D01*
X111119048Y-119733333D01*
X111214286Y-119780952D01*
X111261905Y-119828571D01*
X111309524Y-119923810D01*
X111309524Y-120161905D01*
X111261905Y-120257143D01*
X111214286Y-120304762D01*
X111119048Y-120352381D01*
X110833333Y-120352381D01*
X110738095Y-120304762D01*
X110690476Y-120257143D01*
X111785714Y-120352381D02*
X111976190Y-120352381D01*
X112071429Y-120304762D01*
X112119048Y-120257143D01*
X112214286Y-120114286D01*
X112261905Y-119923810D01*
X112261905Y-119542857D01*
X112214286Y-119447619D01*
X112166667Y-119400000D01*
X112071429Y-119352381D01*
X111880952Y-119352381D01*
X111785714Y-119400000D01*
X111738095Y-119447619D01*
X111690476Y-119542857D01*
X111690476Y-119780952D01*
X111738095Y-119876190D01*
X111785714Y-119923810D01*
X111880952Y-119971429D01*
X112071429Y-119971429D01*
X112166667Y-119923810D01*
X112214286Y-119876190D01*
X112261905Y-119780952D01*
X95357143Y-114352381D02*
X95023809Y-113876190D01*
X94785714Y-114352381D02*
X94785714Y-113352381D01*
X95166667Y-113352381D01*
X95261905Y-113400000D01*
X95309524Y-113447619D01*
X95357143Y-113542857D01*
X95357143Y-113685714D01*
X95309524Y-113780952D01*
X95261905Y-113828571D01*
X95166667Y-113876190D01*
X94785714Y-113876190D01*
X96214286Y-113685714D02*
X96214286Y-114352381D01*
X95976190Y-113304762D02*
X95738095Y-114019048D01*
X96357143Y-114019048D01*
X96928571Y-113352381D02*
X97023810Y-113352381D01*
X97119048Y-113400000D01*
X97166667Y-113447619D01*
X97214286Y-113542857D01*
X97261905Y-113733333D01*
X97261905Y-113971429D01*
X97214286Y-114161905D01*
X97166667Y-114257143D01*
X97119048Y-114304762D01*
X97023810Y-114352381D01*
X96928571Y-114352381D01*
X96833333Y-114304762D01*
X96785714Y-114257143D01*
X96738095Y-114161905D01*
X96690476Y-113971429D01*
X96690476Y-113733333D01*
X96738095Y-113542857D01*
X96785714Y-113447619D01*
X96833333Y-113400000D01*
X96928571Y-113352381D01*
X100357143Y-114352381D02*
X100023809Y-113876190D01*
X99785714Y-114352381D02*
X99785714Y-113352381D01*
X100166667Y-113352381D01*
X100261905Y-113400000D01*
X100309524Y-113447619D01*
X100357143Y-113542857D01*
X100357143Y-113685714D01*
X100309524Y-113780952D01*
X100261905Y-113828571D01*
X100166667Y-113876190D01*
X99785714Y-113876190D01*
X101214286Y-113685714D02*
X101214286Y-114352381D01*
X100976190Y-113304762D02*
X100738095Y-114019048D01*
X101357143Y-114019048D01*
X102261905Y-114352381D02*
X101690476Y-114352381D01*
X101976190Y-114352381D02*
X101976190Y-113352381D01*
X101880952Y-113495238D01*
X101785714Y-113590476D01*
X101690476Y-113638095D01*
X105357143Y-114352381D02*
X105023809Y-113876190D01*
X104785714Y-114352381D02*
X104785714Y-113352381D01*
X105166667Y-113352381D01*
X105261905Y-113400000D01*
X105309524Y-113447619D01*
X105357143Y-113542857D01*
X105357143Y-113685714D01*
X105309524Y-113780952D01*
X105261905Y-113828571D01*
X105166667Y-113876190D01*
X104785714Y-113876190D01*
X106214286Y-113685714D02*
X106214286Y-114352381D01*
X105976190Y-113304762D02*
X105738095Y-114019048D01*
X106357143Y-114019048D01*
X106690476Y-113447619D02*
X106738095Y-113400000D01*
X106833333Y-113352381D01*
X107071429Y-113352381D01*
X107166667Y-113400000D01*
X107214286Y-113447619D01*
X107261905Y-113542857D01*
X107261905Y-113638095D01*
X107214286Y-113780952D01*
X106642857Y-114352381D01*
X107261905Y-114352381D01*
X110357143Y-114352381D02*
X110023809Y-113876190D01*
X109785714Y-114352381D02*
X109785714Y-113352381D01*
X110166667Y-113352381D01*
X110261905Y-113400000D01*
X110309524Y-113447619D01*
X110357143Y-113542857D01*
X110357143Y-113685714D01*
X110309524Y-113780952D01*
X110261905Y-113828571D01*
X110166667Y-113876190D01*
X109785714Y-113876190D01*
X111214286Y-113685714D02*
X111214286Y-114352381D01*
X110976190Y-113304762D02*
X110738095Y-114019048D01*
X111357143Y-114019048D01*
X111642857Y-113352381D02*
X112261905Y-113352381D01*
X111928571Y-113733333D01*
X112071429Y-113733333D01*
X112166667Y-113780952D01*
X112214286Y-113828571D01*
X112261905Y-113923810D01*
X112261905Y-114161905D01*
X112214286Y-114257143D01*
X112166667Y-114304762D01*
X112071429Y-114352381D01*
X111785714Y-114352381D01*
X111690476Y-114304762D01*
X111642857Y-114257143D01*
X52357143Y-114352381D02*
X52023809Y-113876190D01*
X51785714Y-114352381D02*
X51785714Y-113352381D01*
X52166667Y-113352381D01*
X52261905Y-113400000D01*
X52309524Y-113447619D01*
X52357143Y-113542857D01*
X52357143Y-113685714D01*
X52309524Y-113780952D01*
X52261905Y-113828571D01*
X52166667Y-113876190D01*
X51785714Y-113876190D01*
X53214286Y-113685714D02*
X53214286Y-114352381D01*
X52976190Y-113304762D02*
X52738095Y-114019048D01*
X53357143Y-114019048D01*
X54166667Y-113685714D02*
X54166667Y-114352381D01*
X53928571Y-113304762D02*
X53690476Y-114019048D01*
X54309524Y-114019048D01*
X57357143Y-114352381D02*
X57023809Y-113876190D01*
X56785714Y-114352381D02*
X56785714Y-113352381D01*
X57166667Y-113352381D01*
X57261905Y-113400000D01*
X57309524Y-113447619D01*
X57357143Y-113542857D01*
X57357143Y-113685714D01*
X57309524Y-113780952D01*
X57261905Y-113828571D01*
X57166667Y-113876190D01*
X56785714Y-113876190D01*
X58214286Y-113685714D02*
X58214286Y-114352381D01*
X57976190Y-113304762D02*
X57738095Y-114019048D01*
X58357143Y-114019048D01*
X59214286Y-113352381D02*
X58738095Y-113352381D01*
X58690476Y-113828571D01*
X58738095Y-113780952D01*
X58833333Y-113733333D01*
X59071429Y-113733333D01*
X59166667Y-113780952D01*
X59214286Y-113828571D01*
X59261905Y-113923810D01*
X59261905Y-114161905D01*
X59214286Y-114257143D01*
X59166667Y-114304762D01*
X59071429Y-114352381D01*
X58833333Y-114352381D01*
X58738095Y-114304762D01*
X58690476Y-114257143D01*
X62357143Y-114352381D02*
X62023809Y-113876190D01*
X61785714Y-114352381D02*
X61785714Y-113352381D01*
X62166667Y-113352381D01*
X62261905Y-113400000D01*
X62309524Y-113447619D01*
X62357143Y-113542857D01*
X62357143Y-113685714D01*
X62309524Y-113780952D01*
X62261905Y-113828571D01*
X62166667Y-113876190D01*
X61785714Y-113876190D01*
X63214286Y-113685714D02*
X63214286Y-114352381D01*
X62976190Y-113304762D02*
X62738095Y-114019048D01*
X63357143Y-114019048D01*
X64166667Y-113352381D02*
X63976190Y-113352381D01*
X63880952Y-113400000D01*
X63833333Y-113447619D01*
X63738095Y-113590476D01*
X63690476Y-113780952D01*
X63690476Y-114161905D01*
X63738095Y-114257143D01*
X63785714Y-114304762D01*
X63880952Y-114352381D01*
X64071429Y-114352381D01*
X64166667Y-114304762D01*
X64214286Y-114257143D01*
X64261905Y-114161905D01*
X64261905Y-113923810D01*
X64214286Y-113828571D01*
X64166667Y-113780952D01*
X64071429Y-113733333D01*
X63880952Y-113733333D01*
X63785714Y-113780952D01*
X63738095Y-113828571D01*
X63690476Y-113923810D01*
X52357143Y-120352381D02*
X52023809Y-119876190D01*
X51785714Y-120352381D02*
X51785714Y-119352381D01*
X52166667Y-119352381D01*
X52261905Y-119400000D01*
X52309524Y-119447619D01*
X52357143Y-119542857D01*
X52357143Y-119685714D01*
X52309524Y-119780952D01*
X52261905Y-119828571D01*
X52166667Y-119876190D01*
X51785714Y-119876190D01*
X53214286Y-119685714D02*
X53214286Y-120352381D01*
X52976190Y-119304762D02*
X52738095Y-120019048D01*
X53357143Y-120019048D01*
X53642857Y-119352381D02*
X54309524Y-119352381D01*
X53880952Y-120352381D01*
X57357143Y-120352381D02*
X57023809Y-119876190D01*
X56785714Y-120352381D02*
X56785714Y-119352381D01*
X57166667Y-119352381D01*
X57261905Y-119400000D01*
X57309524Y-119447619D01*
X57357143Y-119542857D01*
X57357143Y-119685714D01*
X57309524Y-119780952D01*
X57261905Y-119828571D01*
X57166667Y-119876190D01*
X56785714Y-119876190D01*
X58214286Y-119685714D02*
X58214286Y-120352381D01*
X57976190Y-119304762D02*
X57738095Y-120019048D01*
X58357143Y-120019048D01*
X58880952Y-119780952D02*
X58785714Y-119733333D01*
X58738095Y-119685714D01*
X58690476Y-119590476D01*
X58690476Y-119542857D01*
X58738095Y-119447619D01*
X58785714Y-119400000D01*
X58880952Y-119352381D01*
X59071429Y-119352381D01*
X59166667Y-119400000D01*
X59214286Y-119447619D01*
X59261905Y-119542857D01*
X59261905Y-119590476D01*
X59214286Y-119685714D01*
X59166667Y-119733333D01*
X59071429Y-119780952D01*
X58880952Y-119780952D01*
X58785714Y-119828571D01*
X58738095Y-119876190D01*
X58690476Y-119971429D01*
X58690476Y-120161905D01*
X58738095Y-120257143D01*
X58785714Y-120304762D01*
X58880952Y-120352381D01*
X59071429Y-120352381D01*
X59166667Y-120304762D01*
X59214286Y-120257143D01*
X59261905Y-120161905D01*
X59261905Y-119971429D01*
X59214286Y-119876190D01*
X59166667Y-119828571D01*
X59071429Y-119780952D01*
X62357143Y-120352381D02*
X62023809Y-119876190D01*
X61785714Y-120352381D02*
X61785714Y-119352381D01*
X62166667Y-119352381D01*
X62261905Y-119400000D01*
X62309524Y-119447619D01*
X62357143Y-119542857D01*
X62357143Y-119685714D01*
X62309524Y-119780952D01*
X62261905Y-119828571D01*
X62166667Y-119876190D01*
X61785714Y-119876190D01*
X63214286Y-119685714D02*
X63214286Y-120352381D01*
X62976190Y-119304762D02*
X62738095Y-120019048D01*
X63357143Y-120019048D01*
X63785714Y-120352381D02*
X63976190Y-120352381D01*
X64071429Y-120304762D01*
X64119048Y-120257143D01*
X64214286Y-120114286D01*
X64261905Y-119923810D01*
X64261905Y-119542857D01*
X64214286Y-119447619D01*
X64166667Y-119400000D01*
X64071429Y-119352381D01*
X63880952Y-119352381D01*
X63785714Y-119400000D01*
X63738095Y-119447619D01*
X63690476Y-119542857D01*
X63690476Y-119780952D01*
X63738095Y-119876190D01*
X63785714Y-119923810D01*
X63880952Y-119971429D01*
X64071429Y-119971429D01*
X64166667Y-119923810D01*
X64214286Y-119876190D01*
X64261905Y-119780952D01*
X52357143Y-127352381D02*
X52023809Y-126876190D01*
X51785714Y-127352381D02*
X51785714Y-126352381D01*
X52166667Y-126352381D01*
X52261905Y-126400000D01*
X52309524Y-126447619D01*
X52357143Y-126542857D01*
X52357143Y-126685714D01*
X52309524Y-126780952D01*
X52261905Y-126828571D01*
X52166667Y-126876190D01*
X51785714Y-126876190D01*
X53261905Y-126352381D02*
X52785714Y-126352381D01*
X52738095Y-126828571D01*
X52785714Y-126780952D01*
X52880952Y-126733333D01*
X53119048Y-126733333D01*
X53214286Y-126780952D01*
X53261905Y-126828571D01*
X53309524Y-126923810D01*
X53309524Y-127161905D01*
X53261905Y-127257143D01*
X53214286Y-127304762D01*
X53119048Y-127352381D01*
X52880952Y-127352381D01*
X52785714Y-127304762D01*
X52738095Y-127257143D01*
X53928571Y-126352381D02*
X54023810Y-126352381D01*
X54119048Y-126400000D01*
X54166667Y-126447619D01*
X54214286Y-126542857D01*
X54261905Y-126733333D01*
X54261905Y-126971429D01*
X54214286Y-127161905D01*
X54166667Y-127257143D01*
X54119048Y-127304762D01*
X54023810Y-127352381D01*
X53928571Y-127352381D01*
X53833333Y-127304762D01*
X53785714Y-127257143D01*
X53738095Y-127161905D01*
X53690476Y-126971429D01*
X53690476Y-126733333D01*
X53738095Y-126542857D01*
X53785714Y-126447619D01*
X53833333Y-126400000D01*
X53928571Y-126352381D01*
X52357143Y-133352381D02*
X52023809Y-132876190D01*
X51785714Y-133352381D02*
X51785714Y-132352381D01*
X52166667Y-132352381D01*
X52261905Y-132400000D01*
X52309524Y-132447619D01*
X52357143Y-132542857D01*
X52357143Y-132685714D01*
X52309524Y-132780952D01*
X52261905Y-132828571D01*
X52166667Y-132876190D01*
X51785714Y-132876190D01*
X53261905Y-132352381D02*
X52785714Y-132352381D01*
X52738095Y-132828571D01*
X52785714Y-132780952D01*
X52880952Y-132733333D01*
X53119048Y-132733333D01*
X53214286Y-132780952D01*
X53261905Y-132828571D01*
X53309524Y-132923810D01*
X53309524Y-133161905D01*
X53261905Y-133257143D01*
X53214286Y-133304762D01*
X53119048Y-133352381D01*
X52880952Y-133352381D01*
X52785714Y-133304762D01*
X52738095Y-133257143D01*
X54261905Y-133352381D02*
X53690476Y-133352381D01*
X53976190Y-133352381D02*
X53976190Y-132352381D01*
X53880952Y-132495238D01*
X53785714Y-132590476D01*
X53690476Y-132638095D01*
X59357143Y-133352381D02*
X59023809Y-132876190D01*
X58785714Y-133352381D02*
X58785714Y-132352381D01*
X59166667Y-132352381D01*
X59261905Y-132400000D01*
X59309524Y-132447619D01*
X59357143Y-132542857D01*
X59357143Y-132685714D01*
X59309524Y-132780952D01*
X59261905Y-132828571D01*
X59166667Y-132876190D01*
X58785714Y-132876190D01*
X60261905Y-132352381D02*
X59785714Y-132352381D01*
X59738095Y-132828571D01*
X59785714Y-132780952D01*
X59880952Y-132733333D01*
X60119048Y-132733333D01*
X60214286Y-132780952D01*
X60261905Y-132828571D01*
X60309524Y-132923810D01*
X60309524Y-133161905D01*
X60261905Y-133257143D01*
X60214286Y-133304762D01*
X60119048Y-133352381D01*
X59880952Y-133352381D01*
X59785714Y-133304762D01*
X59738095Y-133257143D01*
X60690476Y-132447619D02*
X60738095Y-132400000D01*
X60833333Y-132352381D01*
X61071429Y-132352381D01*
X61166667Y-132400000D01*
X61214286Y-132447619D01*
X61261905Y-132542857D01*
X61261905Y-132638095D01*
X61214286Y-132780952D01*
X60642857Y-133352381D01*
X61261905Y-133352381D01*
X93357143Y-136352381D02*
X93023809Y-135876190D01*
X92785714Y-136352381D02*
X92785714Y-135352381D01*
X93166667Y-135352381D01*
X93261905Y-135400000D01*
X93309524Y-135447619D01*
X93357143Y-135542857D01*
X93357143Y-135685714D01*
X93309524Y-135780952D01*
X93261905Y-135828571D01*
X93166667Y-135876190D01*
X92785714Y-135876190D01*
X94261905Y-135352381D02*
X93785714Y-135352381D01*
X93738095Y-135828571D01*
X93785714Y-135780952D01*
X93880952Y-135733333D01*
X94119048Y-135733333D01*
X94214286Y-135780952D01*
X94261905Y-135828571D01*
X94309524Y-135923810D01*
X94309524Y-136161905D01*
X94261905Y-136257143D01*
X94214286Y-136304762D01*
X94119048Y-136352381D01*
X93880952Y-136352381D01*
X93785714Y-136304762D01*
X93738095Y-136257143D01*
X94642857Y-135352381D02*
X95261905Y-135352381D01*
X94928571Y-135733333D01*
X95071429Y-135733333D01*
X95166667Y-135780952D01*
X95214286Y-135828571D01*
X95261905Y-135923810D01*
X95261905Y-136161905D01*
X95214286Y-136257143D01*
X95166667Y-136304762D01*
X95071429Y-136352381D01*
X94785714Y-136352381D01*
X94690476Y-136304762D01*
X94642857Y-136257143D01*
X98357143Y-136352381D02*
X98023809Y-135876190D01*
X97785714Y-136352381D02*
X97785714Y-135352381D01*
X98166667Y-135352381D01*
X98261905Y-135400000D01*
X98309524Y-135447619D01*
X98357143Y-135542857D01*
X98357143Y-135685714D01*
X98309524Y-135780952D01*
X98261905Y-135828571D01*
X98166667Y-135876190D01*
X97785714Y-135876190D01*
X99261905Y-135352381D02*
X98785714Y-135352381D01*
X98738095Y-135828571D01*
X98785714Y-135780952D01*
X98880952Y-135733333D01*
X99119048Y-135733333D01*
X99214286Y-135780952D01*
X99261905Y-135828571D01*
X99309524Y-135923810D01*
X99309524Y-136161905D01*
X99261905Y-136257143D01*
X99214286Y-136304762D01*
X99119048Y-136352381D01*
X98880952Y-136352381D01*
X98785714Y-136304762D01*
X98738095Y-136257143D01*
X100166667Y-135685714D02*
X100166667Y-136352381D01*
X99928571Y-135304762D02*
X99690476Y-136019048D01*
X100309524Y-136019048D01*
X103357143Y-136352381D02*
X103023809Y-135876190D01*
X102785714Y-136352381D02*
X102785714Y-135352381D01*
X103166667Y-135352381D01*
X103261905Y-135400000D01*
X103309524Y-135447619D01*
X103357143Y-135542857D01*
X103357143Y-135685714D01*
X103309524Y-135780952D01*
X103261905Y-135828571D01*
X103166667Y-135876190D01*
X102785714Y-135876190D01*
X104261905Y-135352381D02*
X103785714Y-135352381D01*
X103738095Y-135828571D01*
X103785714Y-135780952D01*
X103880952Y-135733333D01*
X104119048Y-135733333D01*
X104214286Y-135780952D01*
X104261905Y-135828571D01*
X104309524Y-135923810D01*
X104309524Y-136161905D01*
X104261905Y-136257143D01*
X104214286Y-136304762D01*
X104119048Y-136352381D01*
X103880952Y-136352381D01*
X103785714Y-136304762D01*
X103738095Y-136257143D01*
X105214286Y-135352381D02*
X104738095Y-135352381D01*
X104690476Y-135828571D01*
X104738095Y-135780952D01*
X104833333Y-135733333D01*
X105071429Y-135733333D01*
X105166667Y-135780952D01*
X105214286Y-135828571D01*
X105261905Y-135923810D01*
X105261905Y-136161905D01*
X105214286Y-136257143D01*
X105166667Y-136304762D01*
X105071429Y-136352381D01*
X104833333Y-136352381D01*
X104738095Y-136304762D01*
X104690476Y-136257143D01*
X65397143Y-74457143D02*
X65349524Y-74504762D01*
X65206667Y-74552381D01*
X65111429Y-74552381D01*
X64968571Y-74504762D01*
X64873333Y-74409524D01*
X64825714Y-74314286D01*
X64778095Y-74123810D01*
X64778095Y-73980952D01*
X64825714Y-73790476D01*
X64873333Y-73695238D01*
X64968571Y-73600000D01*
X65111429Y-73552381D01*
X65206667Y-73552381D01*
X65349524Y-73600000D01*
X65397143Y-73647619D01*
X66349524Y-74552381D02*
X65778095Y-74552381D01*
X66063809Y-74552381D02*
X66063809Y-73552381D01*
X65968571Y-73695238D01*
X65873333Y-73790476D01*
X65778095Y-73838095D01*
X67206667Y-73885714D02*
X67206667Y-74552381D01*
X66968571Y-73504762D02*
X66730476Y-74219048D01*
X67349524Y-74219048D01*
X65397143Y-70647143D02*
X65349524Y-70694762D01*
X65206667Y-70742381D01*
X65111429Y-70742381D01*
X64968571Y-70694762D01*
X64873333Y-70599524D01*
X64825714Y-70504286D01*
X64778095Y-70313810D01*
X64778095Y-70170952D01*
X64825714Y-69980476D01*
X64873333Y-69885238D01*
X64968571Y-69790000D01*
X65111429Y-69742381D01*
X65206667Y-69742381D01*
X65349524Y-69790000D01*
X65397143Y-69837619D01*
X66349524Y-70742381D02*
X65778095Y-70742381D01*
X66063809Y-70742381D02*
X66063809Y-69742381D01*
X65968571Y-69885238D01*
X65873333Y-69980476D01*
X65778095Y-70028095D01*
X67254286Y-69742381D02*
X66778095Y-69742381D01*
X66730476Y-70218571D01*
X66778095Y-70170952D01*
X66873333Y-70123333D01*
X67111429Y-70123333D01*
X67206667Y-70170952D01*
X67254286Y-70218571D01*
X67301905Y-70313810D01*
X67301905Y-70551905D01*
X67254286Y-70647143D01*
X67206667Y-70694762D01*
X67111429Y-70742381D01*
X66873333Y-70742381D01*
X66778095Y-70694762D01*
X66730476Y-70647143D01*
X65397143Y-65567143D02*
X65349524Y-65614762D01*
X65206667Y-65662381D01*
X65111429Y-65662381D01*
X64968571Y-65614762D01*
X64873333Y-65519524D01*
X64825714Y-65424286D01*
X64778095Y-65233810D01*
X64778095Y-65090952D01*
X64825714Y-64900476D01*
X64873333Y-64805238D01*
X64968571Y-64710000D01*
X65111429Y-64662381D01*
X65206667Y-64662381D01*
X65349524Y-64710000D01*
X65397143Y-64757619D01*
X66349524Y-65662381D02*
X65778095Y-65662381D01*
X66063809Y-65662381D02*
X66063809Y-64662381D01*
X65968571Y-64805238D01*
X65873333Y-64900476D01*
X65778095Y-64948095D01*
X67206667Y-64662381D02*
X67016190Y-64662381D01*
X66920952Y-64710000D01*
X66873333Y-64757619D01*
X66778095Y-64900476D01*
X66730476Y-65090952D01*
X66730476Y-65471905D01*
X66778095Y-65567143D01*
X66825714Y-65614762D01*
X66920952Y-65662381D01*
X67111429Y-65662381D01*
X67206667Y-65614762D01*
X67254286Y-65567143D01*
X67301905Y-65471905D01*
X67301905Y-65233810D01*
X67254286Y-65138571D01*
X67206667Y-65090952D01*
X67111429Y-65043333D01*
X66920952Y-65043333D01*
X66825714Y-65090952D01*
X66778095Y-65138571D01*
X66730476Y-65233810D01*
X53967143Y-61757143D02*
X53919524Y-61804762D01*
X53776667Y-61852381D01*
X53681429Y-61852381D01*
X53538571Y-61804762D01*
X53443333Y-61709524D01*
X53395714Y-61614286D01*
X53348095Y-61423810D01*
X53348095Y-61280952D01*
X53395714Y-61090476D01*
X53443333Y-60995238D01*
X53538571Y-60900000D01*
X53681429Y-60852381D01*
X53776667Y-60852381D01*
X53919524Y-60900000D01*
X53967143Y-60947619D01*
X54919524Y-61852381D02*
X54348095Y-61852381D01*
X54633809Y-61852381D02*
X54633809Y-60852381D01*
X54538571Y-60995238D01*
X54443333Y-61090476D01*
X54348095Y-61138095D01*
X55252857Y-60852381D02*
X55919524Y-60852381D01*
X55490952Y-61852381D01*
X53967143Y-65567143D02*
X53919524Y-65614762D01*
X53776667Y-65662381D01*
X53681429Y-65662381D01*
X53538571Y-65614762D01*
X53443333Y-65519524D01*
X53395714Y-65424286D01*
X53348095Y-65233810D01*
X53348095Y-65090952D01*
X53395714Y-64900476D01*
X53443333Y-64805238D01*
X53538571Y-64710000D01*
X53681429Y-64662381D01*
X53776667Y-64662381D01*
X53919524Y-64710000D01*
X53967143Y-64757619D01*
X54824286Y-64995714D02*
X54824286Y-65662381D01*
X54586190Y-64614762D02*
X54348095Y-65329048D01*
X54967143Y-65329048D01*
X55252857Y-64662381D02*
X55919524Y-64662381D01*
X55490952Y-65662381D01*
X53967143Y-69377143D02*
X53919524Y-69424762D01*
X53776667Y-69472381D01*
X53681429Y-69472381D01*
X53538571Y-69424762D01*
X53443333Y-69329524D01*
X53395714Y-69234286D01*
X53348095Y-69043810D01*
X53348095Y-68900952D01*
X53395714Y-68710476D01*
X53443333Y-68615238D01*
X53538571Y-68520000D01*
X53681429Y-68472381D01*
X53776667Y-68472381D01*
X53919524Y-68520000D01*
X53967143Y-68567619D01*
X54824286Y-68805714D02*
X54824286Y-69472381D01*
X54586190Y-68424762D02*
X54348095Y-69139048D01*
X54967143Y-69139048D01*
X55490952Y-68900952D02*
X55395714Y-68853333D01*
X55348095Y-68805714D01*
X55300476Y-68710476D01*
X55300476Y-68662857D01*
X55348095Y-68567619D01*
X55395714Y-68520000D01*
X55490952Y-68472381D01*
X55681429Y-68472381D01*
X55776667Y-68520000D01*
X55824286Y-68567619D01*
X55871905Y-68662857D01*
X55871905Y-68710476D01*
X55824286Y-68805714D01*
X55776667Y-68853333D01*
X55681429Y-68900952D01*
X55490952Y-68900952D01*
X55395714Y-68948571D01*
X55348095Y-68996190D01*
X55300476Y-69091429D01*
X55300476Y-69281905D01*
X55348095Y-69377143D01*
X55395714Y-69424762D01*
X55490952Y-69472381D01*
X55681429Y-69472381D01*
X55776667Y-69424762D01*
X55824286Y-69377143D01*
X55871905Y-69281905D01*
X55871905Y-69091429D01*
X55824286Y-68996190D01*
X55776667Y-68948571D01*
X55681429Y-68900952D01*
X60317143Y-61757143D02*
X60269524Y-61804762D01*
X60126667Y-61852381D01*
X60031429Y-61852381D01*
X59888571Y-61804762D01*
X59793333Y-61709524D01*
X59745714Y-61614286D01*
X59698095Y-61423810D01*
X59698095Y-61280952D01*
X59745714Y-61090476D01*
X59793333Y-60995238D01*
X59888571Y-60900000D01*
X60031429Y-60852381D01*
X60126667Y-60852381D01*
X60269524Y-60900000D01*
X60317143Y-60947619D01*
X61174286Y-61185714D02*
X61174286Y-61852381D01*
X60936190Y-60804762D02*
X60698095Y-61519048D01*
X61317143Y-61519048D01*
X61745714Y-61852381D02*
X61936190Y-61852381D01*
X62031429Y-61804762D01*
X62079048Y-61757143D01*
X62174286Y-61614286D01*
X62221905Y-61423810D01*
X62221905Y-61042857D01*
X62174286Y-60947619D01*
X62126667Y-60900000D01*
X62031429Y-60852381D01*
X61840952Y-60852381D01*
X61745714Y-60900000D01*
X61698095Y-60947619D01*
X61650476Y-61042857D01*
X61650476Y-61280952D01*
X61698095Y-61376190D01*
X61745714Y-61423810D01*
X61840952Y-61471429D01*
X62031429Y-61471429D01*
X62126667Y-61423810D01*
X62174286Y-61376190D01*
X62221905Y-61280952D01*
X60317143Y-66837143D02*
X60269524Y-66884762D01*
X60126667Y-66932381D01*
X60031429Y-66932381D01*
X59888571Y-66884762D01*
X59793333Y-66789524D01*
X59745714Y-66694286D01*
X59698095Y-66503810D01*
X59698095Y-66360952D01*
X59745714Y-66170476D01*
X59793333Y-66075238D01*
X59888571Y-65980000D01*
X60031429Y-65932381D01*
X60126667Y-65932381D01*
X60269524Y-65980000D01*
X60317143Y-66027619D01*
X61221905Y-65932381D02*
X60745714Y-65932381D01*
X60698095Y-66408571D01*
X60745714Y-66360952D01*
X60840952Y-66313333D01*
X61079048Y-66313333D01*
X61174286Y-66360952D01*
X61221905Y-66408571D01*
X61269524Y-66503810D01*
X61269524Y-66741905D01*
X61221905Y-66837143D01*
X61174286Y-66884762D01*
X61079048Y-66932381D01*
X60840952Y-66932381D01*
X60745714Y-66884762D01*
X60698095Y-66837143D01*
X61888571Y-65932381D02*
X61983810Y-65932381D01*
X62079048Y-65980000D01*
X62126667Y-66027619D01*
X62174286Y-66122857D01*
X62221905Y-66313333D01*
X62221905Y-66551429D01*
X62174286Y-66741905D01*
X62126667Y-66837143D01*
X62079048Y-66884762D01*
X61983810Y-66932381D01*
X61888571Y-66932381D01*
X61793333Y-66884762D01*
X61745714Y-66837143D01*
X61698095Y-66741905D01*
X61650476Y-66551429D01*
X61650476Y-66313333D01*
X61698095Y-66122857D01*
X61745714Y-66027619D01*
X61793333Y-65980000D01*
X61888571Y-65932381D01*
X60317143Y-71917143D02*
X60269524Y-71964762D01*
X60126667Y-72012381D01*
X60031429Y-72012381D01*
X59888571Y-71964762D01*
X59793333Y-71869524D01*
X59745714Y-71774286D01*
X59698095Y-71583810D01*
X59698095Y-71440952D01*
X59745714Y-71250476D01*
X59793333Y-71155238D01*
X59888571Y-71060000D01*
X60031429Y-71012381D01*
X60126667Y-71012381D01*
X60269524Y-71060000D01*
X60317143Y-71107619D01*
X61221905Y-71012381D02*
X60745714Y-71012381D01*
X60698095Y-71488571D01*
X60745714Y-71440952D01*
X60840952Y-71393333D01*
X61079048Y-71393333D01*
X61174286Y-71440952D01*
X61221905Y-71488571D01*
X61269524Y-71583810D01*
X61269524Y-71821905D01*
X61221905Y-71917143D01*
X61174286Y-71964762D01*
X61079048Y-72012381D01*
X60840952Y-72012381D01*
X60745714Y-71964762D01*
X60698095Y-71917143D01*
X62221905Y-72012381D02*
X61650476Y-72012381D01*
X61936190Y-72012381D02*
X61936190Y-71012381D01*
X61840952Y-71155238D01*
X61745714Y-71250476D01*
X61650476Y-71298095D01*
X65301905Y-88872381D02*
X65301905Y-87872381D01*
X65540000Y-87872381D01*
X65682858Y-87920000D01*
X65778096Y-88015238D01*
X65825715Y-88110476D01*
X65873334Y-88300952D01*
X65873334Y-88443810D01*
X65825715Y-88634286D01*
X65778096Y-88729524D01*
X65682858Y-88824762D01*
X65540000Y-88872381D01*
X65301905Y-88872381D01*
X66825715Y-88872381D02*
X66254286Y-88872381D01*
X66540000Y-88872381D02*
X66540000Y-87872381D01*
X66444762Y-88015238D01*
X66349524Y-88110476D01*
X66254286Y-88158095D01*
X65301905Y-85062381D02*
X65301905Y-84062381D01*
X65540000Y-84062381D01*
X65682858Y-84110000D01*
X65778096Y-84205238D01*
X65825715Y-84300476D01*
X65873334Y-84490952D01*
X65873334Y-84633810D01*
X65825715Y-84824286D01*
X65778096Y-84919524D01*
X65682858Y-85014762D01*
X65540000Y-85062381D01*
X65301905Y-85062381D01*
X66254286Y-84157619D02*
X66301905Y-84110000D01*
X66397143Y-84062381D01*
X66635239Y-84062381D01*
X66730477Y-84110000D01*
X66778096Y-84157619D01*
X66825715Y-84252857D01*
X66825715Y-84348095D01*
X66778096Y-84490952D01*
X66206667Y-85062381D01*
X66825715Y-85062381D01*
X53871905Y-76172381D02*
X53871905Y-75172381D01*
X54110000Y-75172381D01*
X54252858Y-75220000D01*
X54348096Y-75315238D01*
X54395715Y-75410476D01*
X54443334Y-75600952D01*
X54443334Y-75743810D01*
X54395715Y-75934286D01*
X54348096Y-76029524D01*
X54252858Y-76124762D01*
X54110000Y-76172381D01*
X53871905Y-76172381D01*
X54776667Y-75172381D02*
X55395715Y-75172381D01*
X55062381Y-75553333D01*
X55205239Y-75553333D01*
X55300477Y-75600952D01*
X55348096Y-75648571D01*
X55395715Y-75743810D01*
X55395715Y-75981905D01*
X55348096Y-76077143D01*
X55300477Y-76124762D01*
X55205239Y-76172381D01*
X54919524Y-76172381D01*
X54824286Y-76124762D01*
X54776667Y-76077143D01*
X65873334Y-80902381D02*
X65540000Y-80426190D01*
X65301905Y-80902381D02*
X65301905Y-79902381D01*
X65682858Y-79902381D01*
X65778096Y-79950000D01*
X65825715Y-79997619D01*
X65873334Y-80092857D01*
X65873334Y-80235714D01*
X65825715Y-80330952D01*
X65778096Y-80378571D01*
X65682858Y-80426190D01*
X65301905Y-80426190D01*
X66206667Y-79902381D02*
X66825715Y-79902381D01*
X66492381Y-80283333D01*
X66635239Y-80283333D01*
X66730477Y-80330952D01*
X66778096Y-80378571D01*
X66825715Y-80473810D01*
X66825715Y-80711905D01*
X66778096Y-80807143D01*
X66730477Y-80854762D01*
X66635239Y-80902381D01*
X66349524Y-80902381D01*
X66254286Y-80854762D01*
X66206667Y-80807143D01*
X53967143Y-80902381D02*
X53633809Y-80426190D01*
X53395714Y-80902381D02*
X53395714Y-79902381D01*
X53776667Y-79902381D01*
X53871905Y-79950000D01*
X53919524Y-79997619D01*
X53967143Y-80092857D01*
X53967143Y-80235714D01*
X53919524Y-80330952D01*
X53871905Y-80378571D01*
X53776667Y-80426190D01*
X53395714Y-80426190D01*
X54919524Y-80902381D02*
X54348095Y-80902381D01*
X54633809Y-80902381D02*
X54633809Y-79902381D01*
X54538571Y-80045238D01*
X54443333Y-80140476D01*
X54348095Y-80188095D01*
X55300476Y-79997619D02*
X55348095Y-79950000D01*
X55443333Y-79902381D01*
X55681429Y-79902381D01*
X55776667Y-79950000D01*
X55824286Y-79997619D01*
X55871905Y-80092857D01*
X55871905Y-80188095D01*
X55824286Y-80330952D01*
X55252857Y-80902381D01*
X55871905Y-80902381D01*
X53967143Y-85982381D02*
X53633809Y-85506190D01*
X53395714Y-85982381D02*
X53395714Y-84982381D01*
X53776667Y-84982381D01*
X53871905Y-85030000D01*
X53919524Y-85077619D01*
X53967143Y-85172857D01*
X53967143Y-85315714D01*
X53919524Y-85410952D01*
X53871905Y-85458571D01*
X53776667Y-85506190D01*
X53395714Y-85506190D01*
X54919524Y-85982381D02*
X54348095Y-85982381D01*
X54633809Y-85982381D02*
X54633809Y-84982381D01*
X54538571Y-85125238D01*
X54443333Y-85220476D01*
X54348095Y-85268095D01*
X55252857Y-84982381D02*
X55871905Y-84982381D01*
X55538571Y-85363333D01*
X55681429Y-85363333D01*
X55776667Y-85410952D01*
X55824286Y-85458571D01*
X55871905Y-85553810D01*
X55871905Y-85791905D01*
X55824286Y-85887143D01*
X55776667Y-85934762D01*
X55681429Y-85982381D01*
X55395714Y-85982381D01*
X55300476Y-85934762D01*
X55252857Y-85887143D01*
X53967143Y-89792381D02*
X53633809Y-89316190D01*
X53395714Y-89792381D02*
X53395714Y-88792381D01*
X53776667Y-88792381D01*
X53871905Y-88840000D01*
X53919524Y-88887619D01*
X53967143Y-88982857D01*
X53967143Y-89125714D01*
X53919524Y-89220952D01*
X53871905Y-89268571D01*
X53776667Y-89316190D01*
X53395714Y-89316190D01*
X54919524Y-89792381D02*
X54348095Y-89792381D01*
X54633809Y-89792381D02*
X54633809Y-88792381D01*
X54538571Y-88935238D01*
X54443333Y-89030476D01*
X54348095Y-89078095D01*
X55776667Y-89125714D02*
X55776667Y-89792381D01*
X55538571Y-88744762D02*
X55300476Y-89459048D01*
X55919524Y-89459048D01*
X53967143Y-93602381D02*
X53633809Y-93126190D01*
X53395714Y-93602381D02*
X53395714Y-92602381D01*
X53776667Y-92602381D01*
X53871905Y-92650000D01*
X53919524Y-92697619D01*
X53967143Y-92792857D01*
X53967143Y-92935714D01*
X53919524Y-93030952D01*
X53871905Y-93078571D01*
X53776667Y-93126190D01*
X53395714Y-93126190D01*
X54919524Y-93602381D02*
X54348095Y-93602381D01*
X54633809Y-93602381D02*
X54633809Y-92602381D01*
X54538571Y-92745238D01*
X54443333Y-92840476D01*
X54348095Y-92888095D01*
X55824286Y-92602381D02*
X55348095Y-92602381D01*
X55300476Y-93078571D01*
X55348095Y-93030952D01*
X55443333Y-92983333D01*
X55681429Y-92983333D01*
X55776667Y-93030952D01*
X55824286Y-93078571D01*
X55871905Y-93173810D01*
X55871905Y-93411905D01*
X55824286Y-93507143D01*
X55776667Y-93554762D01*
X55681429Y-93602381D01*
X55443333Y-93602381D01*
X55348095Y-93554762D01*
X55300476Y-93507143D01*
X53967143Y-98682381D02*
X53633809Y-98206190D01*
X53395714Y-98682381D02*
X53395714Y-97682381D01*
X53776667Y-97682381D01*
X53871905Y-97730000D01*
X53919524Y-97777619D01*
X53967143Y-97872857D01*
X53967143Y-98015714D01*
X53919524Y-98110952D01*
X53871905Y-98158571D01*
X53776667Y-98206190D01*
X53395714Y-98206190D01*
X54919524Y-98682381D02*
X54348095Y-98682381D01*
X54633809Y-98682381D02*
X54633809Y-97682381D01*
X54538571Y-97825238D01*
X54443333Y-97920476D01*
X54348095Y-97968095D01*
X55776667Y-97682381D02*
X55586190Y-97682381D01*
X55490952Y-97730000D01*
X55443333Y-97777619D01*
X55348095Y-97920476D01*
X55300476Y-98110952D01*
X55300476Y-98491905D01*
X55348095Y-98587143D01*
X55395714Y-98634762D01*
X55490952Y-98682381D01*
X55681429Y-98682381D01*
X55776667Y-98634762D01*
X55824286Y-98587143D01*
X55871905Y-98491905D01*
X55871905Y-98253810D01*
X55824286Y-98158571D01*
X55776667Y-98110952D01*
X55681429Y-98063333D01*
X55490952Y-98063333D01*
X55395714Y-98110952D01*
X55348095Y-98158571D01*
X55300476Y-98253810D01*
X53967143Y-102492381D02*
X53633809Y-102016190D01*
X53395714Y-102492381D02*
X53395714Y-101492381D01*
X53776667Y-101492381D01*
X53871905Y-101540000D01*
X53919524Y-101587619D01*
X53967143Y-101682857D01*
X53967143Y-101825714D01*
X53919524Y-101920952D01*
X53871905Y-101968571D01*
X53776667Y-102016190D01*
X53395714Y-102016190D01*
X54919524Y-102492381D02*
X54348095Y-102492381D01*
X54633809Y-102492381D02*
X54633809Y-101492381D01*
X54538571Y-101635238D01*
X54443333Y-101730476D01*
X54348095Y-101778095D01*
X55252857Y-101492381D02*
X55919524Y-101492381D01*
X55490952Y-102492381D01*
X90797143Y-110112381D02*
X90463809Y-109636190D01*
X90225714Y-110112381D02*
X90225714Y-109112381D01*
X90606667Y-109112381D01*
X90701905Y-109160000D01*
X90749524Y-109207619D01*
X90797143Y-109302857D01*
X90797143Y-109445714D01*
X90749524Y-109540952D01*
X90701905Y-109588571D01*
X90606667Y-109636190D01*
X90225714Y-109636190D01*
X91749524Y-110112381D02*
X91178095Y-110112381D01*
X91463809Y-110112381D02*
X91463809Y-109112381D01*
X91368571Y-109255238D01*
X91273333Y-109350476D01*
X91178095Y-109398095D01*
X92320952Y-109540952D02*
X92225714Y-109493333D01*
X92178095Y-109445714D01*
X92130476Y-109350476D01*
X92130476Y-109302857D01*
X92178095Y-109207619D01*
X92225714Y-109160000D01*
X92320952Y-109112381D01*
X92511429Y-109112381D01*
X92606667Y-109160000D01*
X92654286Y-109207619D01*
X92701905Y-109302857D01*
X92701905Y-109350476D01*
X92654286Y-109445714D01*
X92606667Y-109493333D01*
X92511429Y-109540952D01*
X92320952Y-109540952D01*
X92225714Y-109588571D01*
X92178095Y-109636190D01*
X92130476Y-109731429D01*
X92130476Y-109921905D01*
X92178095Y-110017143D01*
X92225714Y-110064762D01*
X92320952Y-110112381D01*
X92511429Y-110112381D01*
X92606667Y-110064762D01*
X92654286Y-110017143D01*
X92701905Y-109921905D01*
X92701905Y-109731429D01*
X92654286Y-109636190D01*
X92606667Y-109588571D01*
X92511429Y-109540952D01*
X84447143Y-110112381D02*
X84113809Y-109636190D01*
X83875714Y-110112381D02*
X83875714Y-109112381D01*
X84256667Y-109112381D01*
X84351905Y-109160000D01*
X84399524Y-109207619D01*
X84447143Y-109302857D01*
X84447143Y-109445714D01*
X84399524Y-109540952D01*
X84351905Y-109588571D01*
X84256667Y-109636190D01*
X83875714Y-109636190D01*
X85351905Y-109112381D02*
X84875714Y-109112381D01*
X84828095Y-109588571D01*
X84875714Y-109540952D01*
X84970952Y-109493333D01*
X85209048Y-109493333D01*
X85304286Y-109540952D01*
X85351905Y-109588571D01*
X85399524Y-109683810D01*
X85399524Y-109921905D01*
X85351905Y-110017143D01*
X85304286Y-110064762D01*
X85209048Y-110112381D01*
X84970952Y-110112381D01*
X84875714Y-110064762D01*
X84828095Y-110017143D01*
X86256667Y-109112381D02*
X86066190Y-109112381D01*
X85970952Y-109160000D01*
X85923333Y-109207619D01*
X85828095Y-109350476D01*
X85780476Y-109540952D01*
X85780476Y-109921905D01*
X85828095Y-110017143D01*
X85875714Y-110064762D01*
X85970952Y-110112381D01*
X86161429Y-110112381D01*
X86256667Y-110064762D01*
X86304286Y-110017143D01*
X86351905Y-109921905D01*
X86351905Y-109683810D01*
X86304286Y-109588571D01*
X86256667Y-109540952D01*
X86161429Y-109493333D01*
X85970952Y-109493333D01*
X85875714Y-109540952D01*
X85828095Y-109588571D01*
X85780476Y-109683810D01*
X79367143Y-108842381D02*
X79033809Y-108366190D01*
X78795714Y-108842381D02*
X78795714Y-107842381D01*
X79176667Y-107842381D01*
X79271905Y-107890000D01*
X79319524Y-107937619D01*
X79367143Y-108032857D01*
X79367143Y-108175714D01*
X79319524Y-108270952D01*
X79271905Y-108318571D01*
X79176667Y-108366190D01*
X78795714Y-108366190D01*
X80271905Y-107842381D02*
X79795714Y-107842381D01*
X79748095Y-108318571D01*
X79795714Y-108270952D01*
X79890952Y-108223333D01*
X80129048Y-108223333D01*
X80224286Y-108270952D01*
X80271905Y-108318571D01*
X80319524Y-108413810D01*
X80319524Y-108651905D01*
X80271905Y-108747143D01*
X80224286Y-108794762D01*
X80129048Y-108842381D01*
X79890952Y-108842381D01*
X79795714Y-108794762D01*
X79748095Y-108747143D01*
X80652857Y-107842381D02*
X81319524Y-107842381D01*
X80890952Y-108842381D01*
X73017143Y-108842381D02*
X72683809Y-108366190D01*
X72445714Y-108842381D02*
X72445714Y-107842381D01*
X72826667Y-107842381D01*
X72921905Y-107890000D01*
X72969524Y-107937619D01*
X73017143Y-108032857D01*
X73017143Y-108175714D01*
X72969524Y-108270952D01*
X72921905Y-108318571D01*
X72826667Y-108366190D01*
X72445714Y-108366190D01*
X73921905Y-107842381D02*
X73445714Y-107842381D01*
X73398095Y-108318571D01*
X73445714Y-108270952D01*
X73540952Y-108223333D01*
X73779048Y-108223333D01*
X73874286Y-108270952D01*
X73921905Y-108318571D01*
X73969524Y-108413810D01*
X73969524Y-108651905D01*
X73921905Y-108747143D01*
X73874286Y-108794762D01*
X73779048Y-108842381D01*
X73540952Y-108842381D01*
X73445714Y-108794762D01*
X73398095Y-108747143D01*
X74540952Y-108270952D02*
X74445714Y-108223333D01*
X74398095Y-108175714D01*
X74350476Y-108080476D01*
X74350476Y-108032857D01*
X74398095Y-107937619D01*
X74445714Y-107890000D01*
X74540952Y-107842381D01*
X74731429Y-107842381D01*
X74826667Y-107890000D01*
X74874286Y-107937619D01*
X74921905Y-108032857D01*
X74921905Y-108080476D01*
X74874286Y-108175714D01*
X74826667Y-108223333D01*
X74731429Y-108270952D01*
X74540952Y-108270952D01*
X74445714Y-108318571D01*
X74398095Y-108366190D01*
X74350476Y-108461429D01*
X74350476Y-108651905D01*
X74398095Y-108747143D01*
X74445714Y-108794762D01*
X74540952Y-108842381D01*
X74731429Y-108842381D01*
X74826667Y-108794762D01*
X74874286Y-108747143D01*
X74921905Y-108651905D01*
X74921905Y-108461429D01*
X74874286Y-108366190D01*
X74826667Y-108318571D01*
X74731429Y-108270952D01*
X66667143Y-108842381D02*
X66333809Y-108366190D01*
X66095714Y-108842381D02*
X66095714Y-107842381D01*
X66476667Y-107842381D01*
X66571905Y-107890000D01*
X66619524Y-107937619D01*
X66667143Y-108032857D01*
X66667143Y-108175714D01*
X66619524Y-108270952D01*
X66571905Y-108318571D01*
X66476667Y-108366190D01*
X66095714Y-108366190D01*
X67571905Y-107842381D02*
X67095714Y-107842381D01*
X67048095Y-108318571D01*
X67095714Y-108270952D01*
X67190952Y-108223333D01*
X67429048Y-108223333D01*
X67524286Y-108270952D01*
X67571905Y-108318571D01*
X67619524Y-108413810D01*
X67619524Y-108651905D01*
X67571905Y-108747143D01*
X67524286Y-108794762D01*
X67429048Y-108842381D01*
X67190952Y-108842381D01*
X67095714Y-108794762D01*
X67048095Y-108747143D01*
X68095714Y-108842381D02*
X68286190Y-108842381D01*
X68381429Y-108794762D01*
X68429048Y-108747143D01*
X68524286Y-108604286D01*
X68571905Y-108413810D01*
X68571905Y-108032857D01*
X68524286Y-107937619D01*
X68476667Y-107890000D01*
X68381429Y-107842381D01*
X68190952Y-107842381D01*
X68095714Y-107890000D01*
X68048095Y-107937619D01*
X68000476Y-108032857D01*
X68000476Y-108270952D01*
X68048095Y-108366190D01*
X68095714Y-108413810D01*
X68190952Y-108461429D01*
X68381429Y-108461429D01*
X68476667Y-108413810D01*
X68524286Y-108366190D01*
X68571905Y-108270952D01*
X61587143Y-101222381D02*
X61253809Y-100746190D01*
X61015714Y-101222381D02*
X61015714Y-100222381D01*
X61396667Y-100222381D01*
X61491905Y-100270000D01*
X61539524Y-100317619D01*
X61587143Y-100412857D01*
X61587143Y-100555714D01*
X61539524Y-100650952D01*
X61491905Y-100698571D01*
X61396667Y-100746190D01*
X61015714Y-100746190D01*
X62444286Y-100222381D02*
X62253809Y-100222381D01*
X62158571Y-100270000D01*
X62110952Y-100317619D01*
X62015714Y-100460476D01*
X61968095Y-100650952D01*
X61968095Y-101031905D01*
X62015714Y-101127143D01*
X62063333Y-101174762D01*
X62158571Y-101222381D01*
X62349048Y-101222381D01*
X62444286Y-101174762D01*
X62491905Y-101127143D01*
X62539524Y-101031905D01*
X62539524Y-100793810D01*
X62491905Y-100698571D01*
X62444286Y-100650952D01*
X62349048Y-100603333D01*
X62158571Y-100603333D01*
X62063333Y-100650952D01*
X62015714Y-100698571D01*
X61968095Y-100793810D01*
X63158571Y-100222381D02*
X63253810Y-100222381D01*
X63349048Y-100270000D01*
X63396667Y-100317619D01*
X63444286Y-100412857D01*
X63491905Y-100603333D01*
X63491905Y-100841429D01*
X63444286Y-101031905D01*
X63396667Y-101127143D01*
X63349048Y-101174762D01*
X63253810Y-101222381D01*
X63158571Y-101222381D01*
X63063333Y-101174762D01*
X63015714Y-101127143D01*
X62968095Y-101031905D01*
X62920476Y-100841429D01*
X62920476Y-100603333D01*
X62968095Y-100412857D01*
X63015714Y-100317619D01*
X63063333Y-100270000D01*
X63158571Y-100222381D01*
X97147143Y-110112381D02*
X96813809Y-109636190D01*
X96575714Y-110112381D02*
X96575714Y-109112381D01*
X96956667Y-109112381D01*
X97051905Y-109160000D01*
X97099524Y-109207619D01*
X97147143Y-109302857D01*
X97147143Y-109445714D01*
X97099524Y-109540952D01*
X97051905Y-109588571D01*
X96956667Y-109636190D01*
X96575714Y-109636190D01*
X98004286Y-109112381D02*
X97813809Y-109112381D01*
X97718571Y-109160000D01*
X97670952Y-109207619D01*
X97575714Y-109350476D01*
X97528095Y-109540952D01*
X97528095Y-109921905D01*
X97575714Y-110017143D01*
X97623333Y-110064762D01*
X97718571Y-110112381D01*
X97909048Y-110112381D01*
X98004286Y-110064762D01*
X98051905Y-110017143D01*
X98099524Y-109921905D01*
X98099524Y-109683810D01*
X98051905Y-109588571D01*
X98004286Y-109540952D01*
X97909048Y-109493333D01*
X97718571Y-109493333D01*
X97623333Y-109540952D01*
X97575714Y-109588571D01*
X97528095Y-109683810D01*
X99051905Y-110112381D02*
X98480476Y-110112381D01*
X98766190Y-110112381D02*
X98766190Y-109112381D01*
X98670952Y-109255238D01*
X98575714Y-109350476D01*
X98480476Y-109398095D01*
X61587143Y-105032381D02*
X61253809Y-104556190D01*
X61015714Y-105032381D02*
X61015714Y-104032381D01*
X61396667Y-104032381D01*
X61491905Y-104080000D01*
X61539524Y-104127619D01*
X61587143Y-104222857D01*
X61587143Y-104365714D01*
X61539524Y-104460952D01*
X61491905Y-104508571D01*
X61396667Y-104556190D01*
X61015714Y-104556190D01*
X62444286Y-104032381D02*
X62253809Y-104032381D01*
X62158571Y-104080000D01*
X62110952Y-104127619D01*
X62015714Y-104270476D01*
X61968095Y-104460952D01*
X61968095Y-104841905D01*
X62015714Y-104937143D01*
X62063333Y-104984762D01*
X62158571Y-105032381D01*
X62349048Y-105032381D01*
X62444286Y-104984762D01*
X62491905Y-104937143D01*
X62539524Y-104841905D01*
X62539524Y-104603810D01*
X62491905Y-104508571D01*
X62444286Y-104460952D01*
X62349048Y-104413333D01*
X62158571Y-104413333D01*
X62063333Y-104460952D01*
X62015714Y-104508571D01*
X61968095Y-104603810D01*
X62920476Y-104127619D02*
X62968095Y-104080000D01*
X63063333Y-104032381D01*
X63301429Y-104032381D01*
X63396667Y-104080000D01*
X63444286Y-104127619D01*
X63491905Y-104222857D01*
X63491905Y-104318095D01*
X63444286Y-104460952D01*
X62872857Y-105032381D01*
X63491905Y-105032381D01*
X53967143Y-106302381D02*
X53633809Y-105826190D01*
X53395714Y-106302381D02*
X53395714Y-105302381D01*
X53776667Y-105302381D01*
X53871905Y-105350000D01*
X53919524Y-105397619D01*
X53967143Y-105492857D01*
X53967143Y-105635714D01*
X53919524Y-105730952D01*
X53871905Y-105778571D01*
X53776667Y-105826190D01*
X53395714Y-105826190D01*
X54824286Y-105302381D02*
X54633809Y-105302381D01*
X54538571Y-105350000D01*
X54490952Y-105397619D01*
X54395714Y-105540476D01*
X54348095Y-105730952D01*
X54348095Y-106111905D01*
X54395714Y-106207143D01*
X54443333Y-106254762D01*
X54538571Y-106302381D01*
X54729048Y-106302381D01*
X54824286Y-106254762D01*
X54871905Y-106207143D01*
X54919524Y-106111905D01*
X54919524Y-105873810D01*
X54871905Y-105778571D01*
X54824286Y-105730952D01*
X54729048Y-105683333D01*
X54538571Y-105683333D01*
X54443333Y-105730952D01*
X54395714Y-105778571D01*
X54348095Y-105873810D01*
X55252857Y-105302381D02*
X55871905Y-105302381D01*
X55538571Y-105683333D01*
X55681429Y-105683333D01*
X55776667Y-105730952D01*
X55824286Y-105778571D01*
X55871905Y-105873810D01*
X55871905Y-106111905D01*
X55824286Y-106207143D01*
X55776667Y-106254762D01*
X55681429Y-106302381D01*
X55395714Y-106302381D01*
X55300476Y-106254762D01*
X55252857Y-106207143D01*
X53967143Y-106302381D02*
X53633809Y-105826190D01*
X53395714Y-106302381D02*
X53395714Y-105302381D01*
X53776667Y-105302381D01*
X53871905Y-105350000D01*
X53919524Y-105397619D01*
X53967143Y-105492857D01*
X53967143Y-105635714D01*
X53919524Y-105730952D01*
X53871905Y-105778571D01*
X53776667Y-105826190D01*
X53395714Y-105826190D01*
X54824286Y-105302381D02*
X54633809Y-105302381D01*
X54538571Y-105350000D01*
X54490952Y-105397619D01*
X54395714Y-105540476D01*
X54348095Y-105730952D01*
X54348095Y-106111905D01*
X54395714Y-106207143D01*
X54443333Y-106254762D01*
X54538571Y-106302381D01*
X54729048Y-106302381D01*
X54824286Y-106254762D01*
X54871905Y-106207143D01*
X54919524Y-106111905D01*
X54919524Y-105873810D01*
X54871905Y-105778571D01*
X54824286Y-105730952D01*
X54729048Y-105683333D01*
X54538571Y-105683333D01*
X54443333Y-105730952D01*
X54395714Y-105778571D01*
X54348095Y-105873810D01*
X55776667Y-105635714D02*
X55776667Y-106302381D01*
X55538571Y-105254762D02*
X55300476Y-105969048D01*
X55919524Y-105969048D01*
X53967143Y-106302381D02*
X53633809Y-105826190D01*
X53395714Y-106302381D02*
X53395714Y-105302381D01*
X53776667Y-105302381D01*
X53871905Y-105350000D01*
X53919524Y-105397619D01*
X53967143Y-105492857D01*
X53967143Y-105635714D01*
X53919524Y-105730952D01*
X53871905Y-105778571D01*
X53776667Y-105826190D01*
X53395714Y-105826190D01*
X54824286Y-105302381D02*
X54633809Y-105302381D01*
X54538571Y-105350000D01*
X54490952Y-105397619D01*
X54395714Y-105540476D01*
X54348095Y-105730952D01*
X54348095Y-106111905D01*
X54395714Y-106207143D01*
X54443333Y-106254762D01*
X54538571Y-106302381D01*
X54729048Y-106302381D01*
X54824286Y-106254762D01*
X54871905Y-106207143D01*
X54919524Y-106111905D01*
X54919524Y-105873810D01*
X54871905Y-105778571D01*
X54824286Y-105730952D01*
X54729048Y-105683333D01*
X54538571Y-105683333D01*
X54443333Y-105730952D01*
X54395714Y-105778571D01*
X54348095Y-105873810D01*
X55824286Y-105302381D02*
X55348095Y-105302381D01*
X55300476Y-105778571D01*
X55348095Y-105730952D01*
X55443333Y-105683333D01*
X55681429Y-105683333D01*
X55776667Y-105730952D01*
X55824286Y-105778571D01*
X55871905Y-105873810D01*
X55871905Y-106111905D01*
X55824286Y-106207143D01*
X55776667Y-106254762D01*
X55681429Y-106302381D01*
X55443333Y-106302381D01*
X55348095Y-106254762D01*
X55300476Y-106207143D01*
X53967143Y-106302381D02*
X53633809Y-105826190D01*
X53395714Y-106302381D02*
X53395714Y-105302381D01*
X53776667Y-105302381D01*
X53871905Y-105350000D01*
X53919524Y-105397619D01*
X53967143Y-105492857D01*
X53967143Y-105635714D01*
X53919524Y-105730952D01*
X53871905Y-105778571D01*
X53776667Y-105826190D01*
X53395714Y-105826190D01*
X54824286Y-105302381D02*
X54633809Y-105302381D01*
X54538571Y-105350000D01*
X54490952Y-105397619D01*
X54395714Y-105540476D01*
X54348095Y-105730952D01*
X54348095Y-106111905D01*
X54395714Y-106207143D01*
X54443333Y-106254762D01*
X54538571Y-106302381D01*
X54729048Y-106302381D01*
X54824286Y-106254762D01*
X54871905Y-106207143D01*
X54919524Y-106111905D01*
X54919524Y-105873810D01*
X54871905Y-105778571D01*
X54824286Y-105730952D01*
X54729048Y-105683333D01*
X54538571Y-105683333D01*
X54443333Y-105730952D01*
X54395714Y-105778571D01*
X54348095Y-105873810D01*
X55776667Y-105302381D02*
X55586190Y-105302381D01*
X55490952Y-105350000D01*
X55443333Y-105397619D01*
X55348095Y-105540476D01*
X55300476Y-105730952D01*
X55300476Y-106111905D01*
X55348095Y-106207143D01*
X55395714Y-106254762D01*
X55490952Y-106302381D01*
X55681429Y-106302381D01*
X55776667Y-106254762D01*
X55824286Y-106207143D01*
X55871905Y-106111905D01*
X55871905Y-105873810D01*
X55824286Y-105778571D01*
X55776667Y-105730952D01*
X55681429Y-105683333D01*
X55490952Y-105683333D01*
X55395714Y-105730952D01*
X55348095Y-105778571D01*
X55300476Y-105873810D01*
X53967143Y-106302381D02*
X53633809Y-105826190D01*
X53395714Y-106302381D02*
X53395714Y-105302381D01*
X53776667Y-105302381D01*
X53871905Y-105350000D01*
X53919524Y-105397619D01*
X53967143Y-105492857D01*
X53967143Y-105635714D01*
X53919524Y-105730952D01*
X53871905Y-105778571D01*
X53776667Y-105826190D01*
X53395714Y-105826190D01*
X54824286Y-105302381D02*
X54633809Y-105302381D01*
X54538571Y-105350000D01*
X54490952Y-105397619D01*
X54395714Y-105540476D01*
X54348095Y-105730952D01*
X54348095Y-106111905D01*
X54395714Y-106207143D01*
X54443333Y-106254762D01*
X54538571Y-106302381D01*
X54729048Y-106302381D01*
X54824286Y-106254762D01*
X54871905Y-106207143D01*
X54919524Y-106111905D01*
X54919524Y-105873810D01*
X54871905Y-105778571D01*
X54824286Y-105730952D01*
X54729048Y-105683333D01*
X54538571Y-105683333D01*
X54443333Y-105730952D01*
X54395714Y-105778571D01*
X54348095Y-105873810D01*
X55252857Y-105302381D02*
X55919524Y-105302381D01*
X55490952Y-106302381D01*
X53967143Y-106302381D02*
X53633809Y-105826190D01*
X53395714Y-106302381D02*
X53395714Y-105302381D01*
X53776667Y-105302381D01*
X53871905Y-105350000D01*
X53919524Y-105397619D01*
X53967143Y-105492857D01*
X53967143Y-105635714D01*
X53919524Y-105730952D01*
X53871905Y-105778571D01*
X53776667Y-105826190D01*
X53395714Y-105826190D01*
X54824286Y-105302381D02*
X54633809Y-105302381D01*
X54538571Y-105350000D01*
X54490952Y-105397619D01*
X54395714Y-105540476D01*
X54348095Y-105730952D01*
X54348095Y-106111905D01*
X54395714Y-106207143D01*
X54443333Y-106254762D01*
X54538571Y-106302381D01*
X54729048Y-106302381D01*
X54824286Y-106254762D01*
X54871905Y-106207143D01*
X54919524Y-106111905D01*
X54919524Y-105873810D01*
X54871905Y-105778571D01*
X54824286Y-105730952D01*
X54729048Y-105683333D01*
X54538571Y-105683333D01*
X54443333Y-105730952D01*
X54395714Y-105778571D01*
X54348095Y-105873810D01*
X55490952Y-105730952D02*
X55395714Y-105683333D01*
X55348095Y-105635714D01*
X55300476Y-105540476D01*
X55300476Y-105492857D01*
X55348095Y-105397619D01*
X55395714Y-105350000D01*
X55490952Y-105302381D01*
X55681429Y-105302381D01*
X55776667Y-105350000D01*
X55824286Y-105397619D01*
X55871905Y-105492857D01*
X55871905Y-105540476D01*
X55824286Y-105635714D01*
X55776667Y-105683333D01*
X55681429Y-105730952D01*
X55490952Y-105730952D01*
X55395714Y-105778571D01*
X55348095Y-105826190D01*
X55300476Y-105921429D01*
X55300476Y-106111905D01*
X55348095Y-106207143D01*
X55395714Y-106254762D01*
X55490952Y-106302381D01*
X55681429Y-106302381D01*
X55776667Y-106254762D01*
X55824286Y-106207143D01*
X55871905Y-106111905D01*
X55871905Y-105921429D01*
X55824286Y-105826190D01*
X55776667Y-105778571D01*
X55681429Y-105730952D01*
X53967143Y-106302381D02*
X53633809Y-105826190D01*
X53395714Y-106302381D02*
X53395714Y-105302381D01*
X53776667Y-105302381D01*
X53871905Y-105350000D01*
X53919524Y-105397619D01*
X53967143Y-105492857D01*
X53967143Y-105635714D01*
X53919524Y-105730952D01*
X53871905Y-105778571D01*
X53776667Y-105826190D01*
X53395714Y-105826190D01*
X54824286Y-105302381D02*
X54633809Y-105302381D01*
X54538571Y-105350000D01*
X54490952Y-105397619D01*
X54395714Y-105540476D01*
X54348095Y-105730952D01*
X54348095Y-106111905D01*
X54395714Y-106207143D01*
X54443333Y-106254762D01*
X54538571Y-106302381D01*
X54729048Y-106302381D01*
X54824286Y-106254762D01*
X54871905Y-106207143D01*
X54919524Y-106111905D01*
X54919524Y-105873810D01*
X54871905Y-105778571D01*
X54824286Y-105730952D01*
X54729048Y-105683333D01*
X54538571Y-105683333D01*
X54443333Y-105730952D01*
X54395714Y-105778571D01*
X54348095Y-105873810D01*
X55395714Y-106302381D02*
X55586190Y-106302381D01*
X55681429Y-106254762D01*
X55729048Y-106207143D01*
X55824286Y-106064286D01*
X55871905Y-105873810D01*
X55871905Y-105492857D01*
X55824286Y-105397619D01*
X55776667Y-105350000D01*
X55681429Y-105302381D01*
X55490952Y-105302381D01*
X55395714Y-105350000D01*
X55348095Y-105397619D01*
X55300476Y-105492857D01*
X55300476Y-105730952D01*
X55348095Y-105826190D01*
X55395714Y-105873810D01*
X55490952Y-105921429D01*
X55681429Y-105921429D01*
X55776667Y-105873810D01*
X55824286Y-105826190D01*
X55871905Y-105730952D01*
X53967143Y-106302381D02*
X53633809Y-105826190D01*
X53395714Y-106302381D02*
X53395714Y-105302381D01*
X53776667Y-105302381D01*
X53871905Y-105350000D01*
X53919524Y-105397619D01*
X53967143Y-105492857D01*
X53967143Y-105635714D01*
X53919524Y-105730952D01*
X53871905Y-105778571D01*
X53776667Y-105826190D01*
X53395714Y-105826190D01*
X54300476Y-105302381D02*
X54967143Y-105302381D01*
X54538571Y-106302381D01*
X55538571Y-105302381D02*
X55633810Y-105302381D01*
X55729048Y-105350000D01*
X55776667Y-105397619D01*
X55824286Y-105492857D01*
X55871905Y-105683333D01*
X55871905Y-105921429D01*
X55824286Y-106111905D01*
X55776667Y-106207143D01*
X55729048Y-106254762D01*
X55633810Y-106302381D01*
X55538571Y-106302381D01*
X55443333Y-106254762D01*
X55395714Y-106207143D01*
X55348095Y-106111905D01*
X55300476Y-105921429D01*
X55300476Y-105683333D01*
X55348095Y-105492857D01*
X55395714Y-105397619D01*
X55443333Y-105350000D01*
X55538571Y-105302381D01*
X53967143Y-106302381D02*
X53633809Y-105826190D01*
X53395714Y-106302381D02*
X53395714Y-105302381D01*
X53776667Y-105302381D01*
X53871905Y-105350000D01*
X53919524Y-105397619D01*
X53967143Y-105492857D01*
X53967143Y-105635714D01*
X53919524Y-105730952D01*
X53871905Y-105778571D01*
X53776667Y-105826190D01*
X53395714Y-105826190D01*
X54300476Y-105302381D02*
X54967143Y-105302381D01*
X54538571Y-106302381D01*
X55871905Y-106302381D02*
X55300476Y-106302381D01*
X55586190Y-106302381D02*
X55586190Y-105302381D01*
X55490952Y-105445238D01*
X55395714Y-105540476D01*
X55300476Y-105588095D01*
X53967143Y-106302381D02*
X53633809Y-105826190D01*
X53395714Y-106302381D02*
X53395714Y-105302381D01*
X53776667Y-105302381D01*
X53871905Y-105350000D01*
X53919524Y-105397619D01*
X53967143Y-105492857D01*
X53967143Y-105635714D01*
X53919524Y-105730952D01*
X53871905Y-105778571D01*
X53776667Y-105826190D01*
X53395714Y-105826190D01*
X54300476Y-105302381D02*
X54967143Y-105302381D01*
X54538571Y-106302381D01*
X55300476Y-105397619D02*
X55348095Y-105350000D01*
X55443333Y-105302381D01*
X55681429Y-105302381D01*
X55776667Y-105350000D01*
X55824286Y-105397619D01*
X55871905Y-105492857D01*
X55871905Y-105588095D01*
X55824286Y-105730952D01*
X55252857Y-106302381D01*
X55871905Y-106302381D01*
X53967143Y-106302381D02*
X53633809Y-105826190D01*
X53395714Y-106302381D02*
X53395714Y-105302381D01*
X53776667Y-105302381D01*
X53871905Y-105350000D01*
X53919524Y-105397619D01*
X53967143Y-105492857D01*
X53967143Y-105635714D01*
X53919524Y-105730952D01*
X53871905Y-105778571D01*
X53776667Y-105826190D01*
X53395714Y-105826190D01*
X54300476Y-105302381D02*
X54967143Y-105302381D01*
X54538571Y-106302381D01*
X55776667Y-105635714D02*
X55776667Y-106302381D01*
X55538571Y-105254762D02*
X55300476Y-105969048D01*
X55919524Y-105969048D01*
X53967143Y-106302381D02*
X53633809Y-105826190D01*
X53395714Y-106302381D02*
X53395714Y-105302381D01*
X53776667Y-105302381D01*
X53871905Y-105350000D01*
X53919524Y-105397619D01*
X53967143Y-105492857D01*
X53967143Y-105635714D01*
X53919524Y-105730952D01*
X53871905Y-105778571D01*
X53776667Y-105826190D01*
X53395714Y-105826190D01*
X54300476Y-105302381D02*
X54967143Y-105302381D01*
X54538571Y-106302381D01*
X55824286Y-105302381D02*
X55348095Y-105302381D01*
X55300476Y-105778571D01*
X55348095Y-105730952D01*
X55443333Y-105683333D01*
X55681429Y-105683333D01*
X55776667Y-105730952D01*
X55824286Y-105778571D01*
X55871905Y-105873810D01*
X55871905Y-106111905D01*
X55824286Y-106207143D01*
X55776667Y-106254762D01*
X55681429Y-106302381D01*
X55443333Y-106302381D01*
X55348095Y-106254762D01*
X55300476Y-106207143D01*
X53967143Y-106302381D02*
X53633809Y-105826190D01*
X53395714Y-106302381D02*
X53395714Y-105302381D01*
X53776667Y-105302381D01*
X53871905Y-105350000D01*
X53919524Y-105397619D01*
X53967143Y-105492857D01*
X53967143Y-105635714D01*
X53919524Y-105730952D01*
X53871905Y-105778571D01*
X53776667Y-105826190D01*
X53395714Y-105826190D01*
X54300476Y-105302381D02*
X54967143Y-105302381D01*
X54538571Y-106302381D01*
X55776667Y-105302381D02*
X55586190Y-105302381D01*
X55490952Y-105350000D01*
X55443333Y-105397619D01*
X55348095Y-105540476D01*
X55300476Y-105730952D01*
X55300476Y-106111905D01*
X55348095Y-106207143D01*
X55395714Y-106254762D01*
X55490952Y-106302381D01*
X55681429Y-106302381D01*
X55776667Y-106254762D01*
X55824286Y-106207143D01*
X55871905Y-106111905D01*
X55871905Y-105873810D01*
X55824286Y-105778571D01*
X55776667Y-105730952D01*
X55681429Y-105683333D01*
X55490952Y-105683333D01*
X55395714Y-105730952D01*
X55348095Y-105778571D01*
X55300476Y-105873810D01*
X131341905Y-109652381D02*
X131341905Y-108652381D01*
X131722858Y-108652381D01*
X131818096Y-108700000D01*
X131865715Y-108747619D01*
X131913334Y-108842857D01*
X131913334Y-108985714D01*
X131865715Y-109080952D01*
X131818096Y-109128571D01*
X131722858Y-109176190D01*
X131341905Y-109176190D01*
X132865715Y-109652381D02*
X132294286Y-109652381D01*
X132580000Y-109652381D02*
X132580000Y-108652381D01*
X132484762Y-108795238D01*
X132389524Y-108890476D01*
X132294286Y-108938095D01*
X158011905Y-109652381D02*
X158011905Y-108652381D01*
X158392858Y-108652381D01*
X158488096Y-108700000D01*
X158535715Y-108747619D01*
X158583334Y-108842857D01*
X158583334Y-108985714D01*
X158535715Y-109080952D01*
X158488096Y-109128571D01*
X158392858Y-109176190D01*
X158011905Y-109176190D01*
X158964286Y-108747619D02*
X159011905Y-108700000D01*
X159107143Y-108652381D01*
X159345239Y-108652381D01*
X159440477Y-108700000D01*
X159488096Y-108747619D01*
X159535715Y-108842857D01*
X159535715Y-108938095D01*
X159488096Y-109080952D01*
X158916667Y-109652381D01*
X159535715Y-109652381D01*
X165631905Y-109652381D02*
X165631905Y-108652381D01*
X166012858Y-108652381D01*
X166108096Y-108700000D01*
X166155715Y-108747619D01*
X166203334Y-108842857D01*
X166203334Y-108985714D01*
X166155715Y-109080952D01*
X166108096Y-109128571D01*
X166012858Y-109176190D01*
X165631905Y-109176190D01*
X167060477Y-108985714D02*
X167060477Y-109652381D01*
X166822381Y-108604762D02*
X166584286Y-109319048D01*
X167203334Y-109319048D01*
X154201905Y-109652381D02*
X154201905Y-108652381D01*
X154582858Y-108652381D01*
X154678096Y-108700000D01*
X154725715Y-108747619D01*
X154773334Y-108842857D01*
X154773334Y-108985714D01*
X154725715Y-109080952D01*
X154678096Y-109128571D01*
X154582858Y-109176190D01*
X154201905Y-109176190D01*
X155678096Y-108652381D02*
X155201905Y-108652381D01*
X155154286Y-109128571D01*
X155201905Y-109080952D01*
X155297143Y-109033333D01*
X155535239Y-109033333D01*
X155630477Y-109080952D01*
X155678096Y-109128571D01*
X155725715Y-109223810D01*
X155725715Y-109461905D01*
X155678096Y-109557143D01*
X155630477Y-109604762D01*
X155535239Y-109652381D01*
X155297143Y-109652381D01*
X155201905Y-109604762D01*
X155154286Y-109557143D01*
X150391905Y-109652381D02*
X150391905Y-108652381D01*
X150772858Y-108652381D01*
X150868096Y-108700000D01*
X150915715Y-108747619D01*
X150963334Y-108842857D01*
X150963334Y-108985714D01*
X150915715Y-109080952D01*
X150868096Y-109128571D01*
X150772858Y-109176190D01*
X150391905Y-109176190D01*
X151820477Y-108652381D02*
X151630000Y-108652381D01*
X151534762Y-108700000D01*
X151487143Y-108747619D01*
X151391905Y-108890476D01*
X151344286Y-109080952D01*
X151344286Y-109461905D01*
X151391905Y-109557143D01*
X151439524Y-109604762D01*
X151534762Y-109652381D01*
X151725239Y-109652381D01*
X151820477Y-109604762D01*
X151868096Y-109557143D01*
X151915715Y-109461905D01*
X151915715Y-109223810D01*
X151868096Y-109128571D01*
X151820477Y-109080952D01*
X151725239Y-109033333D01*
X151534762Y-109033333D01*
X151439524Y-109080952D01*
X151391905Y-109128571D01*
X151344286Y-109223810D01*
X146581905Y-109652381D02*
X146581905Y-108652381D01*
X146962858Y-108652381D01*
X147058096Y-108700000D01*
X147105715Y-108747619D01*
X147153334Y-108842857D01*
X147153334Y-108985714D01*
X147105715Y-109080952D01*
X147058096Y-109128571D01*
X146962858Y-109176190D01*
X146581905Y-109176190D01*
X147486667Y-108652381D02*
X148153334Y-108652381D01*
X147724762Y-109652381D01*
X134675714Y-109652381D02*
X134675714Y-108652381D01*
X135056667Y-108652381D01*
X135151905Y-108700000D01*
X135199524Y-108747619D01*
X135247143Y-108842857D01*
X135247143Y-108985714D01*
X135199524Y-109080952D01*
X135151905Y-109128571D01*
X135056667Y-109176190D01*
X134675714Y-109176190D01*
X136199524Y-109652381D02*
X135628095Y-109652381D01*
X135913809Y-109652381D02*
X135913809Y-108652381D01*
X135818571Y-108795238D01*
X135723333Y-108890476D01*
X135628095Y-108938095D01*
X136818571Y-108652381D02*
X136913810Y-108652381D01*
X137009048Y-108700000D01*
X137056667Y-108747619D01*
X137104286Y-108842857D01*
X137151905Y-109033333D01*
X137151905Y-109271429D01*
X137104286Y-109461905D01*
X137056667Y-109557143D01*
X137009048Y-109604762D01*
X136913810Y-109652381D01*
X136818571Y-109652381D01*
X136723333Y-109604762D01*
X136675714Y-109557143D01*
X136628095Y-109461905D01*
X136580476Y-109271429D01*
X136580476Y-109033333D01*
X136628095Y-108842857D01*
X136675714Y-108747619D01*
X136723333Y-108700000D01*
X136818571Y-108652381D01*
X138485714Y-109652381D02*
X138485714Y-108652381D01*
X138866667Y-108652381D01*
X138961905Y-108700000D01*
X139009524Y-108747619D01*
X139057143Y-108842857D01*
X139057143Y-108985714D01*
X139009524Y-109080952D01*
X138961905Y-109128571D01*
X138866667Y-109176190D01*
X138485714Y-109176190D01*
X140009524Y-109652381D02*
X139438095Y-109652381D01*
X139723809Y-109652381D02*
X139723809Y-108652381D01*
X139628571Y-108795238D01*
X139533333Y-108890476D01*
X139438095Y-108938095D01*
X140961905Y-109652381D02*
X140390476Y-109652381D01*
X140676190Y-109652381D02*
X140676190Y-108652381D01*
X140580952Y-108795238D01*
X140485714Y-108890476D01*
X140390476Y-108938095D01*
X168965714Y-109652381D02*
X168965714Y-108652381D01*
X169346667Y-108652381D01*
X169441905Y-108700000D01*
X169489524Y-108747619D01*
X169537143Y-108842857D01*
X169537143Y-108985714D01*
X169489524Y-109080952D01*
X169441905Y-109128571D01*
X169346667Y-109176190D01*
X168965714Y-109176190D01*
X170489524Y-109652381D02*
X169918095Y-109652381D01*
X170203809Y-109652381D02*
X170203809Y-108652381D01*
X170108571Y-108795238D01*
X170013333Y-108890476D01*
X169918095Y-108938095D01*
X170822857Y-108652381D02*
X171441905Y-108652381D01*
X171108571Y-109033333D01*
X171251429Y-109033333D01*
X171346667Y-109080952D01*
X171394286Y-109128571D01*
X171441905Y-109223810D01*
X171441905Y-109461905D01*
X171394286Y-109557143D01*
X171346667Y-109604762D01*
X171251429Y-109652381D01*
X170965714Y-109652381D01*
X170870476Y-109604762D01*
X170822857Y-109557143D01*
X127055714Y-109652381D02*
X127055714Y-108652381D01*
X127436667Y-108652381D01*
X127531905Y-108700000D01*
X127579524Y-108747619D01*
X127627143Y-108842857D01*
X127627143Y-108985714D01*
X127579524Y-109080952D01*
X127531905Y-109128571D01*
X127436667Y-109176190D01*
X127055714Y-109176190D01*
X128579524Y-109652381D02*
X128008095Y-109652381D01*
X128293809Y-109652381D02*
X128293809Y-108652381D01*
X128198571Y-108795238D01*
X128103333Y-108890476D01*
X128008095Y-108938095D01*
X129436667Y-108985714D02*
X129436667Y-109652381D01*
X129198571Y-108604762D02*
X128960476Y-109319048D01*
X129579524Y-109319048D01*
X161345714Y-109652381D02*
X161345714Y-108652381D01*
X161726667Y-108652381D01*
X161821905Y-108700000D01*
X161869524Y-108747619D01*
X161917143Y-108842857D01*
X161917143Y-108985714D01*
X161869524Y-109080952D01*
X161821905Y-109128571D01*
X161726667Y-109176190D01*
X161345714Y-109176190D01*
X162869524Y-109652381D02*
X162298095Y-109652381D01*
X162583809Y-109652381D02*
X162583809Y-108652381D01*
X162488571Y-108795238D01*
X162393333Y-108890476D01*
X162298095Y-108938095D01*
X163774286Y-108652381D02*
X163298095Y-108652381D01*
X163250476Y-109128571D01*
X163298095Y-109080952D01*
X163393333Y-109033333D01*
X163631429Y-109033333D01*
X163726667Y-109080952D01*
X163774286Y-109128571D01*
X163821905Y-109223810D01*
X163821905Y-109461905D01*
X163774286Y-109557143D01*
X163726667Y-109604762D01*
X163631429Y-109652381D01*
X163393333Y-109652381D01*
X163298095Y-109604762D01*
X163250476Y-109557143D01*
X184681905Y-109652381D02*
X184681905Y-108652381D01*
X185062858Y-108652381D01*
X185158096Y-108700000D01*
X185205715Y-108747619D01*
X185253334Y-108842857D01*
X185253334Y-108985714D01*
X185205715Y-109080952D01*
X185158096Y-109128571D01*
X185062858Y-109176190D01*
X184681905Y-109176190D01*
X185586667Y-108652381D02*
X186205715Y-108652381D01*
X185872381Y-109033333D01*
X186015239Y-109033333D01*
X186110477Y-109080952D01*
X186158096Y-109128571D01*
X186205715Y-109223810D01*
X186205715Y-109461905D01*
X186158096Y-109557143D01*
X186110477Y-109604762D01*
X186015239Y-109652381D01*
X185729524Y-109652381D01*
X185634286Y-109604762D01*
X185586667Y-109557143D01*
X188491905Y-109652381D02*
X188491905Y-108652381D01*
X188872858Y-108652381D01*
X188968096Y-108700000D01*
X189015715Y-108747619D01*
X189063334Y-108842857D01*
X189063334Y-108985714D01*
X189015715Y-109080952D01*
X188968096Y-109128571D01*
X188872858Y-109176190D01*
X188491905Y-109176190D01*
X189539524Y-109652381D02*
X189730000Y-109652381D01*
X189825239Y-109604762D01*
X189872858Y-109557143D01*
X189968096Y-109414286D01*
X190015715Y-109223810D01*
X190015715Y-108842857D01*
X189968096Y-108747619D01*
X189920477Y-108700000D01*
X189825239Y-108652381D01*
X189634762Y-108652381D01*
X189539524Y-108700000D01*
X189491905Y-108747619D01*
X189444286Y-108842857D01*
X189444286Y-109080952D01*
X189491905Y-109176190D01*
X189539524Y-109223810D01*
X189634762Y-109271429D01*
X189825239Y-109271429D01*
X189920477Y-109223810D01*
X189968096Y-109176190D01*
X190015715Y-109080952D01*
X180395714Y-109652381D02*
X180395714Y-108652381D01*
X180776667Y-108652381D01*
X180871905Y-108700000D01*
X180919524Y-108747619D01*
X180967143Y-108842857D01*
X180967143Y-108985714D01*
X180919524Y-109080952D01*
X180871905Y-109128571D01*
X180776667Y-109176190D01*
X180395714Y-109176190D01*
X181919524Y-109652381D02*
X181348095Y-109652381D01*
X181633809Y-109652381D02*
X181633809Y-108652381D01*
X181538571Y-108795238D01*
X181443333Y-108890476D01*
X181348095Y-108938095D01*
X182300476Y-108747619D02*
X182348095Y-108700000D01*
X182443333Y-108652381D01*
X182681429Y-108652381D01*
X182776667Y-108700000D01*
X182824286Y-108747619D01*
X182871905Y-108842857D01*
X182871905Y-108938095D01*
X182824286Y-109080952D01*
X182252857Y-109652381D01*
X182871905Y-109652381D01*
D14*
X74359105Y-135479669D02*
X74359105Y-136086245D01*
X74394786Y-136157607D01*
X74430467Y-136193288D01*
X74501829Y-136228969D01*
X74644552Y-136228969D01*
X74715914Y-136193288D01*
X74751595Y-136157607D01*
X74787276Y-136086245D01*
X74787276Y-135479669D01*
X75465214Y-135729436D02*
X75465214Y-136228969D01*
X75286810Y-135443988D02*
X75108405Y-135979202D01*
X75572257Y-135979202D01*
X72610739Y-133752469D02*
X72610739Y-133003169D01*
X72789144Y-133003169D01*
X72896186Y-133038850D01*
X72967548Y-133110212D01*
X73003229Y-133181574D01*
X73038910Y-133324298D01*
X73038910Y-133431340D01*
X73003229Y-133574064D01*
X72967548Y-133645426D01*
X72896186Y-133716788D01*
X72789144Y-133752469D01*
X72610739Y-133752469D01*
X73788210Y-133752469D02*
X73538444Y-133395660D01*
X73360039Y-133752469D02*
X73360039Y-133003169D01*
X73645486Y-133003169D01*
X73716848Y-133038850D01*
X73752529Y-133074531D01*
X73788210Y-133145893D01*
X73788210Y-133252936D01*
X73752529Y-133324298D01*
X73716848Y-133359979D01*
X73645486Y-133395660D01*
X73360039Y-133395660D01*
X74002296Y-133003169D02*
X74252063Y-133752469D01*
X74501829Y-133003169D01*
X74858639Y-133324298D02*
X74787277Y-133288617D01*
X74751596Y-133252936D01*
X74715915Y-133181574D01*
X74715915Y-133145893D01*
X74751596Y-133074531D01*
X74787277Y-133038850D01*
X74858639Y-133003169D01*
X75001362Y-133003169D01*
X75072724Y-133038850D01*
X75108405Y-133074531D01*
X75144086Y-133145893D01*
X75144086Y-133181574D01*
X75108405Y-133252936D01*
X75072724Y-133288617D01*
X75001362Y-133324298D01*
X74858639Y-133324298D01*
X74787277Y-133359979D01*
X74751596Y-133395660D01*
X74715915Y-133467021D01*
X74715915Y-133609745D01*
X74751596Y-133681107D01*
X74787277Y-133716788D01*
X74858639Y-133752469D01*
X75001362Y-133752469D01*
X75072724Y-133716788D01*
X75108405Y-133681107D01*
X75144086Y-133609745D01*
X75144086Y-133467021D01*
X75108405Y-133395660D01*
X75072724Y-133359979D01*
X75001362Y-133324298D01*
X75393853Y-133003169D02*
X75857705Y-133003169D01*
X75607939Y-133288617D01*
X75714981Y-133288617D01*
X75786343Y-133324298D01*
X75822024Y-133359979D01*
X75857705Y-133431340D01*
X75857705Y-133609745D01*
X75822024Y-133681107D01*
X75786343Y-133716788D01*
X75714981Y-133752469D01*
X75500896Y-133752469D01*
X75429534Y-133716788D01*
X75393853Y-133681107D01*
X76321558Y-133003169D02*
X76392919Y-133003169D01*
X76464281Y-133038850D01*
X76499962Y-133074531D01*
X76535643Y-133145893D01*
X76571324Y-133288617D01*
X76571324Y-133467021D01*
X76535643Y-133609745D01*
X76499962Y-133681107D01*
X76464281Y-133716788D01*
X76392919Y-133752469D01*
X76321558Y-133752469D01*
X76250196Y-133716788D01*
X76214515Y-133681107D01*
X76178834Y-133609745D01*
X76143153Y-133467021D01*
X76143153Y-133288617D01*
X76178834Y-133145893D01*
X76214515Y-133074531D01*
X76250196Y-133038850D01*
X76321558Y-133003169D01*
X76856772Y-133074531D02*
X76892453Y-133038850D01*
X76963815Y-133003169D01*
X77142219Y-133003169D01*
X77213581Y-133038850D01*
X77249262Y-133074531D01*
X77284943Y-133145893D01*
X77284943Y-133217255D01*
X77249262Y-133324298D01*
X76821091Y-133752469D01*
X77284943Y-133752469D01*
D11*
X65436809Y-140438190D02*
X65436809Y-140914381D01*
X65103476Y-139914381D02*
X65436809Y-140438190D01*
X65770143Y-139914381D01*
X66627286Y-140914381D02*
X66055857Y-140914381D01*
X66341571Y-140914381D02*
X66341571Y-139914381D01*
X66246333Y-140057238D01*
X66151095Y-140152476D01*
X66055857Y-140200095D01*
X140803334Y-50692381D02*
X140327143Y-50692381D01*
X140327143Y-49692381D01*
X141660477Y-50692381D02*
X141089048Y-50692381D01*
X141374762Y-50692381D02*
X141374762Y-49692381D01*
X141279524Y-49835238D01*
X141184286Y-49930476D01*
X141089048Y-49978095D01*
M02*
